<svg width="167" height="79" viewBox="0 0 167 79" fill="none" xmlns="http://www.w3.org/2000/svg">
<path d="M159.63 35.1021L160.109 35.0621C160.129 35.2519 160.189 35.4118 160.269 35.5317C160.349 35.6516 160.479 35.7516 160.658 35.8315C160.838 35.9114 161.028 35.9414 161.248 35.9414C161.437 35.9414 161.607 35.9114 161.757 35.8515C161.907 35.7915 162.017 35.7116 162.086 35.6117C162.156 35.5117 162.196 35.4018 162.196 35.2819C162.196 35.162 162.166 35.0521 162.096 34.9722C162.026 34.8922 161.917 34.8023 161.757 34.7424C161.657 34.7024 161.427 34.6424 161.078 34.5525C160.728 34.4726 160.479 34.3926 160.339 34.3127C160.159 34.2128 160.019 34.1029 159.929 33.953C159.839 33.8031 159.799 33.6532 159.799 33.4734C159.799 33.2835 159.849 33.1037 159.959 32.9338C160.069 32.7639 160.229 32.634 160.439 32.5541C160.648 32.4642 160.888 32.4242 161.138 32.4242C161.417 32.4242 161.667 32.4742 161.887 32.5641C162.106 32.654 162.266 32.7939 162.386 32.9638C162.506 33.1436 162.566 33.3435 162.576 33.5633L162.086 33.6033C162.056 33.3634 161.977 33.1836 161.817 33.0537C161.657 32.9238 161.447 32.8638 161.148 32.8638C160.838 32.8638 160.618 32.9238 160.479 33.0337C160.339 33.1436 160.269 33.2835 160.269 33.4434C160.269 33.5833 160.319 33.6932 160.419 33.7831C160.518 33.873 160.768 33.963 161.178 34.0529C161.587 34.1428 161.867 34.2228 162.026 34.2927C162.246 34.3926 162.416 34.5225 162.516 34.6824C162.626 34.8423 162.676 35.0221 162.676 35.222C162.676 35.4218 162.616 35.6217 162.496 35.8015C162.376 35.9814 162.216 36.1213 161.997 36.2212C161.777 36.3211 161.537 36.3711 161.257 36.3711C160.908 36.3711 160.618 36.3211 160.389 36.2212C160.159 36.1213 159.969 35.9714 159.839 35.7615C159.71 35.5917 159.64 35.3619 159.63 35.1021Z" fill="white"/>
<path d="M163.355 36.3311V32.5042H164.114L165.023 35.212C165.102 35.4618 165.162 35.6517 165.202 35.7816C165.242 35.6417 165.312 35.4418 165.402 35.172L166.321 32.5141H167V36.3411H166.511V33.1337L165.402 36.3411H164.943L163.834 33.0837V36.3411H163.355V36.3311Z" fill="white"/>
<path d="M20.6228 58.7434C18.8052 60.1623 17.0475 61.2215 15.3498 61.9209C13.652 62.6304 11.7445 62.9801 9.6373 62.9801C7.70984 62.9801 6.02207 62.6004 4.554 61.841C3.09592 61.0816 1.96741 60.0424 1.17845 58.7434C0.399474 57.4345 0 56.0256 0 54.4968C0 52.4384 0.649145 50.6898 1.95742 49.231C3.25571 47.7821 5.05334 46.8029 7.32036 46.3133C7.79973 46.2134 8.98816 45.9636 10.8757 45.5739C12.7632 45.1842 14.3811 44.8345 15.7293 44.5147C17.0775 44.195 18.5456 43.8053 20.1235 43.3457C20.0336 41.3572 19.6341 39.9084 18.9251 38.9791C18.216 38.0499 16.7579 37.5902 14.5309 37.5902C12.6234 37.5902 11.1853 37.86 10.2265 38.3896C9.26779 38.9192 8.43888 39.7185 7.74979 40.7877C7.0607 41.8568 6.57134 42.5563 6.29171 42.896C6.00209 43.2358 5.3929 43.4056 4.46412 43.4056C3.61524 43.4056 2.8862 43.1358 2.277 42.5963C1.65782 42.0567 1.35821 41.3572 1.35821 40.5179C1.35821 39.199 1.82759 37.91 2.76636 36.661C3.70512 35.412 5.1632 34.3828 7.14059 33.5734C9.12798 32.7641 11.5947 32.3644 14.5508 32.3644C17.8565 32.3644 20.4531 32.7541 22.3406 33.5335C24.2281 34.3128 25.5663 35.5519 26.3453 37.2405C27.1243 38.9292 27.5138 41.1674 27.5138 43.9652C27.5138 45.7238 27.5138 47.2226 27.5038 48.4516C27.4938 49.6806 27.4838 51.0496 27.4638 52.5584C27.4638 53.9672 27.6935 55.4461 28.1629 56.9748C28.6323 58.5036 28.862 59.4929 28.862 59.9325C28.862 60.7019 28.5025 61.4013 27.7734 62.0408C27.0444 62.6703 26.2255 62.9901 25.3067 62.9901C24.5377 62.9901 23.7787 62.6304 23.0197 61.9009C22.2607 61.1715 21.4617 60.1224 20.6228 58.7434ZM20.1235 47.8621C19.0249 48.2718 17.4171 48.6914 15.3198 49.1411C13.2226 49.5907 11.7645 49.9204 10.9556 50.1303C10.1466 50.3401 9.37765 50.7598 8.64861 51.3693C7.90958 51.9888 7.55005 52.8381 7.55005 53.9473C7.55005 55.0863 7.97949 56.0556 8.84834 56.8549C9.70721 57.6543 10.8357 58.054 12.2339 58.054C13.7219 58.054 15.0901 57.7243 16.3485 57.0748C17.6068 56.4253 18.5256 55.586 19.1148 54.5568C19.7939 53.4177 20.1335 51.5492 20.1335 48.9412V47.8621H20.1235Z" fill="white"/>
<path d="M42.5839 52.1285V58.4036C42.5839 59.9323 42.2243 61.0714 41.5053 61.8308C40.7862 62.5902 39.8774 62.9699 38.7789 62.9699C37.7003 62.9699 36.8115 62.5802 36.1124 61.8109C35.4133 61.0415 35.0638 59.9024 35.0638 58.3936V37.4802C35.0638 34.1028 36.2822 32.4142 38.729 32.4142C39.9773 32.4142 40.8761 32.8139 41.4254 33.5932C41.9747 34.3826 42.2743 35.5517 42.3342 37.0905C43.233 35.5517 44.1518 34.3826 45.1006 33.5932C46.0493 32.8039 47.3077 32.4142 48.8856 32.4142C50.4635 32.4142 52.0015 32.8139 53.4795 33.5932C54.9676 34.3826 55.7066 35.4318 55.7066 36.7308C55.7066 37.65 55.387 38.4094 54.7578 38.999C54.1287 39.5985 53.4396 39.8883 52.7105 39.8883C52.4309 39.8883 51.7718 39.7184 50.7132 39.3787C49.6546 39.0389 48.7258 38.8691 47.9168 38.8691C46.8183 38.8691 45.9195 39.1588 45.2204 39.7384C44.5213 40.3179 43.982 41.1772 43.5925 42.3163C43.2031 43.4554 42.9434 44.8143 42.7936 46.3831C42.6638 47.9618 42.5839 49.8703 42.5839 52.1285Z" fill="white"/>
<path d="M66.5423 52.1285V58.4036C66.5423 59.9323 66.1828 61.0714 65.4637 61.8308C64.7447 62.5902 63.8359 62.9699 62.7373 62.9699C61.6587 62.9699 60.7699 62.5802 60.0708 61.8109C59.3718 61.0415 59.0222 59.9024 59.0222 58.3936V37.4802C59.0222 34.1028 60.2406 32.4142 62.6874 32.4142C63.9357 32.4142 64.8346 32.8139 65.3838 33.5932C65.9331 34.3826 66.2327 35.5517 66.2926 37.0905C67.1915 35.5517 68.1102 34.3826 69.059 33.5932C70.0077 32.8039 71.2661 32.4142 72.844 32.4142C74.4219 32.4142 75.9499 32.8139 77.438 33.5932C78.926 34.3826 79.665 35.4318 79.665 36.7308C79.665 37.65 79.3454 38.4094 78.7163 38.999C78.0871 39.5985 77.398 39.8883 76.669 39.8883C76.3893 39.8883 75.7302 39.7184 74.6716 39.3787C73.613 39.0389 72.6842 38.8691 71.8753 38.8691C70.7767 38.8691 69.8779 39.1588 69.1788 39.7384C68.4798 40.3179 67.9405 41.1772 67.551 42.3163C67.1615 43.4554 66.9018 44.8143 66.752 46.3831C66.6122 47.9618 66.5423 49.8703 66.5423 52.1285Z" fill="white"/>
<path d="M91.2898 36.6808V58.4136C91.2898 59.9224 90.9302 61.0615 90.2112 61.8308C89.4921 62.6002 88.5833 62.9899 87.4848 62.9899C86.3862 62.9899 85.4874 62.5902 84.7983 61.8009C84.1092 61.0115 83.7697 59.8824 83.7697 58.4136V36.9006C83.7697 35.4118 84.1092 34.2927 84.7983 33.5433C85.4874 32.7939 86.3862 32.4142 87.4848 32.4142C88.5833 32.4142 89.4921 32.7939 90.2112 33.5433C90.9302 34.2927 91.2898 35.3419 91.2898 36.6808Z" fill="white"/>
<path d="M104.363 37.0906L110.444 54.167L116.996 36.3412C117.505 34.9123 118.015 33.8931 118.514 33.2936C119.013 32.6941 119.762 32.4043 120.771 32.4043C121.73 32.4043 122.539 32.724 123.208 33.3635C123.877 34.003 124.216 34.7524 124.216 35.5918C124.216 35.9215 124.156 36.3112 124.037 36.7508C123.917 37.1905 123.777 37.6002 123.627 37.9899C123.467 38.3796 123.288 38.8192 123.088 39.3088L115.877 57.2146C115.678 57.7242 115.418 58.3837 115.098 59.1731C114.779 59.9624 114.419 60.6419 114.02 61.2014C113.62 61.761 113.141 62.2007 112.562 62.5104C111.982 62.8202 111.283 62.98 110.454 62.98C109.386 62.98 108.537 62.7402 107.908 62.2506C107.279 61.761 106.809 61.2314 106.5 60.6519C106.2 60.0723 105.691 58.9332 104.972 57.2246L97.8111 39.5087C97.6513 39.069 97.4716 38.6294 97.3018 38.1897C97.122 37.7501 96.9822 37.3004 96.8624 36.8408C96.7425 36.3811 96.6826 35.9915 96.6826 35.6517C96.6826 35.1421 96.8424 34.6325 97.152 34.1229C97.4616 33.6133 97.891 33.2037 98.4503 32.8839C98.9996 32.5642 99.5988 32.4043 100.238 32.4043C101.486 32.4043 102.345 32.764 102.815 33.4834C103.274 34.2029 103.793 35.4019 104.363 37.0906Z" fill="#3798CD"/>
<path d="M149.134 58.7434V57.7842C148.235 58.9233 147.286 59.8725 146.297 60.6519C145.309 61.4213 144.22 62.0008 143.052 62.3705C141.873 62.7502 140.535 62.9301 139.037 62.9301C137.219 62.9301 135.591 62.5504 134.153 61.801C132.715 61.0516 131.597 60.0124 130.808 58.6834C129.869 57.0847 129.4 54.7865 129.4 51.7989V36.9007C129.4 35.3919 129.739 34.2728 130.418 33.5234C131.097 32.784 131.996 32.4043 133.115 32.4043C134.253 32.4043 135.172 32.784 135.871 33.5334C136.57 34.2828 136.92 35.4119 136.92 36.8907V48.9312C136.92 50.6798 137.069 52.1386 137.359 53.3277C137.649 54.5167 138.178 55.436 138.947 56.1055C139.706 56.775 140.745 57.1147 142.043 57.1147C143.311 57.1147 144.5 56.735 145.618 55.9856C146.737 55.2362 147.556 54.247 148.065 53.0379C148.484 51.9688 148.694 49.6406 148.694 46.0435V36.9007C148.694 35.4119 149.044 34.2928 149.743 33.5434C150.442 32.794 151.351 32.4143 152.469 32.4143C153.588 32.4143 154.486 32.784 155.166 33.5334C155.845 34.2728 156.184 35.4019 156.184 36.9107V58.6934C156.184 60.1223 155.855 61.2014 155.206 61.9209C154.556 62.6403 153.717 63 152.689 63C151.66 63 150.811 62.6303 150.142 61.8809C149.463 61.1215 149.134 60.0823 149.134 58.7434Z" fill="white"/>
<path d="M110.225 4.51642C118.793 4.51642 126.523 8.11356 131.996 13.869L135.192 10.6715C128.9 4.10674 120.042 0 110.225 0C100.368 0 91.4795 4.13672 85.1877 10.7715L88.3835 13.9689C93.8563 8.15353 101.616 4.51642 110.225 4.51642Z" fill="#3798CD"/>
<path d="M110.225 15.5677C115.748 15.5677 120.711 17.9259 124.186 21.6929L127.362 18.5154C123.078 13.939 116.986 11.0813 110.225 11.0813C103.424 11.0813 97.2919 13.979 93.0075 18.6053L96.1833 21.7828C99.6587 17.9658 104.662 15.5677 110.225 15.5677Z" fill="#3798CD"/>
<path d="M110.225 26.2791C112.791 26.2791 115.078 27.4481 116.596 29.2767L119.772 26.0992C117.435 23.4613 114.03 21.8026 110.225 21.8026C106.38 21.8026 102.944 23.5013 100.597 26.1891L103.773 29.3666C105.301 27.4881 107.618 26.2791 110.225 26.2791Z" fill="#3798CD"/>
<g clip-path="url(#clip0_183_1120)">
<path d="M1.45891 76.3079H0V69.0304H1.45891V76.3079Z" fill="white"/>
<path d="M4.12929 70.8989L4.19755 71.6753C4.37671 71.3937 4.59853 71.1804 4.86301 71.0269C5.1275 70.8733 5.41757 70.7965 5.7503 70.7965C6.29633 70.7965 6.72291 70.9671 7.03005 71.3084C7.33719 71.6497 7.49076 72.1872 7.49076 72.9209V76.2994H6.01478V72.9294C6.01478 72.5626 5.938 72.3066 5.79296 72.153C5.64792 71.9995 5.43463 71.9227 5.13603 71.9227C4.9398 71.9227 4.76917 71.9653 4.6156 72.0421C4.46203 72.1189 4.33405 72.2298 4.23167 72.3749V76.3079H2.77277V70.8989H4.12929Z" fill="white"/>
<path d="M10.3062 69.5764V70.8988H11.2191V71.9226H10.3062V74.6783C10.3062 74.8916 10.3489 75.0367 10.4342 75.1305C10.5195 75.2244 10.6389 75.267 10.784 75.267C10.8608 75.267 10.929 75.267 10.9802 75.2585C11.0314 75.2499 11.0996 75.2329 11.1764 75.2158L11.3044 76.2737C11.1594 76.3249 11.0143 76.3591 10.8778 76.3847C10.7413 76.4103 10.5877 76.4188 10.4256 76.4188C9.92227 76.4188 9.53835 76.2823 9.26534 76.0007C8.99233 75.7192 8.85582 75.2841 8.85582 74.6869V71.9226H8.06238V70.8988H8.85582V69.5764H10.3062Z" fill="white"/>
<path d="M14.5379 76.4103C13.7615 76.4103 13.1387 76.1629 12.6694 75.6595C12.2002 75.1562 11.9698 74.5248 11.9698 73.757V73.5608C11.9698 72.7588 12.1917 72.0933 12.6353 71.5729C13.079 71.0525 13.6676 70.7965 14.4099 70.7965C15.1436 70.7965 15.7067 71.0183 16.1077 71.4534C16.5087 71.8886 16.7134 72.4858 16.7134 73.2366V74.03H13.4799V74.0727C13.5055 74.431 13.625 74.7211 13.8383 74.9514C14.0516 75.1818 14.3331 75.2927 14.7 75.2927C15.0242 75.2927 15.2887 75.2586 15.5019 75.1988C15.7152 75.1391 15.9456 75.0282 16.2015 74.8917L16.594 75.796C16.3722 75.9752 16.0821 76.1288 15.7323 76.2482C15.3825 76.3677 14.9815 76.4103 14.5379 76.4103ZM14.4099 71.9227C14.1369 71.9227 13.9236 72.0251 13.77 72.2298C13.6165 72.4346 13.5141 72.7076 13.4799 73.0489L13.497 73.0745H15.2887V72.9465C15.2887 72.6393 15.2204 72.3919 15.0754 72.2042C14.9303 72.0165 14.7085 71.9227 14.4099 71.9227Z" fill="white"/>
<path d="M19.1023 76.3079H17.6434V68.51H19.1023V76.3079Z" fill="white"/>
<path d="M21.8324 76.3079H20.3735V68.51H21.8324V76.3079Z" fill="white"/>
<path d="M24.5711 69.6021H23.1122V68.51H24.5711V69.6021ZM24.5711 76.3079H23.1122V70.8989H24.5711V76.3079Z" fill="white"/>
<path d="M25.5437 73.6461C25.5437 72.7929 25.7314 72.1018 26.0983 71.5814C26.4651 71.061 26.9941 70.7965 27.6595 70.7965C27.9667 70.7965 28.2312 70.8648 28.4615 71.0013C28.6919 71.1378 28.8881 71.334 29.0502 71.59L29.1611 70.8989H30.4238V76.2823C30.4238 76.9819 30.1934 77.528 29.7327 77.9119C29.272 78.2958 28.6322 78.492 27.8046 78.492C27.5316 78.492 27.2415 78.4579 26.9344 78.3811C26.6272 78.3043 26.3457 78.202 26.0812 78.074L26.3542 76.9819C26.576 77.0843 26.8064 77.1696 27.0367 77.2208C27.2671 77.272 27.523 77.3061 27.7961 77.3061C28.197 77.3061 28.4871 77.2208 28.6748 77.0587C28.8625 76.8966 28.9564 76.6321 28.9564 76.2823V75.7875C28.7943 75.9923 28.6066 76.1458 28.3933 76.2482C28.18 76.3506 27.9326 76.4103 27.651 76.4103C26.9855 76.4103 26.4736 76.1629 26.0983 75.6766C25.7229 75.1903 25.5437 74.5419 25.5437 73.7485V73.6461ZM27.0026 73.757C27.0026 74.2348 27.0794 74.6101 27.2415 74.8832C27.4036 75.1562 27.6595 75.2927 28.0179 75.2927C28.2397 75.2927 28.4274 75.25 28.5895 75.1732C28.7431 75.0879 28.871 74.9685 28.9649 74.8149V72.4431C28.871 72.281 28.7516 72.153 28.5895 72.0592C28.4274 71.9653 28.2482 71.9227 28.0349 71.9227C27.6766 71.9227 27.4207 72.0848 27.25 72.4005C27.0794 72.7161 27.0026 73.1342 27.0026 73.6461V73.757Z" fill="white"/>
<path d="M33.9474 76.4103C33.171 76.4103 32.5482 76.1629 32.0789 75.6595C31.6097 75.1562 31.3793 74.5248 31.3793 73.757V73.5608C31.3793 72.7588 31.6012 72.0933 32.0448 71.5729C32.4884 71.0525 33.0771 70.7965 33.8194 70.7965C34.5531 70.7965 35.1162 71.0183 35.5172 71.4534C35.9182 71.8886 36.1229 72.4858 36.1229 73.2366V74.03H32.8894L32.8809 74.0641C32.9065 74.4225 33.0259 74.7125 33.2392 74.9429C33.4525 75.1732 33.7341 75.2841 34.1009 75.2841C34.4251 75.2841 34.6896 75.25 34.9029 75.1903C35.1162 75.1306 35.3465 75.0197 35.6025 74.8832L35.9949 75.7875C35.7731 75.9667 35.483 76.1202 35.1333 76.2397C34.7835 76.3591 34.3825 76.4103 33.9474 76.4103ZM33.8108 71.9227C33.5378 71.9227 33.3245 72.0251 33.171 72.2298C33.0174 72.4346 32.915 72.7076 32.8809 73.0489L32.898 73.0745H34.6896V72.9465C34.6896 72.6393 34.6214 72.3919 34.4763 72.2042C34.3313 72.0165 34.1095 71.9227 33.8108 71.9227Z" fill="white"/>
<path d="M38.2985 70.8989L38.3667 71.6753C38.5459 71.4023 38.7677 71.1804 39.0322 71.0269C39.2967 70.8733 39.5868 70.7965 39.9195 70.7965C40.4655 70.7965 40.8921 70.9671 41.1992 71.3084C41.5064 71.6497 41.6599 72.1872 41.6599 72.9209V76.2994H40.1925V72.9294C40.1925 72.5626 40.1157 72.3066 39.9707 72.153C39.8256 71.9995 39.6038 71.9227 39.3052 71.9227C39.109 71.9227 38.9384 71.9653 38.7848 72.0421C38.6312 72.1189 38.5032 72.2298 38.4009 72.3749V76.3079H36.942V70.8989H38.2985Z" fill="white"/>
<path d="M45.0129 75.2927C45.2688 75.2927 45.4821 75.2159 45.6357 75.0623C45.7892 74.9088 45.8746 74.7125 45.8746 74.4566H47.197L47.214 74.4907C47.2311 75.0367 47.0178 75.4974 46.5997 75.8643C46.1817 76.2312 45.6442 76.4189 45.0214 76.4189C44.2109 76.4189 43.5966 76.1629 43.153 75.651C42.7093 75.1391 42.496 74.4822 42.496 73.6802V73.5352C42.496 72.7417 42.7093 72.0848 43.1444 71.5729C43.5795 71.061 44.2024 70.8051 45.0043 70.8051C45.6698 70.8051 46.2073 70.9927 46.6168 71.3767C47.0263 71.7606 47.2226 72.2554 47.2055 72.8782L47.197 72.9124H45.866C45.866 72.6308 45.7892 72.4005 45.6357 72.2128C45.4821 72.0251 45.2773 71.9227 45.0129 71.9227C44.6289 71.9227 44.3559 72.0763 44.1938 72.3749C44.0317 72.6735 43.9549 73.0574 43.9549 73.5352V73.6887C43.9549 74.175 44.0317 74.559 44.1938 74.8576C44.3559 75.1562 44.6289 75.2927 45.0129 75.2927Z" fill="white"/>
<path d="M50.439 76.4103C49.6626 76.4103 49.0398 76.1629 48.5706 75.6595C48.1013 75.1562 47.871 74.5248 47.871 73.757V73.5608C47.871 72.7588 48.0928 72.0933 48.5364 71.5729C48.9801 71.0525 49.5688 70.7965 50.311 70.7965C51.0447 70.7965 51.6078 71.0183 52.0088 71.4534C52.4098 71.8886 52.6146 72.4858 52.6146 73.2366V74.03H49.3811L49.3725 74.0641C49.3981 74.4225 49.5176 74.7125 49.7309 74.9429C49.9442 75.1732 50.2257 75.2841 50.5926 75.2841C50.9168 75.2841 51.1812 75.25 51.3945 75.1903C51.6078 75.1306 51.8382 75.0197 52.0941 74.8832L52.4866 75.7875C52.2648 75.9667 51.9747 76.1202 51.6249 76.2397C51.2751 76.3591 50.8741 76.4103 50.439 76.4103ZM50.311 71.9227C50.038 71.9227 49.8247 72.0251 49.6711 72.2298C49.5176 72.4346 49.4152 72.7076 49.3811 73.0489L49.3981 73.0745H51.1898V72.9465C51.1898 72.6393 51.1215 72.3919 50.9765 72.2042C50.8314 72.0165 50.6011 71.9227 50.311 71.9227Z" fill="white"/>
<path d="M57.7506 69.5764V70.8988H58.6635V71.9226H57.7506V74.6783C57.7506 74.8916 57.7932 75.0367 57.8786 75.1305C57.9639 75.2244 58.0833 75.267 58.2284 75.267C58.3051 75.267 58.3734 75.267 58.4246 75.2585C58.4758 75.2499 58.544 75.2329 58.6208 75.2158L58.7488 76.2737C58.6038 76.3249 58.4587 76.3591 58.3222 76.3847C58.1857 76.4103 58.0321 76.4188 57.87 76.4188C57.3667 76.4188 56.9827 76.2823 56.7097 76.0007C56.4367 75.7192 56.3002 75.2841 56.3002 74.6869V71.9226H55.5068V70.8988H56.3002V69.5764H57.7506Z" fill="white"/>
<path d="M61.0097 71.5814C61.1803 71.334 61.3851 71.1463 61.6325 71.0012C61.8799 70.8562 62.1529 70.7965 62.4515 70.7965C63.0146 70.7965 63.4583 70.9842 63.7825 71.3596C64.1067 71.735 64.2688 72.3151 64.2688 73.1V76.3079H62.8099V73.083C62.8099 72.6649 62.7331 72.3663 62.588 72.1871C62.4345 72.008 62.2126 71.9227 61.9226 71.9227C61.7263 71.9227 61.5472 71.9568 61.3936 72.0336C61.24 72.1018 61.1121 72.2042 61.0097 72.3322V76.3079H59.5508V68.51H61.0097V71.5814Z" fill="white"/>
<path d="M68.5431 76.3079C68.4919 76.1885 68.4407 76.052 68.4066 75.9155C68.3725 75.779 68.3384 75.6425 68.3213 75.4974C68.1677 75.7619 67.9715 75.9752 67.7326 76.1544C67.4937 76.3335 67.1951 76.4103 66.8539 76.4103C66.2908 76.4103 65.8471 76.2653 65.54 75.9752C65.2329 75.6851 65.0793 75.2841 65.0793 74.7808C65.0793 74.2518 65.284 73.8423 65.6936 73.5522C66.1031 73.2621 66.7003 73.1171 67.4852 73.1171H68.3042V72.6905C68.3042 72.4346 68.236 72.2298 68.0995 72.0848C67.963 71.9397 67.7582 71.8715 67.4937 71.8715C67.2549 71.8715 67.0757 71.9312 66.9477 72.0421C66.8197 72.153 66.7515 72.3151 66.7515 72.5199L65.3438 72.5114L65.3352 72.4772C65.3096 72.0165 65.5144 71.6241 65.9324 71.2913C66.3505 70.9586 66.9051 70.7965 67.5876 70.7965C68.236 70.7965 68.7564 70.9586 69.1659 71.2913C69.5755 71.6241 69.7717 72.0848 69.7717 72.6905V74.9258C69.7717 75.1818 69.7887 75.4207 69.8314 75.6425C69.8741 75.8643 69.9338 76.0861 70.0106 76.3079H68.5431ZM67.2037 75.3353C67.4596 75.3353 67.69 75.2756 67.8862 75.1476C68.0824 75.0197 68.2189 74.8746 68.2872 74.704V73.9361H67.4852C67.1781 73.9361 66.9392 74.0129 66.7771 74.1665C66.615 74.3201 66.5382 74.5078 66.5382 74.7296C66.5382 74.9088 66.5979 75.0538 66.7174 75.1647C66.8368 75.2756 66.9989 75.3353 67.2037 75.3353Z" fill="white"/>
<path d="M72.6042 69.5764V70.8988H73.5171V71.9226H72.6042V74.6783C72.6042 74.8916 72.6468 75.0367 72.7321 75.1305C72.8175 75.2244 72.9369 75.267 73.0819 75.267C73.1587 75.267 73.227 75.267 73.2782 75.2585C73.3294 75.2499 73.3976 75.2329 73.4744 75.2158L73.6024 76.2737C73.4573 76.3249 73.3123 76.3591 73.1758 76.3847C73.0393 76.4103 72.8857 76.4188 72.7236 76.4188C72.2202 76.4188 71.8363 76.2823 71.5633 76.0007C71.2903 75.7192 71.1538 75.2841 71.1538 74.6869V71.9226H70.3604V70.8988H71.1538V69.5764H72.6042Z" fill="white"/>
<path d="M81.8695 73.757C81.8695 74.559 81.6818 75.1988 81.315 75.6851C80.9481 76.1714 80.4277 76.4189 79.7622 76.4189C79.4807 76.4189 79.2247 76.3677 79.0114 76.2653C78.7981 76.1629 78.6019 76.0093 78.4483 75.8046V78.3982H76.9894V70.8989H78.3033L78.3886 71.5388C78.5507 71.2999 78.7384 71.1207 78.9688 70.9927C79.1991 70.8648 79.4551 70.7965 79.7537 70.7965C80.4277 70.7965 80.9396 71.061 81.315 71.5814C81.6904 72.1018 81.8695 72.7929 81.8695 73.6461V73.757ZM80.4106 73.6375C80.4106 73.1256 80.3253 72.7161 80.1547 72.3919C79.984 72.0677 79.7281 71.9227 79.3783 71.9227C79.1565 71.9227 78.9688 71.9653 78.8152 72.0592C78.6616 72.153 78.5337 72.281 78.4483 72.4431V74.8149C78.5422 74.9685 78.6616 75.0879 78.8152 75.1647C78.9688 75.2415 79.165 75.2841 79.3868 75.2841C79.7366 75.2841 80.0011 75.1476 80.1632 74.8661C80.3253 74.5931 80.4106 74.2177 80.4106 73.7399V73.6375Z" fill="white"/>
<path d="M85.6149 72.153L85.0774 72.136C84.8641 72.136 84.6849 72.1786 84.5399 72.2725C84.3948 72.3663 84.2925 72.4858 84.2157 72.6564V76.3079H82.7568V70.8989H84.1133L84.1816 71.7009C84.3095 71.4193 84.4716 71.1975 84.6764 71.0354C84.8811 70.8733 85.1115 70.7965 85.376 70.7965C85.4528 70.7965 85.521 70.805 85.5807 70.8136C85.6405 70.8221 85.7087 70.8392 85.7684 70.8562L85.6149 72.153Z" fill="white"/>
<path d="M86.1268 73.5522C86.1268 72.7417 86.3486 72.0848 86.8008 71.5729C87.2529 71.061 87.8758 70.7965 88.6692 70.7965C89.4712 70.7965 90.094 71.0525 90.5462 71.5644C90.9983 72.0763 91.2287 72.7417 91.2287 73.5522V73.6546C91.2287 74.4651 91.0069 75.1306 90.5547 75.6425C90.1025 76.1544 89.4797 76.4103 88.6863 76.4103C87.8843 76.4103 87.2615 76.1544 86.8093 75.6425C86.3571 75.1306 86.1353 74.4651 86.1353 73.6546V73.5522H86.1268ZM87.5857 73.6546C87.5857 74.1494 87.671 74.5419 87.8416 74.8405C88.0123 75.1391 88.2938 75.2841 88.6777 75.2841C89.0531 75.2841 89.3261 75.1306 89.5053 74.832C89.6845 74.5334 89.7698 74.1409 89.7698 73.6461V73.5522C89.7698 73.0745 89.6845 72.682 89.5053 72.3749C89.3347 72.0763 89.0531 71.9227 88.6692 71.9227C88.2938 71.9227 88.0208 72.0763 87.8416 72.3834C87.6625 72.6905 87.5771 73.0745 87.5771 73.5522V73.6546H87.5857Z" fill="white"/>
<path d="M97.0132 73.757C97.0132 74.559 96.8255 75.1988 96.4586 75.6851C96.0917 76.1714 95.5713 76.4189 94.9058 76.4189C94.6243 76.4189 94.3683 76.3677 94.1551 76.2653C93.9418 76.1629 93.7455 76.0093 93.592 75.8046V78.3982H92.1331V70.8989H93.4469L93.5322 71.5388C93.6943 71.2999 93.882 71.1207 94.1124 70.9927C94.3428 70.8648 94.5987 70.7965 94.8973 70.7965C95.5713 70.7965 96.0832 71.061 96.4586 71.5814C96.834 72.1018 97.0132 72.7929 97.0132 73.6461V73.757ZM95.5542 73.6375C95.5542 73.1256 95.4689 72.7161 95.2983 72.3919C95.1277 72.0677 94.8632 71.9227 94.5134 71.9227C94.2916 71.9227 94.1039 71.9653 93.9503 72.0592C93.7967 72.153 93.6688 72.281 93.5834 72.4431V74.8149C93.6773 74.9685 93.7967 75.0879 93.9503 75.1647C94.1039 75.2415 94.3001 75.2841 94.5219 75.2841C94.8717 75.2841 95.1362 75.1476 95.2983 74.8661C95.4689 74.5931 95.5542 74.2177 95.5542 73.7485V73.6375Z" fill="white"/>
<path d="M100.306 76.4103C99.53 76.4103 98.9072 76.1629 98.4379 75.6595C97.9687 75.1562 97.7383 74.5248 97.7383 73.757V73.5608C97.7383 72.7588 97.9602 72.0933 98.4038 71.5729C98.8475 71.0525 99.4361 70.7965 100.178 70.7965C100.912 70.7965 101.475 71.0183 101.876 71.4534C102.277 71.8886 102.482 72.4858 102.482 73.2366V74.03H99.2484L99.2399 74.0641C99.2655 74.4225 99.3849 74.7125 99.5982 74.9429C99.8115 75.1732 100.093 75.2841 100.46 75.2841C100.784 75.2841 101.049 75.25 101.262 75.1903C101.475 75.1306 101.706 75.0197 101.961 74.8832L102.354 75.7875C102.132 75.9667 101.842 76.1202 101.492 76.2397C101.142 76.3591 100.741 76.4103 100.306 76.4103ZM100.178 71.9227C99.9054 71.9227 99.6921 72.0251 99.5385 72.2298C99.3849 72.4346 99.2826 72.7076 99.2484 73.0489L99.2655 73.0745H101.057V72.9465C101.057 72.6393 100.989 72.3919 100.844 72.2042C100.699 72.0165 100.468 71.9227 100.178 71.9227Z" fill="white"/>
<path d="M104.862 76.3079H103.403V68.51H104.862V76.3079Z" fill="white"/>
<path d="M108.992 74.8149C108.992 74.6528 108.915 74.5163 108.761 74.3969C108.608 74.2774 108.318 74.175 107.899 74.0897C107.26 73.9617 106.773 73.7655 106.449 73.5096C106.125 73.2536 105.963 72.9038 105.963 72.4687C105.963 71.9995 106.159 71.607 106.551 71.2828C106.944 70.9586 107.464 70.7965 108.121 70.7965C108.812 70.7965 109.358 70.9586 109.768 71.2828C110.177 71.607 110.374 72.0165 110.357 72.5114L110.348 72.5455H108.94C108.94 72.3322 108.872 72.153 108.736 72.0165C108.599 71.88 108.394 71.8118 108.13 71.8118C107.891 71.8118 107.703 71.8715 107.575 71.9824C107.447 72.0933 107.371 72.2384 107.371 72.4175C107.371 72.5882 107.439 72.7247 107.584 72.827C107.729 72.9294 108.01 73.0318 108.446 73.1086C109.111 73.2451 109.606 73.4413 109.93 73.6973C110.254 73.9532 110.416 74.3115 110.416 74.7637C110.416 75.25 110.212 75.651 109.794 75.9581C109.375 76.2653 108.829 76.4189 108.147 76.4189C107.43 76.4189 106.859 76.2397 106.441 75.8728C106.023 75.506 105.826 75.0879 105.843 74.6272L105.852 74.5931H107.183C107.191 74.8832 107.285 75.0964 107.464 75.2244C107.644 75.3524 107.882 75.4207 108.173 75.4207C108.446 75.4207 108.65 75.3695 108.787 75.2586C108.923 75.1476 108.992 75.0026 108.992 74.8149Z" fill="white"/>
<path d="M116.158 75.2927C116.414 75.2927 116.627 75.2159 116.781 75.0623C116.935 74.9088 117.02 74.7125 117.02 74.4566H118.342L118.359 74.4907C118.376 75.0367 118.163 75.4974 117.745 75.8643C117.327 76.2312 116.789 76.4189 116.167 76.4189C115.356 76.4189 114.742 76.1629 114.298 75.651C113.855 75.1391 113.641 74.4822 113.641 73.6802V73.5352C113.641 72.7417 113.855 72.0848 114.29 71.5729C114.725 71.061 115.348 70.8051 116.15 70.8051C116.815 70.8051 117.353 70.9927 117.762 71.3767C118.172 71.7606 118.368 72.2554 118.351 72.8782L118.342 72.9124H117.011C117.011 72.6308 116.935 72.4005 116.781 72.2128C116.627 72.0251 116.423 71.9227 116.158 71.9227C115.774 71.9227 115.501 72.0763 115.339 72.3749C115.177 72.6735 115.1 73.0574 115.1 73.5352V73.6887C115.1 74.175 115.177 74.559 115.339 74.8576C115.501 75.1562 115.774 75.2927 116.158 75.2927Z" fill="white"/>
<path d="M122.036 72.153L121.499 72.136C121.286 72.136 121.106 72.1786 120.961 72.2725C120.816 72.3663 120.714 72.4858 120.637 72.6564V76.3079H119.178V70.8989H120.535L120.603 71.7009C120.731 71.4193 120.893 71.1975 121.098 71.0354C121.303 70.8733 121.533 70.7965 121.798 70.7965C121.874 70.7965 121.943 70.805 122.002 70.8136C122.062 70.8221 122.13 70.8392 122.19 70.8562L122.036 72.153Z" fill="white"/>
<path d="M125.168 76.4103C124.391 76.4103 123.768 76.1629 123.299 75.6595C122.83 75.1562 122.599 74.5248 122.599 73.757V73.5608C122.599 72.7588 122.821 72.0933 123.265 71.5729C123.709 71.0525 124.297 70.7965 125.04 70.7965C125.773 70.7965 126.336 71.0183 126.737 71.4534C127.138 71.8886 127.343 72.4858 127.343 73.2366V74.03H124.11L124.101 74.0641C124.127 74.4225 124.246 74.7125 124.459 74.9429C124.673 75.1732 124.954 75.2841 125.321 75.2841C125.645 75.2841 125.91 75.25 126.123 75.1903C126.336 75.1306 126.567 75.0197 126.823 74.8832L127.215 75.7875C126.993 75.9667 126.703 76.1202 126.353 76.2397C126.004 76.3591 125.603 76.4103 125.168 76.4103ZM125.04 71.9227C124.767 71.9227 124.553 72.0251 124.4 72.2298C124.246 72.4346 124.144 72.7076 124.11 73.0489L124.127 73.0745H125.918V72.9465C125.918 72.6393 125.85 72.3919 125.705 72.2042C125.56 72.0165 125.33 71.9227 125.04 71.9227Z" fill="white"/>
<path d="M131.37 76.3079C131.319 76.1885 131.268 76.052 131.234 75.9155C131.199 75.779 131.165 75.6425 131.148 75.4974C130.995 75.7619 130.798 75.9752 130.56 76.1544C130.321 76.3335 130.022 76.4103 129.681 76.4103C129.118 76.4103 128.674 76.2653 128.367 75.9752C128.06 75.6851 127.906 75.2841 127.906 74.7808C127.906 74.2518 128.111 73.8423 128.52 73.5522C128.93 73.2621 129.527 73.1171 130.304 73.1171H131.123V72.6905C131.123 72.4346 131.054 72.2298 130.918 72.0848C130.781 71.9397 130.577 71.8715 130.312 71.8715C130.073 71.8715 129.894 71.9312 129.766 72.0421C129.638 72.153 129.57 72.3151 129.57 72.5199L128.162 72.5114L128.154 72.4772C128.128 72.0165 128.333 71.6241 128.751 71.2913C129.169 70.9586 129.723 70.7965 130.406 70.7965C131.054 70.7965 131.575 70.9586 131.984 71.2913C132.394 71.6241 132.59 72.0848 132.59 72.6905V74.9258C132.59 75.1818 132.607 75.4207 132.65 75.6425C132.692 75.8643 132.752 76.0861 132.829 76.3079H131.37ZM130.031 75.3353C130.287 75.3353 130.517 75.2756 130.713 75.1476C130.909 75.0197 131.046 74.8746 131.114 74.704V73.9361H130.295C129.988 73.9361 129.749 74.0129 129.587 74.1665C129.425 74.3201 129.348 74.5078 129.348 74.7296C129.348 74.9088 129.408 75.0538 129.527 75.1647C129.647 75.2756 129.826 75.3353 130.031 75.3353Z" fill="white"/>
<path d="M135.431 69.5764V70.8988H136.344V71.9226H135.431V74.6783C135.431 74.8916 135.474 75.0367 135.559 75.1305C135.644 75.2244 135.764 75.267 135.909 75.267C135.986 75.267 136.054 75.267 136.105 75.2585C136.156 75.2499 136.224 75.2329 136.301 75.2158L136.429 76.2737C136.284 76.3249 136.139 76.3591 136.003 76.3847C135.866 76.4103 135.713 76.4188 135.551 76.4188C135.047 76.4188 134.663 76.2823 134.39 76.0007C134.117 75.7192 133.981 75.2841 133.981 74.6869V71.9226H133.187V70.8988H133.981V69.5764H135.431Z" fill="white"/>
<path d="M138.801 69.6021H137.342V68.51H138.801V69.6021ZM138.801 76.3079H137.342V70.8989H138.801V76.3079Z" fill="white"/>
<path d="M141.958 74.2945L142.052 74.7979H142.086L142.188 74.2945L143.075 70.8989H144.603L142.76 76.308H141.369L139.526 70.8989H141.053L141.958 74.2945Z" fill="white"/>
<path d="M146.77 69.6021H145.311V68.51H146.77V69.6021ZM146.77 76.3079H145.311V70.8989H146.77V76.3079Z" fill="white"/>
<path d="M149.696 69.5764V70.8988H150.609V71.9226H149.696V74.6783C149.696 74.8916 149.739 75.0367 149.824 75.1305C149.909 75.2244 150.029 75.267 150.174 75.267C150.251 75.267 150.319 75.267 150.37 75.2585C150.421 75.2499 150.489 75.2329 150.566 75.2158L150.694 76.2737C150.549 76.3249 150.404 76.3591 150.268 76.3847C150.131 76.4103 149.978 76.4188 149.815 76.4188C149.312 76.4188 148.928 76.2823 148.655 76.0007C148.382 75.7192 148.246 75.2841 148.246 74.6869V71.9226H147.452V70.8988H148.246V69.5764H149.696Z" fill="white"/>
<path d="M153.493 74.0386L153.552 74.3372H153.586L154.619 70.8989H156.189L153.996 77.1185C153.842 77.5024 153.638 77.8266 153.373 78.0996C153.109 78.3726 152.716 78.5006 152.187 78.5006C152.068 78.5006 151.948 78.4921 151.846 78.4665C151.744 78.4409 151.616 78.4153 151.462 78.3812L151.633 77.3147C151.675 77.3232 151.726 77.3318 151.769 77.3318C151.812 77.3318 151.863 77.3403 151.906 77.3403C152.145 77.3403 152.332 77.2806 152.46 77.1611C152.588 77.0417 152.691 76.8967 152.759 76.7175L152.929 76.2994L151.01 70.8989H152.58L153.493 74.0386Z" fill="white"/>
</g>
<defs>
<clipPath id="clip0_183_1120">
<rect width="156.18" height="9.98201" fill="white" transform="translate(0 68.51)"/>
</clipPath>
</defs>
</svg>
