<svg width="339" height="73" viewBox="0 0 339 73" fill="none" xmlns="http://www.w3.org/2000/svg">
<path d="M207 49.72C207 52.02 206.41 54.09 205.22 55.93C204.04 57.77 202.3 59.2 200.01 60.24C197.73 61.28 195.02 61.8 191.88 61.8C188.12 61.8 185.02 61.09 182.58 59.67C180.85 58.65 179.44 57.29 178.36 55.58C177.28 53.88 176.74 52.22 176.74 50.61C176.74 49.68 177.07 48.88 177.71 48.2C178.36 47.53 179.19 47.2 180.19 47.2C181.01 47.2 181.69 47.46 182.26 47.98C182.82 48.5 183.3 49.27 183.7 50.29C184.18 51.51 184.71 52.51 185.27 53.33C185.83 54.14 186.63 54.81 187.65 55.34C188.67 55.87 190.01 56.13 191.67 56.13C193.95 56.13 195.81 55.6 197.24 54.53C198.67 53.47 199.38 52.14 199.38 50.55C199.38 49.28 198.99 48.26 198.23 47.47C197.46 46.68 196.46 46.08 195.24 45.66C194.02 45.25 192.39 44.8 190.34 44.34C187.61 43.7 185.32 42.95 183.47 42.09C181.62 41.23 180.16 40.06 179.08 38.59C178 37.11 177.46 35.27 177.46 33.07C177.46 30.98 178.03 29.11 179.17 27.49C180.31 25.86 181.97 24.61 184.13 23.73C186.29 22.86 188.84 22.42 191.77 22.42C194.1 22.42 196.13 22.71 197.83 23.29C199.54 23.87 200.95 24.64 202.08 25.6C203.2 26.56 204.03 27.57 204.55 28.63C205.07 29.69 205.33 30.72 205.33 31.72C205.33 32.64 205.01 33.46 204.36 34.2C203.71 34.94 202.9 35.3 201.93 35.3C201.05 35.3 200.37 35.08 199.91 34.64C199.45 34.2 198.96 33.48 198.42 32.47C197.73 31.03 196.9 29.91 195.93 29.11C194.96 28.3 193.4 27.9 191.26 27.9C189.27 27.9 187.66 28.34 186.44 29.21C185.22 30.09 184.61 31.14 184.61 32.37C184.61 33.13 184.82 33.79 185.24 34.34C185.65 34.89 186.22 35.37 186.95 35.77C187.68 36.17 188.41 36.48 189.15 36.7C189.9 36.93 191.13 37.25 192.84 37.69C194.99 38.19 196.93 38.74 198.67 39.35C200.41 39.96 201.89 40.69 203.11 41.55C204.33 42.42 205.28 43.51 205.97 44.84C206.65 46.18 207 47.8 207 49.72Z" fill="#204486"/>
<path d="M213.44 33.5901H214.22V29.3301C214.22 28.1901 214.25 27.2901 214.31 26.6401C214.37 25.9901 214.54 25.4301 214.81 24.9701C215.09 24.4901 215.49 24.0901 216 23.7901C216.52 23.4901 217.1 23.3301 217.74 23.3301C218.64 23.3301 219.45 23.6701 220.19 24.3401C220.67 24.7901 220.98 25.3401 221.11 25.9901C221.24 26.6401 221.31 27.5601 221.31 28.7601V33.5901H223.91C224.91 33.5901 225.68 33.8301 226.21 34.3101C226.74 34.7801 227 35.3901 227 36.1401C227 37.0901 226.62 37.7601 225.87 38.1401C225.12 38.5201 224.04 38.7101 222.64 38.7101H221.31V51.7501C221.31 52.8501 221.35 53.7101 221.43 54.3101C221.51 54.9001 221.72 55.3901 222.06 55.7601C222.4 56.1301 222.95 56.3201 223.71 56.3201C224.12 56.3201 224.69 56.2501 225.4 56.1001C226.11 55.9501 226.66 55.8801 227.06 55.8801C227.63 55.8801 228.15 56.1101 228.61 56.5701C229.07 57.0301 229.3 57.6001 229.3 58.2701C229.3 59.4101 228.68 60.2901 227.43 60.9001C226.18 61.5101 224.39 61.8101 222.05 61.8101C219.84 61.8101 218.16 61.4401 217.01 60.6901C215.86 59.9401 215.12 58.9201 214.76 57.6001C214.41 56.2801 214.23 54.5201 214.23 52.3301V38.7101H213.29C212.27 38.7101 211.49 38.4701 210.96 37.9801C210.42 37.4901 210.15 36.8801 210.15 36.1301C210.15 35.3801 210.43 34.7701 211 34.3001C211.54 33.8301 212.36 33.5901 213.44 33.5901Z" fill="#204486"/>
<path d="M250.29 57.8001V56.8901C249.44 57.9601 248.55 58.8701 247.61 59.5901C246.67 60.3101 245.65 60.8601 244.54 61.2101C243.43 61.5601 242.17 61.7401 240.75 61.7401C239.04 61.7401 237.5 61.3901 236.14 60.6801C234.78 59.9701 233.73 59.0001 232.98 57.7501C232.1 56.2501 231.65 54.0801 231.65 51.2601V37.2001C231.65 35.7801 231.97 34.7201 232.61 34.0201C233.25 33.3201 234.1 32.9701 235.16 32.9701C236.23 32.9701 237.1 33.3301 237.76 34.0401C238.42 34.7501 238.75 35.8001 238.75 37.2101V48.5601C238.75 50.2001 238.89 51.5901 239.16 52.7001C239.44 53.8101 239.94 54.6901 240.65 55.3201C241.37 55.9501 242.34 56.2701 243.57 56.2701C244.76 56.2701 245.89 55.9201 246.94 55.2101C248 54.5001 248.77 53.5701 249.25 52.4301C249.65 51.4201 249.84 49.2201 249.84 45.8301V37.2001C249.84 35.8001 250.17 34.7401 250.83 34.0301C251.49 33.3201 252.34 32.9601 253.4 32.9601C254.45 32.9601 255.31 33.3101 255.95 34.0101C256.59 34.7101 256.91 35.7701 256.91 37.1901V57.7301C256.91 59.0801 256.6 60.0901 255.99 60.7701C255.37 61.4501 254.58 61.7801 253.62 61.7801C252.66 61.7801 251.85 61.4301 251.22 60.7301C250.6 60.0401 250.29 59.0601 250.29 57.8001Z" fill="#204486"/>
<path d="M283.43 57.74V57.04C282.48 58.13 281.54 59.02 280.61 59.7C279.68 60.39 278.68 60.91 277.6 61.26C276.52 61.62 275.34 61.79 274.05 61.79C272.36 61.79 270.78 61.43 269.34 60.71C267.89 59.99 266.64 58.97 265.58 57.63C264.53 56.29 263.72 54.73 263.18 52.93C262.64 51.12 262.36 49.18 262.36 47.09C262.36 42.66 263.44 39.2 265.6 36.72C267.77 34.24 270.62 33.01 274.15 33.01C276.19 33.01 277.92 33.36 279.32 34.06C280.72 34.76 282.09 35.84 283.42 37.3V26.84C283.42 25.38 283.71 24.28 284.29 23.54C284.87 22.79 285.69 22.42 286.77 22.42C287.84 22.42 288.67 22.76 289.25 23.45C289.83 24.13 290.12 25.14 290.12 26.48V57.75C290.12 59.1 289.81 60.11 289.18 60.79C288.56 61.47 287.75 61.8 286.76 61.8C285.79 61.8 284.99 61.45 284.36 60.75C283.75 60.04 283.43 59.04 283.43 57.74ZM269.48 47.33C269.48 49.25 269.78 50.89 270.38 52.24C270.97 53.59 271.79 54.61 272.83 55.3C273.87 55.98 275 56.32 276.23 56.32C277.48 56.32 278.61 56 279.64 55.35C280.67 54.7 281.5 53.71 282.11 52.37C282.73 51.03 283.03 49.35 283.03 47.34C283.03 45.45 282.72 43.83 282.11 42.47C281.49 41.11 280.66 40.08 279.61 39.35C278.57 38.63 277.42 38.27 276.17 38.27C274.87 38.27 273.71 38.64 272.69 39.37C271.67 40.11 270.87 41.16 270.31 42.54C269.76 43.92 269.48 45.51 269.48 47.33Z" fill="#204486"/>
<path d="M300.83 29.67C299.84 29.67 299 29.37 298.3 28.76C297.6 28.15 297.25 27.3 297.25 26.19C297.25 25.19 297.61 24.36 298.33 23.71C299.05 23.06 299.88 22.74 300.84 22.74C301.76 22.74 302.57 23.03 303.28 23.62C303.99 24.21 304.34 25.07 304.34 26.19C304.34 27.28 304 28.14 303.3 28.75C302.6 29.36 301.78 29.67 300.83 29.67ZM304.33 36.99V57.48C304.33 58.9 303.99 59.97 303.32 60.7C302.64 61.43 301.79 61.79 300.75 61.79C299.71 61.79 298.87 61.42 298.22 60.67C297.57 59.92 297.25 58.86 297.25 57.48V37.2C297.25 35.8 297.57 34.74 298.22 34.03C298.87 33.32 299.71 32.96 300.75 32.96C301.79 32.96 302.65 33.32 303.32 34.03C303.99 34.74 304.33 35.73 304.33 36.99Z" fill="#204486"/>
<path d="M338.2 47.41C338.2 49.52 337.87 51.47 337.22 53.25C336.56 55.03 335.61 56.57 334.36 57.85C333.11 59.13 331.62 60.11 329.89 60.79C328.16 61.48 326.21 61.82 324.05 61.82C321.9 61.82 319.97 61.47 318.26 60.78C316.55 60.08 315.06 59.1 313.81 57.81C312.56 56.52 311.6 55 310.95 53.24C310.3 51.48 309.98 49.54 309.98 47.41C309.98 45.26 310.31 43.3 310.97 41.52C311.63 39.74 312.57 38.21 313.8 36.95C315.03 35.69 316.52 34.72 318.27 34.03C320.02 33.34 321.95 33 324.06 33C326.21 33 328.15 33.35 329.9 34.04C331.65 34.74 333.15 35.72 334.39 37C335.64 38.28 336.58 39.8 337.23 41.57C337.88 43.34 338.2 45.28 338.2 47.41ZM331.09 47.41C331.09 44.52 330.45 42.27 329.18 40.66C327.91 39.05 326.2 38.24 324.05 38.24C322.66 38.24 321.44 38.6 320.39 39.32C319.33 40.04 318.52 41.1 317.95 42.5C317.38 43.9 317.09 45.54 317.09 47.41C317.09 49.27 317.37 50.88 317.93 52.27C318.49 53.66 319.3 54.72 320.35 55.45C321.4 56.19 322.63 56.55 324.05 56.55C326.2 56.55 327.91 55.74 329.18 54.12C330.45 52.51 331.09 50.27 331.09 47.41Z" fill="#204486"/>
<g clip-path="url(#clip0_128_507)">
<path d="M145.13 35.46L145.61 35.42C145.63 35.61 145.69 35.77 145.77 35.89C145.85 36.01 145.98 36.11 146.16 36.19C146.34 36.27 146.53 36.3 146.75 36.3C146.94 36.3 147.11 36.27 147.26 36.21C147.41 36.15 147.52 36.07 147.59 35.97C147.66 35.87 147.7 35.76 147.7 35.64C147.7 35.52 147.67 35.41 147.6 35.33C147.53 35.24 147.42 35.16 147.26 35.1C147.16 35.06 146.93 35 146.58 34.91C146.23 34.83 145.98 34.75 145.84 34.67C145.66 34.57 145.52 34.46 145.43 34.31C145.34 34.16 145.3 34.01 145.3 33.83C145.3 33.64 145.35 33.46 145.46 33.29C145.57 33.12 145.73 32.99 145.94 32.91C146.15 32.82 146.39 32.78 146.64 32.78C146.92 32.78 147.17 32.83 147.39 32.92C147.61 33.01 147.77 33.15 147.89 33.32C148.01 33.5 148.07 33.7 148.08 33.92L147.59 33.96C147.56 33.72 147.48 33.54 147.32 33.41C147.17 33.29 146.95 33.22 146.65 33.22C146.34 33.22 146.12 33.28 145.98 33.39C145.84 33.5 145.77 33.64 145.77 33.8C145.77 33.94 145.82 34.05 145.92 34.14C146.02 34.23 146.27 34.32 146.68 34.41C147.09 34.5 147.37 34.58 147.53 34.65C147.75 34.75 147.92 34.88 148.02 35.04C148.13 35.2 148.18 35.38 148.18 35.58C148.18 35.78 148.12 35.98 148 36.16C147.88 36.34 147.72 36.48 147.5 36.58C147.28 36.68 147.04 36.73 146.76 36.73C146.41 36.73 146.12 36.68 145.89 36.58C145.66 36.48 145.47 36.33 145.34 36.12C145.2 35.95 145.13 35.72 145.13 35.46Z" fill="#204486"/>
<path d="M148.85 36.69V32.86H149.61L150.52 35.57C150.6 35.82 150.66 36.01 150.7 36.14C150.74 36 150.81 35.8 150.9 35.53L151.82 32.87H152.5V36.7H152.01V33.49L150.9 36.7H150.44L149.33 33.44V36.7H148.85V36.69Z" fill="#204486"/>
<path d="M8.27 39.59C8.43 40.28 7.95 41.62 7.63 43.01C7.04 46.05 6.51 49.1 6.35 52.52C6.24 54.44 6.4 57.43 5.87 58.56C5.12 60.06 1.81 61.12 0.529997 59.79C-0.380003 58.88 0.099997 56.75 0.369997 54.66C0.799997 50.97 1.28 47.13 1.71 43.6C2.08 40.88 2.88 37.94 5.45 37.72C6.19 37.61 8.01 38.2 8.27 39.59ZM9.34 31.15C9.39 34.41 3.68 35.32 3.36 32.11C3.2 30.51 4.48 28.96 5.92 28.64C7.79 28.27 9.29 29.23 9.34 31.15Z" fill="#3DA4D8"/>
<path d="M42.88 49.64C42.88 51.95 42.28 54.03 41.09 55.87C39.9 57.71 38.16 59.16 35.86 60.2C33.57 61.24 30.84 61.76 27.7 61.76C23.93 61.76 20.82 61.05 18.37 59.62C16.63 58.59 15.22 57.23 14.13 55.51C13.04 53.8 12.5 52.13 12.5 50.52C12.5 49.58 12.83 48.78 13.48 48.11C14.13 47.44 14.96 47.11 15.97 47.11C16.79 47.11 17.48 47.37 18.04 47.89C18.6 48.41 19.09 49.19 19.49 50.21C19.98 51.43 20.5 52.44 21.07 53.26C21.63 54.08 22.43 54.75 23.46 55.28C24.49 55.81 25.83 56.07 27.5 56.07C29.79 56.07 31.66 55.54 33.09 54.47C34.52 53.4 35.24 52.07 35.24 50.47C35.24 49.2 34.85 48.17 34.08 47.38C33.31 46.59 32.31 45.99 31.08 45.57C29.85 45.15 28.22 44.71 26.16 44.24C23.41 43.6 21.11 42.84 19.26 41.98C17.41 41.12 15.94 39.95 14.85 38.46C13.76 36.97 13.22 35.13 13.22 32.92C13.22 30.82 13.79 28.95 14.94 27.31C16.09 25.68 17.75 24.42 19.92 23.54C22.09 22.66 24.65 22.22 27.59 22.22C29.94 22.22 31.97 22.51 33.68 23.09C35.39 23.67 36.81 24.45 37.94 25.41C39.07 26.38 39.9 27.39 40.42 28.45C40.94 29.51 41.2 30.54 41.2 31.55C41.2 32.47 40.87 33.3 40.22 34.04C39.57 34.78 38.76 35.15 37.78 35.15C36.89 35.15 36.22 34.93 35.76 34.48C35.3 34.04 34.8 33.31 34.26 32.3C33.56 30.86 32.73 29.73 31.76 28.92C30.79 28.11 29.22 27.71 27.07 27.71C25.07 27.71 23.46 28.15 22.23 29.03C21 29.91 20.39 30.96 20.39 32.2C20.39 32.97 20.6 33.63 21.02 34.18C21.44 34.74 22.01 35.21 22.74 35.61C23.47 36.01 24.21 36.32 24.96 36.55C25.71 36.78 26.94 37.11 28.66 37.54C30.82 38.04 32.77 38.6 34.51 39.21C36.26 39.82 37.74 40.56 38.97 41.43C40.2 42.3 41.15 43.4 41.84 44.73C42.54 46.08 42.88 47.71 42.88 49.64Z" fill="#204486"/>
<path d="M47.21 33.45H47.99V29.17C47.99 28.02 48.02 27.12 48.08 26.47C48.14 25.82 48.31 25.26 48.59 24.79C48.87 24.3 49.27 23.91 49.79 23.6C50.31 23.3 50.89 23.14 51.54 23.14C52.44 23.14 53.26 23.48 53.99 24.16C54.48 24.61 54.79 25.16 54.92 25.82C55.05 26.47 55.12 27.4 55.12 28.6V33.45H57.73C58.74 33.45 59.51 33.69 60.04 34.17C60.57 34.65 60.84 35.26 60.84 36.01C60.84 36.97 60.46 37.64 59.71 38.02C58.95 38.4 57.87 38.59 56.46 38.59H55.13V51.68C55.13 52.79 55.17 53.65 55.25 54.25C55.33 54.85 55.54 55.34 55.88 55.71C56.22 56.08 56.77 56.27 57.54 56.27C57.96 56.27 58.52 56.2 59.23 56.05C59.94 55.9 60.5 55.83 60.9 55.83C61.47 55.83 61.99 56.06 62.45 56.52C62.91 56.98 63.14 57.55 63.14 58.23C63.14 59.38 62.51 60.26 61.26 60.86C60.01 61.47 58.21 61.77 55.86 61.77C53.63 61.77 51.95 61.4 50.8 60.65C49.65 59.9 48.9 58.87 48.54 57.55C48.18 56.23 48.01 54.46 48.01 52.26V38.58H47.07C46.04 38.58 45.26 38.34 44.72 37.85C44.18 37.36 43.91 36.75 43.91 36C43.91 35.25 44.19 34.64 44.76 34.16C45.31 33.68 46.13 33.45 47.21 33.45Z" fill="#204486"/>
<path d="M91.3 47.29C91.3 49.41 90.97 51.37 90.31 53.16C89.65 54.95 88.69 56.49 87.44 57.78C86.19 59.07 84.69 60.05 82.96 60.74C81.22 61.43 79.27 61.77 77.09 61.77C74.93 61.77 73 61.42 71.28 60.73C69.56 60.03 68.07 59.04 66.81 57.74C65.55 56.45 64.59 54.91 63.94 53.15C63.29 51.39 62.96 49.43 62.96 47.3C62.96 45.14 63.29 43.17 63.95 41.38C64.61 39.59 65.56 38.06 66.79 36.79C68.02 35.52 69.52 34.54 71.27 33.86C73.03 33.17 74.96 32.83 77.08 32.83C79.24 32.83 81.19 33.18 82.95 33.87C84.71 34.57 86.21 35.56 87.46 36.84C88.71 38.13 89.66 39.66 90.32 41.43C90.98 43.2 91.3 45.15 91.3 47.29ZM84.16 47.29C84.16 44.39 83.52 42.13 82.24 40.51C80.96 38.89 79.25 38.09 77.09 38.09C75.7 38.09 74.47 38.45 73.41 39.17C72.35 39.89 71.53 40.96 70.96 42.36C70.39 43.76 70.1 45.41 70.1 47.29C70.1 49.15 70.38 50.78 70.95 52.17C71.51 53.56 72.32 54.63 73.37 55.36C74.42 56.1 75.66 56.47 77.09 56.47C79.25 56.47 80.96 55.66 82.24 54.03C83.52 52.41 84.16 50.16 84.16 47.29Z" fill="#204486"/>
<path d="M101.84 51.4899V57.4399C101.84 58.8799 101.5 59.9699 100.82 60.6899C100.14 61.4099 99.28 61.7699 98.24 61.7699C97.21 61.7699 96.37 61.3999 95.71 60.6699C95.05 59.9399 94.72 58.8599 94.72 57.4399V37.6199C94.72 34.4199 95.88 32.8199 98.19 32.8199C99.37 32.8199 100.22 33.1899 100.75 33.9399C101.27 34.6899 101.56 35.7899 101.61 37.2499C102.46 35.7899 103.34 34.6899 104.23 33.9399C105.13 33.1899 106.32 32.8199 107.82 32.8199C109.31 32.8199 110.77 33.1899 112.17 33.9399C113.58 34.6899 114.28 35.6799 114.28 36.9099C114.28 37.7799 113.98 38.4999 113.38 39.0599C112.78 39.6199 112.13 39.9099 111.44 39.9099C111.18 39.9099 110.55 39.7499 109.55 39.4299C108.55 39.1099 107.67 38.9499 106.9 38.9499C105.86 38.9499 105.01 39.2199 104.34 39.7699C103.68 40.3199 103.17 41.1299 102.8 42.2099C102.43 43.2899 102.18 44.5699 102.04 46.0599C101.91 47.5399 101.84 49.3499 101.84 51.4899Z" fill="#204486"/>
<path d="M124.73 62.65L125.38 61.06L116.62 39C116.08 37.73 115.81 36.81 115.81 36.24C115.81 35.63 115.97 35.07 116.28 34.55C116.59 34.03 117.02 33.61 117.57 33.3C118.12 32.99 118.69 32.83 119.28 32.83C120.31 32.83 121.08 33.16 121.6 33.81C122.12 34.46 122.58 35.4 122.98 36.61L129 54.13L134.71 37.83C135.16 36.51 135.57 35.48 135.94 34.73C136.31 33.98 136.69 33.48 137.1 33.22C137.51 32.96 138.09 32.83 138.83 32.83C139.37 32.83 139.89 32.97 140.38 33.26C140.88 33.55 141.26 33.93 141.53 34.42C141.8 34.91 141.93 35.42 141.93 35.96C141.86 36.29 141.75 36.76 141.59 37.37C141.43 37.98 141.24 38.6 141.02 39.22L131.74 63.52C130.94 65.66 130.16 67.34 129.39 68.55C128.62 69.77 127.61 70.7 126.35 71.35C125.09 72 123.39 72.33 121.25 72.33C119.16 72.33 117.6 72.1 116.56 71.65C115.52 71.2 115 70.37 115 69.17C115 68.35 115.25 67.72 115.74 67.28C116.24 66.84 116.97 66.61 117.94 66.61C118.32 66.61 118.7 66.66 119.06 66.77C119.51 66.8699 119.9 66.93 120.23 66.93C121.05 66.93 121.69 66.81 122.16 66.56C122.63 66.32 123.05 65.89 123.42 65.3C123.82 64.7 124.25 63.81 124.73 62.65Z" fill="#204486"/>
<path d="M129.16 4.45C137.6 4.45 145.21 7.99 150.6 13.66L153.75 10.51C147.55 4.04 138.83 0 129.16 0C119.45 0 110.69 4.08 104.49 10.6L107.64 13.75C113.03 8.03 120.67 4.45 129.16 4.45Z" fill="#3DA4D8"/>
<path d="M129.16 15.3299C134.6 15.3299 139.49 17.6499 142.91 21.3599L146.04 18.2299C141.82 13.7199 135.82 10.9099 129.16 10.9099C122.46 10.9099 116.42 13.7599 112.2 18.3199L115.33 21.4499C118.75 17.6799 123.67 15.3299 129.16 15.3299Z" fill="#3DA4D8"/>
<path d="M129.16 25.88C131.69 25.88 133.94 27.03 135.44 28.83L138.56 25.71C136.26 23.11 132.9 21.48 129.16 21.48C125.38 21.48 121.98 23.16 119.68 25.8L122.81 28.93C124.3 27.06 126.59 25.88 129.16 25.88Z" fill="#3DA4D8"/>
</g>
<defs>
<clipPath id="clip0_128_507">
<rect width="153.74" height="72.32" fill="white"/>
</clipPath>
</defs>
</svg>
