<svg width="584" height="414" viewBox="0 0 584 414" fill="none" xmlns="http://www.w3.org/2000/svg">
<path d="M81.6466 189.648C81.3487 170.745 96.0134 155.129 114.321 154.823C132.637 154.517 147.77 169.652 148.068 188.547C148.365 207.45 133.701 223.066 115.393 223.372C97.0773 223.678 81.9444 208.552 81.6466 189.648ZM130.739 188.835C130.594 179.803 123.36 172.564 114.602 172.712C105.844 172.861 98.8391 180.328 98.9753 189.36C99.12 198.401 106.354 205.632 115.112 205.483C123.87 205.343 130.875 197.876 130.739 188.835Z" fill="#F5F5F5"/>
<path d="M81.6466 189.649C81.3487 170.745 96.0134 155.129 114.321 154.823L114.602 172.712C105.844 172.861 98.8391 180.328 98.9753 189.369C99.1199 198.401 106.354 205.641 115.112 205.492L115.393 223.381C97.0773 223.679 81.9444 208.552 81.6466 189.649Z" fill="#E1E1E1"/>
<path d="M111.342 152.078C132.765 151.719 149.855 168.804 150.204 190.916L129.93 191.249C129.769 180.678 121.938 174.024 111.691 174.19L111.342 152.078Z" fill="#ECECEC"/>
<path fill-rule="evenodd" clip-rule="evenodd" d="M126.183 242.424C128.226 243.99 130.056 245.834 131.622 247.898L138.567 246.595L143.154 257.629L137.401 261.914C137.767 264.502 137.792 267.134 137.478 269.731L143.282 273.849L138.933 284.988L131.996 283.773C130.473 285.871 128.677 287.751 126.668 289.36L127.937 296.495L117.195 301.26L113.059 295.384C110.54 295.76 107.978 295.786 105.45 295.472L101.433 301.426L90.5896 296.941L91.7046 289.78C89.6619 288.214 87.832 286.37 86.2659 284.306L79.3294 285.609L74.7419 274.575L80.4613 270.325C80.0954 267.737 80.0698 265.105 80.3762 262.508L74.5801 258.416L78.9379 247.286L85.9 248.44C87.432 246.342 89.2193 244.462 91.228 242.844L89.9598 235.683L100.701 230.97L104.846 236.846C107.365 236.47 109.927 236.444 112.455 236.759L116.464 230.796L127.307 235.272L126.183 242.424ZM114.114 254.368C107.697 251.719 100.394 254.91 97.8156 261.512C95.2367 268.104 98.3433 275.606 104.769 278.256C111.187 280.905 118.489 277.713 121.068 271.112V271.103C123.638 264.511 120.532 257.026 114.114 254.368Z" stroke="#EBEBEB" stroke-miterlimit="10"/>
<path fill-rule="evenodd" clip-rule="evenodd" d="M284.073 93.688C285.197 94.5536 286.209 95.5766 287.078 96.7133L290.916 95.9963L293.469 102.117L290.312 104.469C290.499 105.92 290.499 107.389 290.312 108.841L293.521 111.123L291.112 117.243L287.265 116.605C286.414 117.768 285.426 118.808 284.311 119.7L285.018 123.643L279.06 126.266L276.771 123.023C275.375 123.206 273.962 123.206 272.566 123.023L270.345 126.319L264.387 123.845L265.008 119.884C263.876 119.018 262.872 118.004 262.004 116.858L258.157 117.575L255.603 111.455L258.77 109.103C258.565 107.669 258.548 106.209 258.727 104.775L255.51 102.502L257.918 96.3373L261.774 96.9756C262.617 95.8127 263.612 94.7722 264.719 93.8804L264.021 89.937L269.979 87.314L272.268 90.5666C273.681 90.3567 275.111 90.3392 276.524 90.5141L278.745 87.2178L284.703 89.6922L284.09 93.653L284.073 93.688ZM277.392 100.289C273.834 98.8205 269.8 100.587 268.37 104.241C266.94 107.896 268.659 112.041 272.217 113.51C275.766 114.979 279.801 113.221 281.239 109.575C282.677 105.929 280.967 101.776 277.417 100.298C277.4 100.289 277.4 100.289 277.392 100.289Z" fill="#F0F0F0"/>
<path fill-rule="evenodd" clip-rule="evenodd" d="M410.583 68.4366C413.877 69.6782 417 71.3744 419.86 73.4729L428.541 68.9437L438.823 81.6743L432.865 89.6047C434.338 92.8835 435.384 96.346 435.972 99.9046L445.215 103.009L443.725 119.481L434.074 120.775C432.865 124.168 431.214 127.377 429.171 130.315L433.58 139.233L421.179 149.795L413.468 143.675C410.285 145.196 406.923 146.272 403.459 146.875L400.438 156.379L384.403 154.84L383.185 144.943C379.892 143.701 376.768 142.005 373.908 139.906L365.227 144.427L354.946 131.696L360.903 123.766C359.431 120.487 358.384 117.024 357.797 113.466L348.554 110.362L349.992 93.8891L359.644 92.595C360.852 89.2025 362.495 85.9936 364.529 83.047L360.12 74.1374L372.521 63.5752L380.232 69.6956C383.424 68.1743 386.794 67.0988 390.267 66.5042L393.288 57L409.323 58.5651L410.583 68.4803V68.4366ZM399.195 89.0888C389.697 88.1795 381.27 95.358 380.385 105.116C379.5 114.874 386.488 123.53 395.986 124.439C405.485 125.348 413.911 118.17 414.796 108.412C414.796 108.412 414.796 108.412 414.796 108.403C415.681 98.6455 408.702 89.9982 399.203 89.0888H399.195Z" fill="#E0E0E0"/>
<path d="M516.9 287.047C520.466 285.158 524.671 284.913 528.628 285.587C530.765 285.945 532.978 286.601 534.433 288.21C535.888 289.819 536.135 292.739 534.493 294.155C533.42 294.898 532.126 295.231 530.833 295.1C527.735 295.1 524.288 294.505 521.811 296.42C520.398 297.513 519.453 299.331 517.768 299.874C516.032 300.285 514.236 299.463 513.368 297.863C512.559 296.263 512.389 294.409 512.874 292.686C513.283 290.264 514.772 288.175 516.9 287.047Z" fill="#0057B8"/>
<path d="M508.721 270.827C510.9 274.036 515.147 272.97 517.113 271.02C519.079 269.07 519.913 266.228 520.671 263.527C522.373 257.354 524.143 250.883 522.85 244.597C522.543 242.691 521.726 240.907 520.5 239.447C519.224 237.96 517.275 237.296 515.394 237.698C513.257 238.284 511.93 240.435 510.968 242.481C508.142 248.523 506.653 255.141 506.627 261.848C506.627 264.969 506.976 268.239 508.687 270.81" fill="#0057B8"/>
<path d="M502.729 275.426C505.095 272.541 505.546 268.327 504.491 264.707C503.291 261.113 501.154 257.922 498.312 255.491C495.086 252.536 491.324 250.262 487.247 248.785C485.673 248.12 483.97 247.823 482.268 247.91C480.54 248.024 478.974 249.003 478.089 250.534C476.932 252.816 478.089 255.587 479.255 257.843C481.383 261.821 483.817 265.625 486.524 269.21C488.703 272.095 491.196 274.945 494.524 276.205C497.852 277.464 501.291 277.359 503.035 274.989" fill="#0057B8"/>
<path d="M508.576 319.136C508.687 318.655 508.746 318.174 508.772 317.684C508.874 316.617 508.993 315.288 509.146 313.706C509.334 311.747 509.615 309.806 509.998 307.883C510.508 305.539 511.198 303.24 512.057 301.01C512.9 298.781 514.049 296.691 515.462 294.794C516.619 293.246 518.092 291.987 519.777 291.104C520.926 290.518 522.151 290.125 523.42 289.941C523.896 289.915 524.373 289.845 524.833 289.731C524.356 289.679 523.871 289.679 523.394 289.731C522.083 289.836 520.798 290.177 519.598 290.745C517.819 291.611 516.262 292.879 515.045 294.47C513.564 296.394 512.372 298.527 511.504 300.809C510.627 303.074 509.938 305.417 509.453 307.804C509.087 309.754 508.84 311.721 508.704 313.706C508.576 315.393 508.534 316.757 508.508 317.702C508.483 318.183 508.5 318.663 508.576 319.136Z" fill="#263238"/>
<path d="M508.84 316.084C508.866 315.857 508.866 315.629 508.84 315.402V313.479C508.84 311.8 508.84 309.378 508.925 306.379C509.07 300.389 509.572 293.945 510.542 284.861C511.453 276.318 512.687 266.377 513.947 259.907C514.228 258.438 514.509 257.118 514.798 255.955C515.087 254.792 515.266 253.795 515.47 252.982C515.675 252.169 515.794 251.6 515.913 251.111C515.972 250.892 516.015 250.665 516.024 250.438C515.93 250.639 515.853 250.857 515.794 251.076C515.649 251.557 515.47 252.169 515.249 252.921C515.028 253.673 514.764 254.722 514.474 255.876C514.185 257.03 513.87 258.35 513.564 259.819C511.955 267.461 510.747 275.191 509.938 282.972C508.968 292.074 508.534 300.372 508.491 306.37C508.491 309.378 508.491 311.8 508.593 313.479C508.644 314.265 508.678 314.904 508.712 315.411C508.73 315.638 508.772 315.866 508.84 316.084Z" fill="#263238"/>
<path d="M508.882 300.092C508.925 299.419 508.925 298.746 508.882 298.072C508.806 296.778 508.636 294.907 508.278 292.608C507.861 289.923 507.291 287.265 506.576 284.651C505.733 281.425 504.652 278.277 503.333 275.225C501.086 269.603 497.861 264.445 493.818 260.003C493.12 259.242 492.371 258.525 491.579 257.87C491.239 257.572 490.932 257.266 490.626 257.039L489.775 256.418C489.239 256.007 488.669 255.649 488.073 255.334C489.979 256.873 491.792 258.525 493.494 260.3C497.409 264.777 500.542 269.909 502.771 275.47C504.065 278.504 505.155 281.617 506.031 284.8C506.772 287.388 507.384 290.02 507.87 292.669C508.278 294.933 508.517 296.787 508.653 298.072C508.678 298.746 508.755 299.428 508.882 300.092Z" fill="#263238"/>
<path d="M493.835 328.299L495.392 350.245H522.841L524.407 328.299H493.835Z" fill="#263238"/>
<path d="M527.675 319.643H491.179V328.299H527.675V319.643Z" fill="#263238"/>
<path d="M491.179 349.406V351.801H492.898H527.079V349.406H491.179Z" fill="#455A64"/>
<path d="M494.575 356.025L492.899 351.801H525.769L523.811 356.025H494.575Z" fill="#455A64"/>
<path d="M523.896 335.469C523.862 335.538 523.82 335.608 523.769 335.67L523.36 336.229L521.76 338.336L521.683 338.424L521.615 338.328L517.692 332.749H517.913L514.049 338.371L513.921 338.546L513.794 338.38L509.206 332.776H509.47L509.215 333.099L505.112 338.345L504.976 338.52L504.848 338.336L500.976 332.714H501.206L496.439 338.293L496.354 338.398L496.286 338.284L494.797 335.705L494.414 335.023C494.371 334.944 494.329 334.865 494.294 334.778C494.294 334.778 494.363 334.848 494.456 334.996L494.882 335.652L496.448 338.188H496.295C497.52 336.719 499.112 334.804 500.984 332.539L501.103 332.4L501.214 332.557L505.121 338.153H504.857L508.951 332.863L509.197 332.539L509.334 332.373L509.461 332.531L514.04 338.153H513.785L517.692 332.557L517.802 332.391L517.913 332.557L521.76 338.197H521.624L523.283 336.142L523.726 335.617C523.777 335.556 523.837 335.512 523.896 335.469Z" fill="#E0E0E0"/>
<path d="M524.79 328.15C524.79 328.246 517.904 328.324 509.47 328.324C501.035 328.324 494.15 328.246 494.15 328.15C494.15 328.054 501.027 327.975 509.47 327.975C517.913 327.975 524.79 328.054 524.79 328.15Z" fill="#455A64"/>
<path d="M526.169 352.046C526.169 352.142 518.696 352.22 509.478 352.22C500.261 352.22 492.779 352.142 492.779 352.046C492.779 351.95 500.252 351.871 509.478 351.871C518.704 351.871 526.169 351.95 526.169 352.046Z" fill="#263238"/>
<path d="M141.861 113.947H461.029C470.059 113.947 477.379 121.466 477.379 130.743V336.19C477.379 345.467 470.059 352.987 461.029 352.987H141.861C132.83 352.987 125.511 345.467 125.511 336.19V130.743C125.511 121.466 132.83 113.947 141.861 113.947Z" fill="#263238"/>
<path d="M110.803 335.307H492.026V335.709C492.026 347.041 483.081 356.231 472.05 356.231H130.779C119.748 356.231 110.803 347.041 110.803 335.709V335.307Z" fill="#263238"/>
<path d="M466.952 123.442H134.958V325.305H466.952V123.442Z" fill="#E0E0E0"/>
<path d="M266.762 335.307L271.494 343.045H338.051L342.451 335.307H266.762Z" fill="#455A64"/>
<path d="M451.7 136.899H146.039V325.235H451.7V136.899Z" fill="#FAFAFA"/>
<path d="M159.087 146.176C159.096 147.636 157.947 148.816 156.525 148.825C155.104 148.834 153.955 147.653 153.946 146.193C153.938 144.733 155.087 143.552 156.508 143.544H156.517C157.93 143.552 159.079 144.724 159.087 146.176Z" fill="#455A64"/>
<path d="M169.547 146.176C169.556 147.636 168.407 148.816 166.985 148.825C165.564 148.834 164.415 147.653 164.407 146.193C164.398 144.733 165.547 143.552 166.968 143.544C166.977 143.544 166.985 143.544 166.994 143.544C168.398 143.552 169.547 144.724 169.547 146.176Z" fill="#455A64"/>
<path d="M180.016 146.176C180.024 147.636 178.875 148.816 177.454 148.825C176.033 148.834 174.884 147.653 174.875 146.193C174.867 144.733 176.016 143.552 177.437 143.544H177.446C178.858 143.535 180.007 144.707 180.016 146.158C180.016 146.167 180.016 146.176 180.016 146.176Z" fill="#455A64"/>
<path d="M451.7 157.699C451.7 157.874 383.254 157.997 298.874 157.997C214.495 157.997 146.039 157.874 146.039 157.699C146.039 157.525 214.486 157.402 298.874 157.402C383.262 157.402 451.7 157.542 451.7 157.699Z" fill="#455A64"/>
<path d="M477.379 335.474H125.511V336.628H477.379V335.474Z" fill="#455A64"/>
<path d="M237.943 249.218H171.088V253.817H237.943V249.218Z" fill="#455A64"/>
<path d="M324.297 185.425H257.442V190.024H324.297V185.425Z" fill="#455A64"/>
<path d="M423.733 202.545C423.733 202.703 386.505 202.843 340.587 202.843C294.67 202.843 257.442 202.703 257.442 202.545C257.442 202.388 294.661 202.23 340.587 202.23C386.514 202.23 423.733 202.37 423.733 202.545Z" fill="#455A64"/>
<path d="M423.733 212.574C423.733 212.731 386.505 212.871 340.587 212.871C294.67 212.871 257.442 212.731 257.442 212.574C257.442 212.417 294.661 212.277 340.587 212.277C386.514 212.277 423.733 212.443 423.733 212.574Z" fill="#455A64"/>
<path d="M423.733 222.603C423.733 222.778 386.505 222.9 340.587 222.9C294.67 222.9 257.442 222.778 257.442 222.603C257.442 222.428 294.661 222.306 340.587 222.306C386.514 222.306 423.733 222.437 423.733 222.603Z" fill="#455A64"/>
<path d="M423.733 232.641C423.733 232.798 386.505 232.938 340.587 232.938C294.67 232.938 257.442 232.798 257.442 232.641C257.442 232.483 294.661 232.326 340.587 232.326C386.514 232.326 423.733 232.466 423.733 232.641Z" fill="#455A64"/>
<path d="M423.733 242.669C423.733 242.827 386.505 242.967 340.587 242.967C294.67 242.967 257.442 242.827 257.442 242.669C257.442 242.512 294.661 242.372 340.587 242.372C386.514 242.372 423.733 242.494 423.733 242.669Z" fill="#455A64"/>
<path d="M322.357 252.698C322.357 252.855 307.828 252.995 289.903 252.995C271.988 252.995 257.442 252.855 257.442 252.698C257.442 252.541 272.03 252.401 289.903 252.401C307.785 252.401 322.357 252.532 322.357 252.698Z" fill="#455A64"/>
<path d="M422.516 272.17C422.516 272.345 398.046 272.467 367.874 272.467C337.702 272.467 313.233 272.336 313.233 272.17C313.233 272.004 337.694 271.873 367.874 271.873C398.055 271.873 422.516 272.004 422.516 272.17Z" fill="#455A64"/>
<path d="M422.516 282.82C422.516 282.977 398.046 283.117 367.874 283.117C337.702 283.117 313.233 282.977 313.233 282.82C313.233 282.662 337.694 282.523 367.874 282.523C398.055 282.523 422.516 282.654 422.516 282.82Z" fill="#455A64"/>
<path d="M422.516 293.469C422.516 293.627 398.046 293.767 367.874 293.767C337.702 293.767 313.233 293.627 313.233 293.469C313.233 293.312 337.694 293.172 367.874 293.172C398.055 293.172 422.516 293.294 422.516 293.469Z" fill="#455A64"/>
<path d="M422.516 304.119C422.516 304.276 398.046 304.416 367.874 304.416C337.702 304.416 313.233 304.276 313.233 304.119C313.233 303.962 337.694 303.822 367.874 303.822C398.055 303.822 422.516 303.944 422.516 304.119Z" fill="#455A64"/>
<path d="M238.113 271.156C238.113 271.313 223.525 271.453 205.575 271.453C187.625 271.453 173.037 271.313 173.037 271.156C173.037 270.999 187.625 270.859 205.575 270.859C223.525 270.859 238.113 270.981 238.113 271.156Z" fill="#455A64"/>
<path d="M238.113 279.506C238.113 279.681 223.525 279.803 205.575 279.803C187.625 279.803 173.037 279.681 173.037 279.506C173.037 279.331 187.625 279.208 205.575 279.208C223.525 279.208 238.113 279.305 238.113 279.506Z" fill="#455A64"/>
<path d="M238.113 287.874C238.113 288.031 223.525 288.171 205.575 288.171C187.625 288.171 173.037 288.031 173.037 287.874C173.037 287.716 187.625 287.576 205.575 287.576C223.525 287.576 238.113 287.716 238.113 287.874Z" fill="#455A64"/>
<path d="M238.113 296.232C238.113 296.407 223.525 296.529 205.575 296.529C187.625 296.529 173.037 296.407 173.037 296.232C173.037 296.057 187.625 295.935 205.575 295.935C223.525 295.935 238.113 296.075 238.113 296.232Z" fill="#455A64"/>
<path d="M238.113 304.661C238.113 304.818 223.525 304.958 205.575 304.958C187.625 304.958 173.037 304.818 173.037 304.661C173.037 304.504 187.625 304.364 205.575 304.364C223.525 304.364 238.113 304.442 238.113 304.661Z" fill="#455A64"/>
<path d="M238.104 170.421H171.088V237.038H238.104V170.421Z" fill="#E0E0E0"/>
<path d="M176.288 231.329L194.834 197.045L209.992 218.957L219.218 207.328L232.921 231.329H176.288Z" fill="#0057B8"/>
<path d="M216.461 190.383C216.461 193.119 214.299 195.34 211.635 195.34C208.971 195.34 206.809 193.119 206.809 190.383C206.809 187.646 208.971 185.425 211.635 185.425C214.299 185.425 216.461 187.646 216.461 190.383Z" fill="#0057B8"/>
<path d="M232.921 231.512C232.913 231.425 232.913 231.338 232.921 231.25C232.921 231.04 232.921 230.787 232.921 230.463C232.921 229.764 232.921 228.758 232.921 227.464C232.921 224.824 232.921 221.011 232.845 216.159C232.845 206.427 232.768 192.577 232.708 175.93L232.981 176.218H176.365C176.288 176.288 176.96 175.597 176.68 175.895V190.881C176.68 195.769 176.68 200.56 176.68 205.229C176.68 214.559 176.68 223.372 176.68 231.486L176.399 231.206L217.346 231.346L228.904 231.425H231.968H233.032C233.032 231.425 232.955 231.425 232.785 231.425H232.019H229.015L217.525 231.504L176.399 231.644H176.126V231.355C176.126 223.285 176.126 214.419 176.126 205.098C176.126 200.429 176.126 195.638 176.126 190.75V175.764L176.45 175.431H233.066H233.347V175.711C233.347 192.429 233.236 206.34 233.202 216.115C233.202 220.941 233.202 224.736 233.134 227.368C233.134 228.636 233.134 229.615 233.134 230.315C233.134 230.629 233.134 230.865 233.134 231.049C233.134 231.233 232.93 231.521 232.921 231.512Z" fill="#455A64"/>
<path d="M304.832 267.081H257.399V314.226H304.832V267.081Z" fill="#E0E0E0"/>
<path d="M261.085 310.196L274.2 285.941L284.933 301.444L291.453 293.207L301.164 310.196H261.085Z" fill="#0057B8"/>
<path d="M289.503 281.211C289.503 283.117 287.997 284.673 286.133 284.673C284.278 284.673 282.763 283.126 282.763 281.211C282.763 279.305 284.269 277.748 286.133 277.748C287.997 277.757 289.503 279.305 289.503 281.211Z" fill="#0057B8"/>
<path d="M301.164 310.336C301.164 310.274 301.164 310.205 301.164 310.143C301.164 310.003 301.164 309.82 301.164 309.592C301.164 309.094 301.164 308.438 301.164 307.468C301.164 305.597 301.164 302.86 301.104 299.459C301.104 292.543 301.104 282.767 301.011 270.998L301.198 271.191H261.119C261.119 271.191 261.544 270.754 261.34 270.972V291.721C261.34 298.322 261.34 304.565 261.34 310.309L261.136 310.1L290.116 310.205L298.287 310.266H300.449H298.321H290.201L261.093 310.371H260.906V310.178C260.906 304.416 260.906 298.191 260.906 291.59C260.906 288.293 260.906 284.892 260.906 281.438V270.876C260.702 271.068 261.178 270.579 261.127 270.631H301.206H301.394V270.824C301.394 282.654 301.317 292.49 301.291 299.424C301.291 302.886 301.291 305.518 301.291 307.38C301.291 308.281 301.291 308.972 301.291 309.47C301.291 309.689 301.291 309.864 301.291 310.003C301.283 310.108 301.232 310.231 301.164 310.336Z" fill="#455A64"/>
<path d="M140.201 82.2341C136.652 80.774 132.617 82.5402 131.188 86.1862C129.758 89.8323 131.485 93.9767 135.035 95.4456C138.584 96.9058 142.618 95.1396 144.048 91.4936C145.478 87.8388 143.759 83.6943 140.201 82.2341ZM140.201 82.2341C140.209 82.2341 140.201 82.2341 140.201 82.2341ZM146.882 75.6328C148.014 76.4984 149.027 77.5214 149.895 78.658L153.734 77.9323L156.287 84.0528L153.121 86.4048C153.325 87.8388 153.342 89.2902 153.172 90.7241L156.381 93.0062L153.972 99.1704L150.116 98.5321C149.274 99.695 148.286 100.727 147.171 101.619L147.869 105.571L141.912 108.194L139.656 104.915C138.243 105.116 136.813 105.116 135.401 104.915L133.179 108.22L127.221 105.746L127.843 101.785C126.711 100.919 125.698 99.9049 124.83 98.7595L120.991 99.4764L118.438 93.3559L121.595 91.0039C121.408 89.5525 121.408 88.0836 121.595 86.6321L118.378 84.455L120.787 78.3345L124.642 78.964C125.485 77.8099 126.481 76.7694 127.587 75.8776L126.889 71.8905L132.847 69.2674L135.137 72.5113C136.55 72.3015 137.979 72.284 139.392 72.4676L141.605 69.1713L147.606 71.6457L146.984 75.6065L146.882 75.6328Z" stroke="#EBEBEB" stroke-miterlimit="10"/>
<path d="M63.9196 77.0403H51.9912V126.004H63.9196V77.0403Z" fill="#E1E1E1"/>
<path d="M81.4679 87.7234H69.5396V126.004H81.4679V87.7234Z" fill="#E1E1E1"/>
<path d="M99.284 96.4623H87.3556V125.998H99.284V96.4623Z" fill="#E1E1E1"/>
<path d="M115.775 108.461H103.846V126.004H115.775V108.461Z" fill="#E1E1E1"/>
<path d="M494.64 203.705V177.618C508.569 177.618 520.033 189.396 520.033 203.705C520.033 218.014 508.569 229.791 494.64 229.791C480.931 229.791 469.565 218.388 469.247 204.305L494.64 203.705Z" fill="#E1E1E1"/>
<path d="M488.445 196.671L463.052 197.263C463.052 190.471 465.638 183.343 470.248 178.475C474.858 173.607 481.447 170.771 488.059 170.592L488.445 196.671Z" fill="#F5F5F5"/>
</svg>
