<svg width="568" height="398" viewBox="0 0 568 398" fill="none" xmlns="http://www.w3.org/2000/svg">
<path d="M519 331.575H49V331.809H519V331.575Z" fill="#E6E8EB"/>
<path d="M471.906 346.69H440.773V346.925H471.906V346.69Z" fill="#E6E8EB"/>
<path d="M360.347 349.246H352.178V349.48H360.347V349.246Z" fill="#E6E8EB"/>
<path d="M439.833 337.972H421.795V338.207H439.833V337.972Z" fill="#E6E8EB"/>
<path d="M138.911 339.551H98.3124V339.785H138.911V339.551Z" fill="#E6E8EB"/>
<path d="M153.237 339.551H147.286V339.785H153.237V339.551Z" fill="#E6E8EB"/>
<path d="M260.641 343.515H172.582V343.75H260.641V343.515Z" fill="#E6E8EB"/>
<path d="M271.78 289.675H90.2754C87.3144 289.666 84.9174 287.27 84.9174 284.311V29.3173C84.9456 26.3768 87.3332 24.0094 90.2754 24H271.78C274.741 24 277.147 26.405 277.147 29.3642V284.311C277.147 287.27 274.741 289.675 271.78 289.675ZM90.2754 24.1879C87.446 24.1973 85.1524 26.4895 85.1524 29.3173V284.311C85.1524 287.139 87.446 289.431 90.2754 289.44H271.78C274.609 289.431 276.903 287.139 276.912 284.311V29.3173C276.903 26.4895 274.609 24.1973 271.78 24.1879H90.2754V24.1879Z" fill="#E6E8EB"/>
<path d="M475.111 289.675H293.597C290.636 289.666 288.239 287.27 288.23 284.311V29.3173C288.258 26.3768 290.655 24.0094 293.597 24H475.111C478.054 24.0094 480.432 26.3768 480.46 29.3173V284.311C480.46 287.27 478.072 289.666 475.111 289.675ZM293.597 24.1879C290.768 24.1973 288.474 26.4895 288.465 29.3173V284.311C288.474 287.139 290.768 289.431 293.597 289.44H475.111C477.941 289.431 480.234 287.139 480.244 284.311V29.3173C480.234 26.4895 477.941 24.1973 475.111 24.1879H293.597V24.1879Z" fill="#E6E8EB"/>
<path d="M239.341 62.1509H111.783V331.575H239.341V62.1509Z" fill="#E6E8EB"/>
<path d="M236.511 62.1509H108.953V331.575H236.511V62.1509Z" fill="#E6E8EB"/>
<path d="M231.426 67.8628H114.048V325.863H231.426V67.8628Z" fill="#FAFAFA"/>
<path d="M204.391 325.863L174.65 67.8628H141.073L170.815 325.863H204.391Z" fill="white"/>
<path d="M116.191 67.8628H114.048V325.863H116.191V67.8628Z" fill="#E6E8EB"/>
<path d="M234.406 90.2122H111.059V97.878H234.406V90.2122Z" fill="#E6E8EB"/>
<path d="M306.776 175.251H255.274V331.575H306.776V175.251Z" fill="#F0F0F0"/>
<path d="M303.947 179.817H258.103V225.633H303.947V179.817Z" fill="#E6E8EB"/>
<path d="M303.947 229.748H258.103V275.565H303.947V229.748Z" fill="#E6E8EB"/>
<path d="M303.947 279.68H258.103V325.496H303.947V279.68Z" fill="#E6E8EB"/>
<path d="M291.172 179.215H270.84C270.812 181.808 272.899 183.931 275.493 183.96C275.521 183.96 275.559 183.96 275.587 183.96H286.378C289.001 183.978 291.153 181.865 291.172 179.244C291.172 179.234 291.172 179.225 291.172 179.215Z" fill="#E6E8EB"/>
<path d="M291.172 229.147H270.84C270.84 231.768 272.964 233.891 275.587 233.9H286.378C289.01 233.919 291.153 231.796 291.172 229.166C291.172 229.156 291.172 229.156 291.172 229.147Z" fill="#E6E8EB"/>
<path d="M291.172 279.078H270.84C270.84 281.699 272.964 283.823 275.587 283.832H286.378C289.01 283.851 291.153 281.728 291.172 279.097C291.172 279.088 291.172 279.088 291.172 279.078Z" fill="#E6E8EB"/>
<path d="M332.495 175.251H306.767V331.575H332.495V175.251Z" fill="#E6E8EB"/>
<path d="M458.539 210.038H444.261V327.732H458.539V210.038Z" fill="#F0F0F0"/>
<path d="M456.565 327.732H319.457V331.575H456.565V327.732Z" fill="#F0F0F0"/>
<path d="M444.261 210.038H317.473V327.732H444.261V210.038Z" fill="#FAFAFA"/>
<path d="M342.28 278.815H419.416C427.002 278.815 433.15 272.671 433.15 265.09C433.15 257.509 427.002 251.365 419.416 251.365H342.28C334.694 251.365 328.547 257.509 328.547 265.09C328.547 272.671 334.694 278.815 342.28 278.815ZM419.435 252.285C426.513 252.285 432.247 258.016 432.247 265.09C432.247 272.164 426.513 277.895 419.435 277.895H342.28C335.202 277.895 329.468 272.164 329.468 265.09C329.468 258.016 335.202 252.285 342.28 252.285H419.435Z" fill="#F0F0F0"/>
<path d="M342.28 312.964H419.416C427.002 312.964 433.15 306.82 433.15 299.239C433.15 291.658 427.002 285.514 419.416 285.514H342.28C334.694 285.514 328.547 291.658 328.547 299.239C328.547 306.82 334.694 312.964 342.28 312.964ZM419.416 286.434C426.485 286.246 432.379 291.817 432.567 298.891C432.755 305.956 427.181 311.846 420.103 312.034C419.868 312.044 419.642 312.044 419.407 312.034H342.28C335.211 312.222 329.317 306.651 329.129 299.577C328.941 292.512 334.516 286.622 341.594 286.434C341.829 286.425 342.054 286.425 342.289 286.434H419.416Z" fill="#F0F0F0"/>
<path d="M369.23 262.131H392.504C394.083 262.121 395.362 260.844 395.371 259.265C395.362 257.687 394.083 256.41 392.504 256.4H369.23C367.651 256.41 366.372 257.687 366.363 259.265C366.372 260.844 367.651 262.121 369.23 262.131Z" fill="#E6E8EB"/>
<path d="M342.28 244.666H419.416C427.002 244.666 433.15 238.522 433.15 230.941C433.15 223.36 427.002 217.216 419.416 217.216H342.28C334.694 217.216 328.547 223.36 328.547 230.941C328.547 238.522 334.694 244.666 342.28 244.666ZM419.416 218.136C426.495 218.136 432.229 223.867 432.229 230.941C432.229 238.015 426.495 243.746 419.416 243.746H342.28C335.202 243.746 329.468 238.015 329.468 230.941C329.468 223.867 335.202 218.136 342.28 218.136H419.416Z" fill="#F0F0F0"/>
<path d="M369.23 227.982H392.504C394.083 227.973 395.362 226.695 395.371 225.117C395.343 223.557 394.074 222.298 392.504 222.298H369.23C367.66 222.298 366.391 223.557 366.363 225.117C366.372 226.695 367.651 227.973 369.23 227.982Z" fill="#E6E8EB"/>
<path d="M369.23 296.27H392.504C394.074 296.27 395.343 295.011 395.371 293.452C395.343 291.892 394.065 290.643 392.504 290.634H369.23C367.669 290.643 366.391 291.892 366.363 293.452C366.391 295.011 367.66 296.27 369.23 296.27Z" fill="#E6E8EB"/>
<path d="M444.251 204.054H314.86V210.038H444.251V204.054Z" fill="#F0F0F0"/>
<path d="M461.34 204.064H444.261V210.048H461.34V204.064Z" fill="#E6E8EB"/>
<path d="M351.68 109.856C354.566 111.303 362.387 109.743 359.783 115.032C358.279 117.804 356.493 120.406 354.434 122.792C351.52 126.39 352.075 130.308 355.515 131.698C356.258 131.952 356.906 132.403 357.395 133.013C358.984 135.287 355.243 138.331 353.4 140.604C351.558 142.877 350.825 145.113 352.178 146.804C353.682 148.683 356.803 147.979 359.285 148.542C365.244 149.904 359.115 158.125 359.745 162.343C360.178 165.236 362.565 166.044 365.714 166.448C368.318 166.786 371.787 167.021 371.928 169.68C372.059 171.991 369.051 174.603 368.262 177.026C367.5 179.14 367.716 181.479 368.844 183.415C369.916 185.049 371.617 186.158 373.544 186.477C376.496 187.097 380.961 186.477 381.177 189.784C381.271 191.268 380.237 192.602 380.952 193.955C381.751 195.111 383.02 195.853 384.42 195.994C387.25 196.426 390.126 196.379 392.937 195.843C396.405 195.205 401.528 192.151 399.648 189.211C398.99 188.356 398.022 187.802 396.96 187.67C396.133 187.501 393.707 187.764 393.397 187.2C393.087 186.637 393.924 184.467 393.952 183.687C394.036 181.517 393.698 179.356 392.946 177.327C391.987 174.668 390.464 172.254 388.472 170.243C387.644 169.407 386.338 168.797 386.169 167.585C385.999 166.373 386.761 165.039 387.607 163.827C388.932 161.948 390.991 160.182 391.733 158.19C392.899 155.053 390.07 154.057 387.447 153.343C385.078 152.695 381.957 151.868 382.747 148.993C383.33 146.917 385.952 145.235 386.733 143.187C387.795 140.472 385.219 140.369 383.386 139.43C380.989 138.171 380.388 135.916 381.252 133.07C382.691 128.372 391.31 121.73 386.892 118.677C385.774 117.898 384.73 117.644 384.072 116.47C383.414 115.295 383.245 113.651 382.305 112.543C380.82 110.748 377.746 110.448 376.148 108.785C372.849 105.365 379.965 99.3059 373.469 97.8592C372.097 97.6807 370.8 97.1452 369.709 96.2903C369.117 95.736 368.628 93.0586 367.961 92.8707C364.981 92.044 359.614 97.8216 357.922 99.5972C355.863 101.739 348.258 108.127 351.68 109.856Z" fill="#B3B3B3"/>
<path d="M402.807 189.54C401.039 186.261 393.303 182.964 398.436 179.206C401.199 177.327 404.179 175.768 407.309 174.574C411.802 172.696 413.4 168.374 411.126 164.795C410.599 164.043 410.28 163.17 410.186 162.258C409.998 158.951 414.933 158.162 417.771 156.969C420.61 155.776 422.471 153.954 422.161 151.38C421.842 148.561 418.721 147.302 416.831 145.189C412.301 140.097 422.114 135.484 423.816 130.768C424.981 127.536 423.346 125.254 420.751 122.858C418.636 120.894 415.694 118.508 416.991 115.69C418.119 113.247 422.171 112.439 424.163 110.448C426.025 108.625 427.068 106.145 427.077 103.543C427.03 101.288 426.147 99.1369 424.586 97.5023C422.312 95.0315 418.006 92.9178 419.614 89.3761C420.328 87.7978 421.954 87.0932 422.048 85.2425C421.992 83.6267 421.278 82.0954 420.084 81.0056C417.884 78.8449 415.309 77.1069 412.489 75.8668C409.086 74.3637 402.929 74.3168 403.013 78.4973C403.117 79.728 403.671 80.8835 404.555 81.7384C405.204 82.4336 407.478 83.6642 407.45 84.4346C407.422 85.2049 405.57 86.9053 405.072 87.6851C403.822 89.9022 402.976 92.3165 402.562 94.8249C401.979 98.1505 402.036 101.551 402.722 104.858C402.995 106.22 403.831 107.676 403.324 109.01C402.816 110.345 401.444 111.246 400.062 111.932C397.89 113.022 395.117 113.576 393.397 115.154C390.681 117.644 392.645 120.425 394.582 122.783C396.33 124.915 398.633 127.696 396.386 130.148C394.76 131.914 391.536 132.027 389.806 133.615C387.419 135.747 389.628 137.448 390.746 139.589C392.175 142.408 391.508 145.038 389.214 147.415C385.454 151.342 374.268 152.789 376.534 158.688C377.107 160.182 377.878 161.093 377.85 162.709C377.821 164.325 377.079 166.091 377.304 167.829C377.652 170.591 380.2 172.808 380.726 175.504C381.798 181.057 372.266 182.851 377.229 188.356C378.385 189.446 379.25 190.808 379.73 192.321C379.965 193.26 378.949 196.294 379.438 196.905C381.628 199.601 389.459 197.027 391.903 196.247C394.788 195.261 404.922 193.439 402.807 189.54Z" fill="#E6E8EB"/>
<path d="M422.622 182.146C422.622 182.146 421.682 204.064 385.793 204.064C349.903 204.064 348.963 182.146 348.963 182.146H422.622V182.146Z" fill="#F0F0F0"/>
<path d="M284 374C384.658 374 466.257 369.239 466.257 363.365C466.257 357.492 384.658 352.731 284 352.731C183.342 352.731 101.743 357.492 101.743 363.365C101.743 369.239 183.342 374 284 374Z" fill="#E6E8EB"/>
<path d="M231.952 353.445L225.325 351.294L229.442 335.671L236.069 337.822L231.952 353.445Z" fill="#FF8B7B"/>
<path d="M225.222 350.411L232.667 352.825C232.93 352.9 233.08 353.173 233.014 353.436L231.463 359.448C231.257 360.096 230.57 360.453 229.922 360.247C227.346 359.363 226.162 358.809 222.881 357.748C220.86 357.09 214.224 355.38 211.441 354.478C208.659 353.576 209.627 350.852 210.887 350.984C216.527 351.575 221.603 351.312 223.953 350.448C224.357 350.298 224.808 350.279 225.222 350.411Z" fill="#263238"/>
<path opacity="0.2" d="M236.069 337.831L229.442 335.671L227.318 343.731L233.954 345.882L236.069 337.831Z" fill="#151515"/>
<path d="M254.183 179.685C254.183 179.685 242.292 234.69 239.5 254.465C236.445 276.119 224.968 341.148 224.968 341.148L237.273 344.548C237.273 344.548 254.324 281.483 259.306 260.43C264.711 237.574 279.046 179.638 279.046 179.638L254.183 179.685Z" fill="#0057B8"/>
<path opacity="0.3" d="M268.885 197.722C264.185 208.376 261.863 231.542 263.687 242.205C267.014 228.536 271.019 212.284 274.111 199.78C273.068 196.154 271.338 192.161 268.885 197.722Z" fill="#151515"/>
<path d="M237.583 344.793L224.404 341.166L224.667 335.802L239.5 340.922L237.583 344.793Z" fill="#263238"/>
<path d="M222.496 350.805C223.107 350.984 223.737 351.096 224.376 351.143C224.47 351.153 224.545 351.078 224.554 350.984C224.554 350.946 224.545 350.908 224.526 350.88C224.357 350.664 222.9 348.776 221.988 348.832C221.772 348.842 221.584 348.964 221.481 349.152C221.293 349.424 221.264 349.791 221.405 350.091C221.669 350.448 222.063 350.702 222.496 350.805ZM223.99 350.805C222.731 350.655 221.866 350.335 221.659 349.931C221.575 349.734 221.593 349.509 221.725 349.34C221.772 349.246 221.866 349.189 221.969 349.18C222.458 349.124 223.379 350.044 223.99 350.777V350.805Z" fill="#263238"/>
<path d="M224.31 351.134H224.385C224.442 351.125 224.489 351.087 224.507 351.031C224.507 350.955 225.306 349.095 224.846 348.212C224.733 347.987 224.517 347.827 224.263 347.79C223.99 347.705 223.69 347.827 223.549 348.071C223.163 348.748 223.699 350.448 224.235 351.059L224.31 351.134ZM224.31 348.156C224.442 348.193 224.545 348.278 224.601 348.4C224.761 349.161 224.667 349.941 224.348 350.645C223.896 349.941 223.718 349.095 223.868 348.269C223.868 348.184 224 348.09 224.235 348.137L224.31 348.156Z" fill="#263238"/>
<path d="M266.836 127.461C266.478 128.307 266.178 128.945 265.849 129.659C265.52 130.373 265.162 131.031 264.815 131.707C264.119 133.07 263.386 134.394 262.624 135.719C261.083 138.378 259.391 140.942 257.548 143.404C255.659 145.949 253.572 148.326 251.297 150.534C248.872 152.92 246.127 154.949 243.138 156.565L242.903 156.687C242.527 156.885 242.123 157.026 241.7 157.119C239.557 157.561 237.338 157.476 235.242 156.866C233.494 156.34 231.839 155.569 230.317 154.574C227.76 152.854 225.466 150.778 223.511 148.411C221.687 146.25 220.033 143.948 218.557 141.543C217.1 139.176 215.803 136.715 214.675 134.169C214.008 132.628 214.722 130.834 216.264 130.167C217.504 129.631 218.952 129.979 219.817 131.022L219.911 131.134C221.462 133.013 223.144 135.014 224.836 136.837C226.481 138.65 228.239 140.369 230.082 141.985C231.708 143.46 233.522 144.728 235.477 145.743C236.21 146.119 236.991 146.382 237.799 146.513C238.25 146.598 238.72 146.56 239.153 146.4L237.714 146.955C239.66 145.649 241.427 144.099 242.988 142.351C244.689 140.444 246.259 138.434 247.688 136.32C249.173 134.159 250.583 131.895 251.908 129.566C252.585 128.41 253.234 127.236 253.845 126.043L254.785 124.267C255.076 123.694 255.396 123.036 255.621 122.576L255.678 122.445C257.125 119.401 260.763 118.095 263.818 119.542C266.789 120.951 268.114 124.446 266.817 127.461H266.836V127.461Z" fill="#263238"/>
<path opacity="0.3" d="M251.467 140.219C254.418 132.384 260.688 132.252 263.405 134.329C263.207 134.695 263 135.061 262.794 135.428C261.318 137.992 259.701 140.473 257.953 142.859C256.157 145.311 254.183 147.631 252.04 149.792C251.363 150.459 250.668 151.117 249.944 151.755C249.699 147.847 250.216 143.93 251.467 140.219Z" fill="#151515"/>
<path d="M214.44 134.657L208.33 134.883L209.853 128.354C211.958 128.457 214.045 128.776 216.085 129.293C217.392 129.688 218.134 131.069 217.739 132.374C217.664 132.619 217.561 132.844 217.41 133.051C216.743 134.037 215.634 134.639 214.44 134.657Z" fill="#FF8B7B"/>
<path d="M217.862 129.143C217.26 128.664 216.574 128.316 215.841 128.1C215.333 130.768 212.081 135.268 212.081 135.268H214.628C215.295 135.268 215.925 134.977 216.348 134.47L218.134 132.328C218.943 131.398 218.839 129.988 217.918 129.19C217.899 129.171 217.88 129.162 217.862 129.143Z" fill="#0057B8"/>
<path d="M203.649 131.877L205.36 127.273L209.834 128.363L208.311 134.883L203.649 131.877Z" fill="#FF8B7B"/>
<path d="M280.475 356.489H273.51L273.265 340.358H280.231L280.475 356.489Z" fill="#FF8B7B"/>
<path d="M273.143 355.681H280.973C281.246 355.671 281.481 355.887 281.49 356.16L281.866 362.351C281.866 363.027 281.321 363.582 280.644 363.591C277.918 363.544 276.621 363.384 273.124 363.384C271.009 363.384 263.931 363.6 261.008 363.6C258.084 363.6 258.188 360.707 259.4 360.444C264.965 359.279 269.928 357.625 271.893 356.113C272.25 355.831 272.692 355.671 273.143 355.681Z" fill="#263238"/>
<path opacity="0.2" d="M280.24 340.368H273.265L273.397 348.682H280.362L280.24 340.368Z" fill="#151515"/>
<path d="M267.776 179.685C267.776 179.685 265.115 240.195 266.243 260.139C267.484 281.972 270.079 346.672 270.079 346.672H282.844C282.844 346.672 286.059 283.729 286.829 262.121C287.666 238.635 291.454 179.685 291.454 179.685H267.776Z" fill="#0057B8"/>
<path d="M283.361 346.672H269.571L268.518 341.542L283.737 342.303L283.361 346.672Z" fill="#263238"/>
<path d="M270.671 356.893C271.301 356.874 271.93 356.799 272.551 356.648C272.607 356.63 272.654 356.583 272.673 356.517C272.682 356.461 272.654 356.395 272.607 356.357C272.382 356.198 270.408 354.854 269.552 355.192C269.355 355.267 269.214 355.437 269.176 355.643C269.092 355.953 269.167 356.291 269.383 356.526C269.75 356.799 270.21 356.93 270.671 356.893ZM272.081 356.414C270.831 356.658 269.919 356.62 269.59 356.301C269.449 356.141 269.411 355.916 269.477 355.718C269.486 355.615 269.562 355.531 269.656 355.493C270.116 355.314 271.272 355.897 272.081 356.414Z" fill="#263238"/>
<path d="M272.494 356.648C272.523 356.658 272.541 356.658 272.57 356.648C272.617 356.62 272.645 356.573 272.654 356.517C272.654 356.432 272.814 354.431 272.109 353.755C271.93 353.577 271.677 353.492 271.423 353.53C271.141 353.539 270.896 353.746 270.84 354.018C270.671 354.779 271.714 356.235 272.41 356.648C272.438 356.658 272.466 356.658 272.494 356.648ZM271.554 353.83C271.686 353.83 271.808 353.877 271.902 353.971C272.288 354.638 272.447 355.418 272.363 356.188C271.761 355.671 271.066 354.563 271.169 354.065C271.169 353.971 271.244 353.858 271.479 353.83H271.554Z" fill="#263238"/>
<path d="M294.942 123.525C295.374 121.111 293.757 118.809 291.351 118.386C291.294 118.377 291.238 118.367 291.182 118.358H291.106C288.86 118.029 286.04 117.691 283.276 117.559C278.003 117.259 272.711 117.259 267.437 117.559C265.003 117.785 262.624 118.189 260.726 118.555H260.65C258.235 119.044 256.279 120.829 255.584 123.196C253.309 130.853 250.592 146.485 254.146 179.676H291.417C291.68 176.35 290.937 165.528 291.482 151.746C292.028 142.276 293.184 132.844 294.942 123.525Z" fill="#263238"/>
<path opacity="0.3" d="M294.584 125.573C293.814 130.026 292.864 136.085 292.206 142.483C292.206 142.483 288.803 135.813 288.183 130.11C287.563 124.408 292.46 123.976 294.584 125.573Z" fill="#151515"/>
<g opacity="0.2">
<path opacity="0.2" d="M269.59 126.456C269.392 126.447 269.242 126.278 269.251 126.08C269.261 125.958 269.327 125.845 269.43 125.789L281.048 119.767C281.218 119.683 281.424 119.748 281.518 119.917C281.612 120.096 281.537 120.303 281.368 120.397L269.75 126.4C269.703 126.428 269.646 126.447 269.59 126.456Z" fill="white"/>
<path opacity="0.2" d="M274.91 127.001C274.816 127.001 274.732 126.963 274.666 126.898L268.293 120.575C268.161 120.434 268.161 120.218 268.293 120.077C268.434 119.946 268.65 119.946 268.791 120.077L275.155 126.409C275.286 126.55 275.286 126.766 275.155 126.907C275.089 126.973 275.004 127.001 274.91 127.001Z" fill="white"/>
<path opacity="0.2" d="M283.304 117.55C278.031 117.249 272.748 117.249 267.475 117.55H267.212C266.948 118.527 267.099 119.57 267.616 120.434C268.499 121.843 270.351 122.632 273.134 122.783H274.177C281.697 122.783 284.602 118.217 284.724 118.02L284.987 117.597L283.304 117.55Z" fill="white"/>
</g>
<path d="M268.227 117.494C272.833 116.404 273.641 113.557 273.331 110.429C273.256 109.649 273.134 108.87 272.964 108.099L278.736 103.308L282.975 99.7946C281.8 104.896 280.475 114.187 283.915 117.588C283.915 117.588 281.095 122.285 273.171 121.872C266.525 121.505 268.227 117.494 268.227 117.494Z" fill="#FF8B7B"/>
<path opacity="0.2" d="M272.964 108.099C273.134 108.87 273.256 109.649 273.331 110.429C275.484 109.997 278.36 107.705 278.661 105.506C278.764 104.783 278.792 104.041 278.736 103.308L272.964 108.099Z" fill="#151515"/>
<path d="M269.9 83.6548C266.77 85.5337 267.268 90.2309 266.422 93.5941C268.415 93.7914 271.554 90.2497 271.554 90.2497L273.434 84.8667L269.9 83.6548Z" fill="#263238"/>
<path d="M286.547 93.1057C284.545 99.7382 283.727 103.712 279.479 106.483C275.343 109.245 269.74 108.137 266.977 104.003C265.961 102.481 265.426 100.696 265.454 98.8645C265.454 92.5421 268.706 82.753 275.963 81.4002C280.889 80.348 285.73 83.4858 286.782 88.4085C287.121 89.968 287.036 91.5838 286.547 93.1057Z" fill="#FF8B7B"/>
<path d="M280.296 98.733C284.996 93.2842 279.121 90.5974 283.925 86.8114C278.52 87.065 269.618 86.6799 268.029 82.9785C266.441 79.277 271.329 74.2604 275.399 73.7907C280.099 73.2458 279.084 79.061 279.084 79.061C279.084 79.061 297.066 77.943 291.36 85.6371C295.684 85.374 294.49 92.3635 286.97 98.2632C285.081 98.8927 280.296 98.733 280.296 98.733Z" fill="#263238"/>
<path d="M290.279 85.731C290.279 85.731 293.983 84.6319 293.861 81.7008C295.195 82.6215 295.336 85.421 290.279 85.731Z" fill="#263238"/>
<path d="M287.647 100.029C286.566 101.363 285.053 102.284 283.37 102.632C281.236 103.017 280.738 101.044 281.8 99.1181C282.74 97.3895 285.025 95.1067 286.942 95.5858C288.86 96.0649 289.01 98.3478 287.647 100.029Z" fill="#FF8B7B"/>
<path d="M275.841 92.9366C275.709 93.4814 275.314 93.876 274.948 93.7915C274.581 93.7069 274.403 93.2184 274.534 92.6735C274.666 92.1286 275.061 91.7341 275.418 91.8092C275.775 91.8844 275.972 92.3823 275.841 92.9366Z" fill="#263238"/>
<path d="M269.609 91.6871C269.477 92.2319 269.082 92.6265 268.725 92.5514C268.368 92.4762 268.17 91.9783 268.302 91.4334C268.434 90.8885 268.828 90.494 269.186 90.5691C269.543 90.6443 269.74 91.1422 269.609 91.6871Z" fill="#263238"/>
<path d="M271.526 92.3541C270.464 93.9042 269.204 95.2946 267.766 96.5065C268.415 97.2017 269.336 97.5774 270.285 97.5305L271.526 92.3541Z" fill="#FF5652"/>
<path d="M272.203 99.4469C273.519 99.569 274.826 99.1463 275.822 98.282C275.888 98.2256 275.888 98.1317 275.831 98.0659C275.831 98.0565 275.822 98.0565 275.822 98.0565C275.756 97.9908 275.653 97.9908 275.587 98.0565C274.487 98.9866 273.021 99.353 271.62 99.0429C271.536 99.0241 271.451 99.0805 271.432 99.1651C271.432 99.1651 271.432 99.1651 271.432 99.1745C271.413 99.2684 271.47 99.353 271.564 99.3717L272.203 99.4469Z" fill="#263238"/>
<path d="M278.247 91.4146C278.304 91.4334 278.351 91.4334 278.407 91.4146C278.567 91.3395 278.642 91.1516 278.576 90.9919C278.576 90.9919 278.576 90.9825 278.567 90.9825C278.153 90.0055 277.288 89.3009 276.245 89.1036C276.066 89.0848 275.897 89.2069 275.869 89.3854C275.85 89.5639 275.972 89.733 276.16 89.7518C276.969 89.9209 277.646 90.4752 277.965 91.2361C278.022 91.3395 278.125 91.4052 278.247 91.4146Z" fill="#263238"/>
<path d="M268.067 87.9481C268.17 87.9857 268.283 87.9669 268.368 87.8917C269.026 87.3468 269.9 87.1402 270.737 87.3374C270.915 87.3938 271.094 87.2999 271.15 87.1308C271.207 86.9523 271.113 86.7738 270.943 86.7174C269.9 86.4638 268.8 86.708 267.964 87.3844C267.823 87.4972 267.794 87.7038 267.907 87.8447C267.945 87.8917 268.001 87.9293 268.067 87.9481Z" fill="#263238"/>
<path d="M295.28 120.848L296.06 121.909L296.765 122.905C297.235 123.572 297.658 124.239 298.1 124.906C298.955 126.249 299.764 127.612 300.544 128.983C302.104 131.726 303.524 134.545 304.793 137.438C305.451 138.866 306.015 140.35 306.616 141.807C307.218 143.263 307.726 144.775 308.186 146.297C309.173 149.322 309.991 152.413 310.63 155.532L310.705 155.889C310.987 157.167 310.743 158.491 310.038 159.59C308.825 161.45 307.387 163.151 305.761 164.654C304.088 166.185 302.18 167.453 300.121 168.412C298.081 169.361 295.91 169.962 293.673 170.197C292.582 170.309 291.482 170.328 290.383 170.253C289.837 170.253 289.292 170.15 288.747 170.065L287.92 169.905L286.98 169.671C286.754 169.614 286.604 169.389 286.66 169.154L287.957 163.705C287.957 163.658 288.202 163.649 288.352 163.611L288.869 163.508C289.226 163.433 289.574 163.348 289.931 163.254C290.627 163.066 291.313 162.831 291.971 162.54C293.25 162.014 294.453 161.309 295.534 160.445C297.649 158.707 299.341 156.5 300.478 154.01L299.886 158.068C299.078 155.41 298.222 152.779 297.188 150.177C296.154 147.575 295.026 145.019 293.795 142.502C292.563 139.984 291.247 137.495 289.828 135.071C289.132 133.859 288.399 132.666 287.666 131.482L286.547 129.735L285.993 128.889L285.476 128.138L285.288 127.856C283.351 125.094 284.019 121.298 286.773 119.363C289.537 117.428 293.344 118.086 295.28 120.848Z" fill="#263238"/>
<path d="M282.853 169.126L280.832 172.432L289.602 172.085C289.602 172.085 291.905 166.185 288.766 165.255L287.544 165.584C285.589 166.129 283.915 167.397 282.853 169.126Z" fill="#FF8B7B"/>
<path d="M286.463 164.494C285.833 164.917 285.288 165.471 284.865 166.101C287.252 167.397 290.58 171.812 290.58 171.812L291.351 169.389C291.548 168.759 291.454 168.064 291.097 167.51L289.64 165.161C288.991 164.109 287.61 163.78 286.566 164.428C286.529 164.447 286.491 164.475 286.463 164.494Z" fill="#0057B8"/>
<path d="M281.603 177.524L288.832 176.885L289.602 172.085L280.832 172.432L281.603 177.524Z" fill="#FF8B7B"/>
<path d="M234.283 101.749C233.202 118.245 218.943 130.749 202.436 129.669C185.93 128.589 173.418 114.337 174.499 97.8405C175.58 81.3438 189.84 68.8398 206.347 69.9202H206.356C222.862 71.0005 235.364 85.2425 234.283 101.749C234.283 101.749 234.283 101.739 234.283 101.749Z" fill="#E9C80B"/>
<g opacity="0.1">
<path opacity="0.1" d="M206.356 69.9201C189.859 68.8491 175.618 81.3438 174.537 97.831C174.537 97.831 195.48 100.142 201.092 92.0253C206.704 83.9084 206.356 69.9201 206.356 69.9201Z" fill="white"/>
</g>
<path d="M226.669 100.781C225.842 113.323 215.004 122.811 202.455 121.994C189.906 121.176 180.412 110.335 181.23 97.7935C182.057 85.2519 192.895 75.7635 205.444 76.5808C217.984 77.3981 227.487 88.2205 226.669 100.762C226.669 100.762 226.669 100.772 226.669 100.781Z" fill="#E9C80B"/>
<g opacity="0.2">
<path opacity="0.2" d="M226.669 100.781C225.842 113.323 215.004 122.811 202.455 121.994C189.906 121.176 180.412 110.335 181.23 97.7935C182.057 85.2519 192.895 75.7635 205.444 76.5808C217.984 77.3981 227.487 88.2205 226.669 100.762C226.669 100.762 226.669 100.772 226.669 100.781Z" fill="#151515"/>
</g>
<path d="M227.252 101.767C226.434 114.14 215.737 123.506 203.357 122.698C190.978 121.881 181.606 111.19 182.414 98.8176C183.232 86.4451 193.929 77.0788 206.309 77.8867C218.689 78.6946 228.07 89.3855 227.252 101.767Z" fill="#E9C80B"/>
<g opacity="0.2">
<path opacity="0.2" d="M227.252 101.767C226.434 114.14 215.737 123.506 203.357 122.698C190.978 121.881 181.606 111.19 182.414 98.8176C183.232 86.4451 193.929 77.0788 206.309 77.8867C218.689 78.6946 228.07 89.3855 227.252 101.767Z" fill="white"/>
</g>
<path d="M205.858 98.4135L206.234 92.6829C207.268 92.8708 208.274 93.209 209.223 93.6787C209.712 93.9606 210.172 94.2988 210.595 94.6651L210.68 94.496L211.705 92.4856L211.94 92.0253L211 90.8886L210.492 91.0765C209.242 90.3155 207.86 89.8176 206.412 89.6109L206.619 86.4544L205.679 85.5995V86.3886L204.326 86.3041L204.119 89.5076C199.654 89.6485 197.388 92.0347 197.2 94.9282C196.937 98.8833 200.255 100.123 203.357 101.1L202.981 106.737C200.932 106.436 199.015 105.563 197.445 104.21L195.978 107.028C197.915 108.635 200.284 109.612 202.784 109.847L202.624 112.223L201.515 112.167L202.577 112.994L204.908 113.153L205.115 109.969C209.608 109.809 211.902 107.451 212.09 104.548C212.334 100.602 208.96 99.3812 205.858 98.4135ZM203.564 97.662C201.947 97.0701 200.744 96.3655 200.857 95.0033C200.97 93.6411 201.853 92.7862 203.893 92.6078L203.564 97.662ZM205.294 106.878L205.632 101.843C207.305 102.444 208.509 103.177 208.452 104.567C208.377 105.788 207.437 106.699 205.294 106.878Z" fill="#E9C80B"/>
<g opacity="0.3">
<path opacity="0.3" d="M205.858 98.4135L206.234 92.6829C207.268 92.8708 208.274 93.209 209.223 93.6787C209.712 93.9606 210.172 94.2988 210.595 94.6651L210.68 94.496L211.705 92.4856L211.94 92.0253L211 90.8886L210.492 91.0765C209.242 90.3155 207.86 89.8176 206.412 89.6109L206.619 86.4544L205.679 85.5995V86.3886L204.326 86.3041L204.119 89.5076C199.654 89.6485 197.388 92.0347 197.2 94.9282C196.937 98.8833 200.255 100.123 203.357 101.1L202.981 106.737C200.932 106.436 199.015 105.563 197.445 104.21L195.978 107.028C197.915 108.635 200.284 109.612 202.784 109.847L202.624 112.223L201.515 112.167L202.577 112.994L204.908 113.153L205.115 109.969C209.608 109.809 211.902 107.451 212.09 104.548C212.334 100.602 208.96 99.3812 205.858 98.4135ZM203.564 97.662C201.947 97.0701 200.744 96.3655 200.857 95.0033C200.97 93.6411 201.853 92.7862 203.893 92.6078L203.564 97.662ZM205.294 106.878L205.632 101.843C207.305 102.444 208.509 103.177 208.452 104.567C208.377 105.788 207.437 106.699 205.294 106.878Z" fill="#151515"/>
</g>
<path d="M204.185 109.123L203.968 112.308L201.647 112.158L201.853 109.001C199.353 108.766 196.975 107.789 195.038 106.183L196.505 103.364C198.075 104.717 200.002 105.591 202.051 105.901L202.427 100.217C199.325 99.2778 196.007 98.0002 196.27 94.0545C196.458 91.1516 198.723 88.7655 203.188 88.6245L203.395 85.421L205.726 85.5713L205.519 88.7279C207.55 88.9439 209.486 89.6673 211.159 90.8322L209.806 93.6506C208.452 92.7111 206.92 92.0723 205.303 91.7717L204.927 97.5117C208.029 98.4511 211.404 99.7006 211.141 103.656C210.971 106.606 208.678 108.973 204.185 109.123ZM202.652 96.8165L202.981 91.7623C200.942 91.9408 200.03 92.9084 199.945 94.1579C199.861 95.4073 201.036 96.2247 202.652 96.8165ZM207.503 103.721C207.597 102.331 206.394 101.598 204.683 101.006L204.344 106.032C206.497 105.854 207.437 104.943 207.503 103.721Z" fill="#E9C80B"/>
<path d="M178.015 112.129C178.015 112.129 178.015 112.054 177.893 111.895L177.573 111.19C177.404 110.814 177.254 110.438 177.122 110.044C176.962 109.593 176.755 109.104 176.605 108.513L176.332 107.573C176.248 107.254 176.182 106.925 176.097 106.577C175.919 105.891 175.806 105.14 175.674 104.36C175.43 102.65 175.327 100.922 175.355 99.1932C175.411 97.4647 175.609 95.7455 175.938 94.0451C176.116 93.2653 176.267 92.5232 176.483 91.8468C176.586 91.5086 176.661 91.1798 176.774 90.9073C176.887 90.6349 176.981 90.2967 177.084 90.0148C177.272 89.4418 177.498 88.9439 177.686 88.5023C177.874 88.0608 178.043 87.685 178.194 87.3938L178.551 86.6986L178.682 86.4637C178.664 86.5483 178.626 86.6328 178.588 86.7174L178.278 87.422C178.128 87.732 177.968 88.1078 177.799 88.5493C177.63 88.9909 177.413 89.4888 177.235 90.0618C177.141 90.3531 177.037 90.6443 176.934 90.9543C176.831 91.2643 176.755 91.5931 176.661 91.9407C176.455 92.6077 176.314 93.3499 176.144 94.1202C175.825 95.8112 175.637 97.5116 175.58 99.2308C175.552 100.95 175.646 102.669 175.872 104.37C176.003 105.149 176.107 105.891 176.276 106.577C176.361 106.915 176.417 107.254 176.502 107.564C176.586 107.874 176.671 108.184 176.755 108.503C176.896 109.086 177.094 109.593 177.235 110.044C177.376 110.495 177.526 110.88 177.658 111.19C177.789 111.5 177.865 111.725 177.93 111.913C177.968 111.979 177.996 112.054 178.015 112.129Z" fill="white"/>
<path d="M198.037 96.591C197.774 96.4125 197.558 96.1776 197.417 95.8958C196.589 94.543 196.768 92.8144 197.849 91.6589C198.046 91.4146 198.3 91.2173 198.592 91.0952C198.592 91.0952 198.319 91.3207 197.962 91.7622C197.022 92.9083 196.862 94.5054 197.558 95.8112C197.83 96.3091 198.084 96.5628 198.037 96.591Z" fill="white"/>
<path d="M203.677 88.23C203.592 87.9199 203.574 87.6005 203.63 87.2905C203.621 86.9711 203.677 86.6517 203.799 86.3511C203.865 86.3511 203.884 86.7738 203.856 87.2905C203.875 87.6099 203.809 87.9387 203.677 88.23Z" fill="white"/>
<path d="M207.531 76.0923C207.531 76.0923 207.268 76.0923 206.807 76.0172C206.572 76.0172 206.29 75.942 205.952 75.9138C205.613 75.8857 205.247 75.8387 204.824 75.8293C204.401 75.8199 203.95 75.8293 203.451 75.8293C202.953 75.8293 202.436 75.8293 201.882 75.8857C200.688 75.9796 199.494 76.1487 198.319 76.4024C197.144 76.6748 195.997 77.0318 194.879 77.4733C194.362 77.68 193.873 77.8773 193.431 78.0934C192.989 78.3094 192.576 78.5161 192.209 78.7228C191.842 78.9295 191.513 79.1174 191.269 79.2865C191.015 79.4274 190.78 79.5777 190.545 79.7374C190.348 79.8783 190.132 80.0098 189.915 80.1226C190.094 79.9629 190.291 79.8125 190.489 79.6716C190.714 79.4931 190.949 79.324 191.203 79.1831C191.504 78.967 191.824 78.7698 192.143 78.5819C192.51 78.3752 192.914 78.1403 193.365 77.9337C193.816 77.727 194.305 77.5015 194.813 77.276C195.941 76.8251 197.097 76.4587 198.281 76.1863C199.466 75.9326 200.669 75.7635 201.882 75.679C202.436 75.679 202.972 75.6226 203.461 75.679C203.95 75.7353 204.401 75.679 204.843 75.7447C205.284 75.8105 205.651 75.8293 205.98 75.8669C206.309 75.9045 206.6 75.9514 206.826 75.9984C207.061 76.0078 207.305 76.036 207.531 76.0923Z" fill="white"/>
<path d="M206.168 128.354C205.999 128.41 205.811 128.448 205.632 128.466C205.275 128.523 204.767 128.579 204.128 128.626C202.474 128.729 200.801 128.635 199.165 128.363C197.529 128.081 195.922 127.621 194.39 126.973C193.807 126.719 193.337 126.494 193.027 126.324C192.858 126.249 192.698 126.155 192.547 126.043C192.726 126.09 192.905 126.165 193.064 126.249C193.384 126.4 193.863 126.597 194.446 126.822C195.988 127.424 197.576 127.856 199.203 128.138C200.829 128.41 202.474 128.523 204.119 128.466C204.749 128.466 205.266 128.41 205.613 128.382C205.801 128.363 205.98 128.354 206.168 128.354Z" fill="white"/>
<path d="M358.034 58.224C360.206 72.3251 350.533 85.5055 336.424 87.6756C322.314 89.8458 309.126 80.1789 306.955 66.0778C304.783 51.9767 314.456 38.7963 328.565 36.6261C328.594 36.6261 328.622 36.6168 328.65 36.6168C342.731 34.4748 355.891 44.1511 358.034 58.224Z" fill="#E6E8EB"/>
<path d="M351.953 59.1352C353.588 69.8731 346.209 79.9064 335.465 81.5504C324.721 83.185 314.682 75.8104 313.037 65.0725C311.401 54.3347 318.78 44.3014 329.524 42.6573C329.534 42.6573 329.543 42.6573 329.562 42.6479C340.297 41.0227 350.317 48.4067 351.953 59.1352Z" fill="#E6E8EB"/>
<path d="M351.859 58.5247C351.483 57.8107 351.191 57.0497 350.984 56.27C350.242 54.2408 349.18 52.3337 347.845 50.6333C345.871 48.1344 343.323 46.1428 340.419 44.8463C339.592 44.4706 338.727 44.1605 337.853 43.9069C336.931 43.6438 335.982 43.4466 335.033 43.3338C334.055 43.2023 333.077 43.1553 332.09 43.1741C331.075 43.2023 330.06 43.3056 329.064 43.4841C328.067 43.672 327.09 43.9257 326.131 44.2639C325.2 44.5833 324.288 44.9779 323.424 45.4476C322.587 45.8985 321.779 46.4058 321.017 46.9789C320.284 47.5144 319.588 48.1156 318.949 48.7638C317.765 49.9569 316.74 51.3097 315.904 52.7659C315.161 54.0435 314.559 55.4057 314.108 56.8149C313.46 58.8723 313.149 61.0236 313.168 63.1843C313.253 63.9922 313.253 64.8002 313.168 65.6081C312.811 64.8659 312.614 64.0486 312.595 63.2219C312.332 60.9766 312.501 58.7032 313.084 56.5236C313.488 55.0017 314.061 53.5362 314.813 52.1552C315.678 50.5676 316.759 49.102 318.019 47.8056C318.695 47.101 319.429 46.4434 320.209 45.8515C321.017 45.2221 321.873 44.6584 322.775 44.1699C323.706 43.6626 324.683 43.2305 325.68 42.8735C326.714 42.5071 327.776 42.2253 328.847 42.0186C329.928 41.8307 331.019 41.7274 332.109 41.6992C333.171 41.6804 334.234 41.7462 335.286 41.8871C337.279 42.1783 339.206 42.7514 341.03 43.6063C344.104 45.0436 346.754 47.2513 348.728 50.0133C350.044 51.8452 350.994 53.912 351.548 56.1009C351.821 56.8806 351.924 57.7073 351.859 58.5247Z" fill="#B3B3B3"/>
<path d="M336.433 73.3397L336.988 76.7217L333.97 77.2196L333.425 73.9316C330.727 74.2886 327.983 73.8846 325.501 72.7573L326.554 68.7928C328.49 69.7229 330.633 70.1268 332.777 69.9765L331.94 64.9317C328.453 64.6686 324.523 64.1707 323.809 59.8493C323.273 56.6552 325.153 53.5174 329.834 52.1928L329.28 48.839L332.297 48.3411L332.842 51.6291C335.023 51.3943 337.232 51.6761 339.281 52.4558L338.341 56.4203C336.781 55.8284 335.117 55.556 333.453 55.6124L334.299 60.7511C337.787 60.9766 341.66 61.4933 342.365 65.749C342.929 68.8867 341.077 71.9775 336.433 73.3397ZM331.207 60.4881L330.492 56.2042C328.951 56.8337 328.462 57.8107 328.612 58.8065C328.763 59.8023 329.806 60.2814 331.207 60.4881ZM337.608 66.9139C337.43 65.8523 336.461 65.4296 335.08 65.1853L335.775 69.3565C337.232 68.7364 337.768 67.8815 337.608 66.9139Z" fill="#B3B3B3"/>
<path d="M303.938 174.734C295.149 188.553 295.722 207.718 305.329 220.983C311.73 229.833 321.337 235.77 328.96 243.577C336.584 251.384 342.384 262.911 338.36 273.066C334.262 283.4 322.258 287.599 313.272 294.147C292.667 309.141 287.619 337.737 301.832 358.875H395.202C395.202 358.875 411.605 327.638 390.521 303.823C369.437 280.008 358.11 279.623 358.89 264.01C359.67 248.396 370.602 243.332 376.853 237.47C383.104 231.608 413.56 217.958 395.597 174.725L303.938 174.734Z" fill="#FAFAFA"/>
<path d="M317.605 356.695C317.605 356.695 303.984 359.11 312.491 344.736C320.998 330.353 320.058 326.614 326.676 327.187C333.294 327.76 338.238 330.147 345.457 329.423C352.676 328.7 357.48 323.505 361.935 323.74C366.391 323.974 376.017 324.858 377.981 325.957C379.946 327.056 385.294 332.58 384.467 337.493C383.649 342.406 381.995 348.56 381.995 352.336C381.995 356.113 375.612 357.372 375.612 357.372L317.605 356.695Z" fill="#0057B8"/>
<path d="M303.937 174.734H305.545H310.282H328.5L395.587 174.687H395.663V174.753C397.035 178.022 398.21 181.385 399.169 184.796C400.175 188.375 400.842 192.039 401.152 195.75C401.472 199.62 401.274 203.519 400.56 207.342C399.77 211.297 398.351 215.111 396.339 218.606C395.296 220.391 394.121 222.101 392.824 223.707C391.498 225.333 390.06 226.873 388.519 228.311C386.968 229.767 385.332 231.148 383.64 232.444C381.939 233.76 380.162 235 378.432 236.305C377.568 236.954 376.787 237.686 375.941 238.429C375.095 239.161 374.259 239.847 373.394 240.533C371.664 241.914 369.925 243.267 368.28 244.798C364.849 247.767 362.217 251.553 360.61 255.79C359.839 257.969 359.35 260.233 359.162 262.535C359.115 263.08 359.04 263.681 359.012 264.263C358.993 264.846 358.965 265.428 359.012 266.001C359.021 267.166 359.144 268.331 359.36 269.477C359.792 271.798 360.742 273.987 362.133 275.894C363.562 277.801 365.188 279.557 366.974 281.136C370.518 284.367 374.278 287.468 377.878 290.803C381.478 294.138 385.003 297.623 388.396 301.306C390.126 303.128 391.752 305.054 393.247 307.074C394.76 309.122 396.067 311.301 397.167 313.594C399.385 318.244 400.748 323.251 401.19 328.381C401.641 333.585 401.331 338.818 400.278 343.928C399.77 346.512 399.094 349.058 398.276 351.557C397.467 354.074 396.48 356.536 395.315 358.922L395.277 358.997H301.738L301.7 358.941C297.32 352.355 294.641 344.783 293.879 336.911C293.118 329.348 294.227 321.71 297.113 314.683C299.848 307.957 304.069 301.935 309.455 297.059C312.068 294.758 314.888 292.7 317.878 290.915C320.792 289.112 323.734 287.43 326.516 285.608C329.299 283.87 331.855 281.793 334.121 279.435C336.292 277.115 337.9 274.325 338.821 271.29C339.629 268.322 339.761 265.212 339.197 262.197C338.661 259.284 337.683 256.466 336.311 253.835C334.995 251.308 333.425 248.922 331.611 246.714C329.863 244.601 327.964 242.618 325.924 240.787C321.976 237.151 317.925 233.966 314.287 230.697C312.463 229.053 310.734 227.409 309.145 225.727C307.603 224.083 306.175 222.326 304.887 220.476C302.546 217.084 300.751 213.355 299.548 209.409C298.495 206.008 297.884 202.485 297.733 198.925C297.658 198.117 297.686 197.318 297.686 196.529C297.686 195.75 297.686 194.989 297.762 194.246C297.837 193.504 297.874 192.781 297.921 192.057C297.978 191.325 298.128 190.677 298.213 190.019C298.814 185.989 300.055 182.071 301.869 178.426C302.114 177.862 302.396 177.308 302.715 176.782L303.392 175.636C303.749 175.044 303.937 174.734 303.937 174.734L303.392 175.664L302.744 176.791C302.433 177.327 302.161 177.872 301.907 178.436C300.102 182.099 298.88 186.017 298.288 190.047C298.194 190.705 298.081 191.381 298.006 192.076C297.921 192.771 297.893 193.504 297.846 194.237C297.79 194.979 297.79 195.74 297.79 196.51C297.78 197.29 297.762 198.089 297.837 198.897C297.997 202.448 298.608 205.952 299.67 209.343C300.873 213.27 302.668 216.99 305.009 220.363C306.297 222.204 307.726 223.952 309.267 225.586C310.856 227.277 312.585 228.912 314.409 230.518C318.047 233.806 322.079 236.954 326.056 240.589C328.105 242.44 330.022 244.432 331.79 246.564C333.613 248.781 335.192 251.186 336.518 253.732C337.909 256.372 338.887 259.209 339.432 262.15C340.005 265.203 339.874 268.35 339.056 271.347C338.125 274.419 336.499 277.237 334.309 279.586C332.025 281.962 329.458 284.057 326.676 285.805C323.884 287.637 320.942 289.318 318.037 291.122C315.058 292.898 312.247 294.946 309.643 297.247C304.295 302.095 300.102 308.088 297.376 314.768C294.509 321.767 293.409 329.358 294.171 336.882C294.923 344.708 297.592 352.233 301.954 358.781L301.841 358.725H395.211L395.089 358.8C396.245 356.423 397.232 353.971 398.041 351.453C398.859 348.964 399.526 346.427 400.034 343.853C401.077 338.761 401.387 333.557 400.936 328.381C400.504 323.279 399.15 318.3 396.941 313.678C395.851 311.405 394.553 309.235 393.059 307.205C391.564 305.195 389.947 303.279 388.227 301.456C384.853 297.783 381.346 294.279 377.727 290.962C374.137 287.627 370.377 284.537 366.823 281.286C365.028 279.698 363.392 277.923 361.945 276.006C360.525 274.081 359.557 271.854 359.106 269.505C358.89 268.341 358.768 267.166 358.749 265.982C358.721 265.4 358.749 264.808 358.749 264.226C358.749 263.643 358.843 263.061 358.89 262.478C359.087 260.167 359.585 257.884 360.366 255.696C361.982 251.412 364.643 247.607 368.111 244.61C369.756 243.088 371.514 241.707 373.244 240.336C374.108 239.65 374.954 238.955 375.782 238.241C376.609 237.527 377.427 236.766 378.282 236.108C380.021 234.793 381.798 233.553 383.49 232.247C385.182 230.96 386.808 229.588 388.359 228.132C389.882 226.704 391.31 225.173 392.636 223.557C393.924 221.96 395.099 220.26 396.133 218.484C398.125 215.008 399.545 211.222 400.325 207.295C401.039 203.509 401.237 199.639 400.927 195.796C400.616 192.095 399.958 188.422 398.962 184.843C398.013 181.414 396.856 178.05 395.503 174.762L395.597 174.819L328.547 174.772H310.311H305.564L303.937 174.734Z" fill="#263238"/>
<path d="M391.856 200.08C405.608 202.344 383.931 226.685 371.655 236.287C364.53 241.848 356.916 247.879 353.541 256.24C349.706 265.738 352.554 276.401 350.702 285.946C350.571 286.669 349.885 287.148 349.161 287.017C348.512 286.904 348.052 286.331 348.07 285.673C348.155 279.407 347.995 273.141 346.971 266.969C345.495 258.204 342.13 249.561 336.01 243.154C331 237.912 324.429 234.436 319.09 229.541C311.288 222.392 303.27 213.186 302.49 202.636C302.49 202.636 317.464 190.592 325.783 192.095C335.503 193.871 345.072 208.864 360.121 207.145C370.602 205.952 375.913 197.469 391.856 200.08Z" fill="#0057B8"/>
<g opacity="0.24">
<path opacity="0.24" d="M368.797 325.365C368.13 326.379 367.848 327.751 368.487 328.784C369.126 329.818 370.001 330.757 370.283 331.95C370.724 333.81 369.596 335.633 368.769 337.352C367.228 340.434 366.645 343.91 367.096 347.329C367.575 350.758 369.343 353.877 372.05 356.038C373.253 356.968 374.804 357.682 376.252 357.221C377.615 356.799 378.489 355.418 378.78 354.018C379.072 352.618 378.827 351.171 378.649 349.762C377.821 343.186 377.991 336.525 379.156 329.996C379.344 328.907 379.532 327.667 378.846 326.802C378.348 326.295 377.718 325.947 377.032 325.788C374.4 324.914 371.561 325.882 368.835 325.365" fill="#151515"/>
</g>
<path d="M294.979 363.112C294.979 363.112 294.725 358.828 300.309 356.442H398.511C398.511 356.442 403.634 359.035 404.264 363.008L294.979 363.112Z" fill="#263238"/>
<path d="M396.424 175.26L396.264 175.335L303.919 174.743C303.919 174.743 303.59 174.537 303.101 174.142C301.578 172.949 301.315 170.751 302.499 169.229C303.167 168.374 304.201 167.876 305.291 167.886L394.92 168.609C398.614 168.646 399.78 173.682 396.424 175.26Z" fill="#263238"/>
<g opacity="0.24">
<path opacity="0.24" d="M381.628 210.461C381.816 210.818 381.121 211.56 379.795 212.763C378.479 213.965 376.505 215.553 374.061 217.535C371.129 219.959 368.017 222.157 364.746 224.102C362.716 225.276 360.582 226.253 358.373 227.033C357.17 227.446 355.948 227.785 354.707 228.048C353.4 228.32 352.075 228.499 350.749 228.564C348.052 228.715 345.344 228.339 342.788 227.465C340.522 226.638 338.379 225.539 336.386 224.177C334.544 222.965 332.965 221.753 331.451 220.598C329.947 219.442 328.603 218.334 327.39 217.282C322.54 213.082 319.993 209.991 320.481 209.4C320.97 208.798 324.429 210.743 329.797 214.031L334.177 216.718C335.747 217.667 337.43 218.728 339.15 219.705C340.861 220.711 342.665 221.528 344.545 222.138C346.472 222.712 348.475 222.956 350.486 222.843C354.697 222.627 358.777 221.143 362.311 219.433C365.846 217.723 369.042 215.731 371.815 214.172C374.005 212.876 376.299 211.758 378.677 210.828C380.416 210.236 381.469 210.123 381.628 210.461Z" fill="#151515"/>
</g>
<path d="M348.136 297.398C348.954 297.069 349.875 297.473 350.204 298.29C350.533 299.107 350.129 300.028 349.311 300.357C348.493 300.686 347.572 300.282 347.243 299.464C346.933 298.675 347.29 297.792 348.052 297.435" fill="#0057B8"/>
<path d="M315.114 225.737C314.992 225.643 314.888 225.53 314.785 225.408L313.892 224.431C313.516 223.999 313.018 223.491 312.51 222.852L310.771 220.664C310.17 219.818 309.502 218.907 308.825 217.93L307.82 216.333C307.65 216.06 307.472 215.788 307.303 215.497L306.823 214.614C305.366 212.03 304.219 209.287 303.42 206.431C302.612 203.575 302.18 200.635 302.123 197.666C302.123 196.98 302.161 196.322 302.17 195.665C302.17 195.345 302.17 195.026 302.217 194.716C302.264 194.406 302.283 194.096 302.311 193.795C302.386 193.194 302.424 192.612 302.509 192.048C302.593 191.494 302.706 190.949 302.8 190.451C302.95 189.427 303.223 188.534 303.42 187.717C303.524 187.323 303.608 186.947 303.712 186.618L304.013 185.707L304.436 184.457C304.473 184.307 304.53 184.166 304.595 184.025C304.577 184.175 304.539 184.326 304.483 184.476C304.389 184.796 304.266 185.218 304.107 185.744L303.834 186.656C303.74 186.994 303.665 187.36 303.561 187.755C303.383 188.553 303.129 189.446 303.016 190.489C302.932 190.996 302.838 191.522 302.744 192.076C302.65 192.63 302.631 193.213 302.565 193.814C302.565 194.115 302.509 194.415 302.471 194.725C302.443 195.035 302.471 195.355 302.443 195.674C302.443 196.323 302.396 196.98 302.405 197.657C302.462 200.606 302.885 203.528 303.684 206.365C304.483 209.202 305.611 211.927 307.039 214.501C307.199 214.792 307.359 215.093 307.509 215.384C307.66 215.675 307.857 215.929 308.017 216.22L309.004 217.817C309.671 218.822 310.339 219.733 310.912 220.551L312.623 222.74C313.112 223.388 313.601 223.905 313.967 224.346L314.823 225.361C314.926 225.483 315.02 225.605 315.114 225.737Z" fill="#263238"/>
<path d="M309.906 307.074C309.935 307.008 309.963 306.952 310 306.895L310.329 306.379C310.48 306.153 310.658 305.871 310.875 305.543L311.222 304.998C311.363 304.819 311.514 304.641 311.674 304.453L312.773 303.138C313.196 302.687 313.676 302.217 314.183 301.7C315.368 300.563 316.618 299.502 317.943 298.534C320.848 296.345 324.608 294.156 328.669 291.582C330.803 290.267 332.861 288.82 334.826 287.251C336.931 285.579 338.783 283.616 340.344 281.427C343.192 277.049 344.743 271.957 344.809 266.734C344.874 262.478 344.169 258.251 342.703 254.249C341.735 251.553 340.522 248.95 339.075 246.47C338.567 245.587 338.153 244.92 337.862 244.469L337.542 243.952C337.467 243.84 337.439 243.774 337.439 243.774C337.486 243.821 337.533 243.877 337.561 243.934L337.909 244.441C338.21 244.882 338.642 245.54 339.159 246.414C340.654 248.875 341.895 251.477 342.882 254.174C344.386 258.185 345.128 262.441 345.072 266.725C345.053 267.955 344.95 269.195 344.771 270.417C344.592 271.694 344.32 272.962 343.963 274.203C343.211 276.833 342.054 279.323 340.513 281.577C338.943 283.794 337.063 285.777 334.939 287.468C332.965 289.036 330.897 290.483 328.753 291.808C324.674 294.354 320.914 296.524 318 298.694C316.674 299.652 315.424 300.695 314.23 301.813C313.723 302.32 313.234 302.781 312.802 303.231L311.702 304.519C311.542 304.716 311.382 304.894 311.241 305.063L310.884 305.58L310.339 306.397L309.991 306.895C309.991 306.97 309.953 307.027 309.906 307.074Z" fill="#263238"/>
<path d="M304.812 316.75C304.774 316.835 304.736 316.929 304.689 317.004L304.295 317.699C304.116 317.99 303.909 318.366 303.693 318.798C303.477 319.221 303.204 319.728 302.979 320.301C302.856 320.583 302.725 320.884 302.593 321.184C302.462 321.494 302.349 321.833 302.217 322.171C301.954 322.847 301.747 323.599 301.503 324.36C300.553 327.789 300.224 331.368 300.535 334.919C300.629 335.727 300.694 336.507 300.835 337.221C300.892 337.578 300.948 337.925 301.014 338.254C301.08 338.583 301.164 338.902 301.23 339.203C301.352 339.814 301.531 340.34 301.663 340.809C301.794 341.279 301.926 341.683 302.048 342.012L302.302 342.763C302.339 342.848 302.358 342.942 302.377 343.036C302.321 342.961 302.283 342.876 302.255 342.792C302.17 342.585 302.076 342.35 301.945 342.049C301.775 341.664 301.634 341.26 301.512 340.856C301.362 340.387 301.174 339.851 301.033 339.25C300.958 338.949 300.882 338.63 300.798 338.301C300.713 337.972 300.666 337.615 300.591 337.258C300.441 336.535 300.365 335.755 300.262 334.938C299.924 331.368 300.253 327.76 301.24 324.313C301.484 323.524 301.71 322.772 301.982 322.096C302.123 321.757 302.227 321.419 302.368 321.109L302.772 320.217C303.016 319.672 303.317 319.165 303.533 318.723C303.731 318.347 303.937 317.981 304.172 317.624L304.614 316.947C304.746 316.825 304.802 316.75 304.812 316.75Z" fill="#263238"/>
<path d="M372.548 329.912L372.435 329.987L372.097 330.203L370.762 331.002L369.794 331.546C369.437 331.753 369.032 331.932 368.609 332.148C367.745 332.561 366.795 333.096 365.658 333.519L363.9 334.233C363.289 334.477 362.631 334.665 361.964 334.9C360.629 335.389 359.153 335.736 357.611 336.14C350.853 337.719 343.84 337.906 337.007 336.685C335.437 336.366 333.952 336.093 332.589 335.68C331.912 335.483 331.244 335.332 330.615 335.135L328.829 334.487C327.682 334.12 326.695 333.641 325.811 333.275C325.369 333.087 324.965 332.918 324.599 332.73L323.602 332.213L322.23 331.481L321.882 331.283L321.769 331.208C321.769 331.208 321.816 331.208 321.901 331.255L322.258 331.424L323.649 332.101L324.655 332.589C325.031 332.768 325.445 332.927 325.886 333.106C326.77 333.453 327.757 333.923 328.904 334.271L330.671 334.91C331.291 335.116 331.968 335.267 332.645 335.454C333.999 335.858 335.484 336.121 337.025 336.432C343.831 337.606 350.796 337.427 357.527 335.887C359.059 335.492 360.535 335.154 361.87 334.684C362.537 334.459 363.195 334.28 363.806 334.036L365.564 333.341C366.692 332.927 367.651 332.411 368.515 332.007C368.938 331.8 369.352 331.622 369.709 331.462L370.687 330.917L372.04 330.165L372.398 329.978C372.501 329.931 372.548 329.912 372.548 329.912Z" fill="#263238"/>
<path d="M378.263 214.031C378.226 214.069 378.188 214.106 378.15 214.134L377.793 214.426C377.455 214.698 376.994 215.074 376.393 215.525C375.18 216.492 373.413 217.883 371.185 219.546C368.591 221.528 365.865 223.341 363.035 224.976C361.353 225.915 359.595 226.723 357.79 227.39C355.835 228.104 353.804 228.555 351.727 228.733C347.704 228.959 343.69 228.123 340.09 226.31C338.529 225.521 337.035 224.628 335.587 223.642C334.252 222.702 333.03 221.782 331.949 220.908C329.759 219.17 328.086 217.695 326.902 216.69L325.548 215.515L325.2 215.205L325.087 215.093C325.087 215.093 325.134 215.093 325.219 215.177L325.586 215.468L326.967 216.596C328.171 217.582 329.891 219.029 332.072 220.748C333.171 221.612 334.375 222.514 335.719 223.444C337.148 224.412 338.652 225.295 340.193 226.075C343.756 227.85 347.723 228.668 351.699 228.442C353.748 228.264 355.76 227.813 357.687 227.118C359.482 226.46 361.23 225.661 362.904 224.731C365.733 223.125 368.45 221.349 371.063 219.414C373.3 217.77 375.077 216.399 376.327 215.468L377.756 214.369L378.132 214.097C378.169 214.078 378.216 214.05 378.263 214.031Z" fill="#263238"/>
<g opacity="0.24">
<path opacity="0.24" d="M328.847 334.515C331.442 332.514 335.089 332.993 338.304 333.67C341.519 334.346 344.743 335.436 347.995 334.985C350.449 334.637 352.686 333.444 355.12 332.918C357.555 332.392 360.469 332.777 361.813 334.853C351.088 338.31 339.526 338.188 328.866 334.515" fill="#151515"/>
</g>
</svg>
