<svg width="568" height="398" viewBox="0 0 568 398" fill="none" xmlns="http://www.w3.org/2000/svg">
<g clip-path="url(#clip0_594_903)">
<path d="M322.83 24.8538H187.925V110.772H322.83V24.8538Z" fill="white"/>
<path d="M323.672 111.612H187.07V24H323.672V111.612ZM188.767 109.918H321.975V25.7075H188.767V109.918Z" fill="#EFEFEF"/>
<path d="M322.83 24.8538H187.925V41.1023H322.83V24.8538Z" fill="#004EA6"/>
<path d="M323.672 41.956H187.07V24H323.672V41.956ZM188.767 40.2485H321.975V25.7075H188.767V40.2485Z" fill="#EFEFEF"/>
<path d="M203.197 33.0932C203.197 35.3428 201.378 37.1587 199.124 37.1587C196.871 37.1587 195.052 35.3428 195.052 33.0932C195.052 30.8436 196.871 29.0277 199.124 29.0277C201.364 29.0277 203.197 30.8436 203.197 33.0932Z" fill="#B3B3B3"/>
<path d="M219.921 33.0932C219.921 35.3428 218.102 37.1587 215.848 37.1587C213.595 37.1587 211.776 35.3428 211.776 33.0932C211.776 30.8436 213.595 29.0277 215.848 29.0277C218.088 29.0277 219.921 30.8436 219.921 33.0932Z" fill="#EFEFEF"/>
<path d="M236.713 33.0932C236.713 35.3428 234.894 37.1587 232.64 37.1587C230.387 37.1587 228.568 35.3428 228.568 33.0932C228.568 30.8436 230.387 29.0277 232.64 29.0277C234.88 29.0277 236.713 30.8436 236.713 33.0932Z" fill="white"/>
<path d="M211.206 73.2198C211.396 64.1808 218.781 56.9578 227.835 56.9578C231.622 56.9307 235.314 58.1774 238.314 60.4948C239.319 61.5247 239.292 63.1645 238.274 64.1808C237.432 64.9939 236.156 65.1566 235.138 64.5603C233.075 62.8934 230.482 62.0126 227.835 62.0668C224.808 62.0939 221.903 63.2593 219.69 65.3192C217.572 67.4061 216.364 70.252 216.351 73.2198C216.351 76.1876 217.545 79.02 219.663 81.0934C221.862 83.1668 224.781 84.3322 227.808 84.3593C230.455 84.4 233.034 83.5191 235.111 81.8658C236.265 81.0663 237.839 81.2966 238.735 82.3672C239.536 83.5056 239.346 85.0776 238.287 85.9855C235.287 88.3029 231.595 89.5496 227.808 89.5225C218.726 89.5361 211.328 82.2724 211.206 73.2198Z" fill="#EFEFEF"/>
<path d="M246.554 81.649C247.382 80.6462 248.862 80.5106 249.867 81.3237C252.296 83.3836 255.337 84.6168 258.527 84.8065C260.536 84.8472 262.518 84.2645 264.188 83.1397C265.342 82.435 266.075 81.2153 266.143 79.8737C266.156 79.3587 266.007 78.8573 265.735 78.4237C265.382 77.8816 264.921 77.4208 264.378 77.0685C262.45 75.9844 260.36 75.2661 258.174 74.9409H258.079C256.07 74.6021 254.102 74.0058 252.242 73.1792C250.518 72.4338 249.052 71.2142 248.02 69.6557C247.328 68.5445 246.975 67.2571 246.975 65.9425C247.07 63.2864 248.414 60.8336 250.6 59.3293C252.894 57.7438 255.636 56.9036 258.432 56.9307C262.016 57.1068 265.464 58.3807 268.314 60.5625C269.373 61.2808 269.658 62.7037 268.952 63.7743C268.274 64.8449 266.862 65.1565 265.79 64.479C265.776 64.4654 265.749 64.4519 265.735 64.4519C263.414 62.907 261.201 61.5518 258.432 61.5518C256.627 61.5247 254.848 62.0668 253.355 63.0831C252.351 63.7065 251.713 64.7635 251.645 65.9425C251.618 66.3898 251.726 66.8234 251.971 67.2029C252.296 67.6772 252.704 68.0837 253.192 68.3819C254.93 69.4118 256.857 70.0894 258.853 70.374H258.948C261.106 70.7534 263.21 71.3903 265.206 72.2712C267.038 73.0707 268.613 74.3853 269.726 76.0386C270.446 77.1905 270.826 78.5185 270.826 79.8737C270.731 82.706 269.278 85.3215 266.916 86.8935C264.473 88.6146 261.541 89.5225 258.541 89.4683C254.278 89.2786 250.206 87.6795 246.934 84.942C245.93 84.1289 245.767 82.6654 246.554 81.649Z" fill="#EFEFEF"/>
<path d="M276.337 81.649C277.165 80.6462 278.645 80.5106 279.649 81.3237C282.079 83.3972 285.106 84.6168 288.296 84.8065C290.319 84.8472 292.301 84.2645 293.971 83.1397C295.124 82.435 295.844 81.2153 295.912 79.8737C295.925 79.3587 295.776 78.8573 295.505 78.4237C295.152 77.8816 294.69 77.4209 294.147 77.0685C292.219 75.9979 290.129 75.2661 287.943 74.9409H287.848C285.826 74.6021 283.871 74.0058 281.998 73.1792C280.287 72.4338 278.821 71.2142 277.79 69.6557C277.097 68.5445 276.744 67.2571 276.744 65.9426C276.839 63.2864 278.183 60.8336 280.369 59.3293C282.676 57.7302 285.419 56.89 288.215 56.9307C291.799 57.1204 295.247 58.3807 298.097 60.5625C299.156 61.2808 299.428 62.7173 298.722 63.7743C298.043 64.8449 296.631 65.1566 295.559 64.479C295.545 64.4654 295.518 64.4519 295.505 64.4519C293.197 62.907 290.971 61.5518 288.215 61.5518C286.409 61.5247 284.631 62.0532 283.138 63.0831C282.133 63.7065 281.495 64.7636 281.414 65.9426C281.387 66.3898 281.495 66.8234 281.726 67.2029C282.052 67.6772 282.473 68.0702 282.948 68.3819C284.686 69.4118 286.613 70.0894 288.622 70.374H288.704C290.862 70.7399 292.966 71.3768 294.962 72.2712C296.794 73.0708 298.369 74.3853 299.495 76.0386C300.201 77.1905 300.581 78.5185 300.581 79.8737C300.5 82.706 299.048 85.3215 296.686 86.8935C294.229 88.6146 291.296 89.509 288.296 89.4683C284.034 89.2651 279.962 87.6795 276.69 84.9421C275.699 84.1154 275.55 82.6654 276.337 81.649Z" fill="#EFEFEF"/>
<path d="M545.645 270.655H410.74V356.573H545.645V270.655Z" fill="white"/>
<path d="M546.5 357.426H409.885V269.801H546.5V357.426ZM411.595 355.719H544.857V271.508H411.595V355.719Z" fill="#EFEFEF"/>
<path d="M545.645 270.655H410.74V286.903H545.645V270.655Z" fill="#004EA6"/>
<path d="M546.5 287.757H409.885V269.801H546.5V287.757ZM411.595 286.049H544.857V271.508H411.595V286.049Z" fill="#EFEFEF"/>
<path d="M426.025 278.894C426.025 281.144 424.206 282.96 421.953 282.96C419.699 282.96 417.88 281.144 417.88 278.894C417.88 276.645 419.699 274.829 421.953 274.829C424.192 274.829 426.025 276.645 426.025 278.894Z" fill="#B3B3B3"/>
<path d="M442.749 278.894C442.749 281.144 440.93 282.96 438.676 282.96C436.423 282.96 434.604 281.144 434.604 278.894C434.604 276.645 436.423 274.829 438.676 274.829C440.916 274.829 442.749 276.645 442.749 278.894Z" fill="#EFEFEF"/>
<path d="M459.473 278.894C459.473 281.144 457.654 282.96 455.4 282.96C453.147 282.96 451.328 281.144 451.328 278.894C451.328 276.645 453.147 274.829 455.4 274.829C457.64 274.829 459.473 276.645 459.473 278.894Z" fill="white"/>
<path d="M435.934 319.034C436.124 309.995 443.509 302.772 452.563 302.772C456.351 302.745 460.043 303.978 463.043 306.296C464.102 307.204 464.292 308.776 463.491 309.914C462.595 310.985 461.02 311.215 459.866 310.415C457.803 308.735 455.21 307.827 452.55 307.868C449.523 307.895 446.604 309.06 444.405 311.134C442.301 313.221 441.106 316.053 441.093 319.007C441.093 321.975 442.287 324.807 444.405 326.881C446.618 328.954 449.523 330.12 452.55 330.133C455.197 330.174 457.79 329.293 459.853 327.64C461.007 326.84 462.581 327.07 463.477 328.141C464.278 329.279 464.088 330.851 463.029 331.759C460.029 334.077 456.337 335.323 452.55 335.296C443.482 335.323 436.084 328.073 435.934 319.034Z" fill="#EFEFEF"/>
<path d="M479.4 321.88H472.912C471.541 321.975 470.333 320.945 470.238 319.576C470.143 318.208 471.174 317.001 472.545 316.907C472.667 316.893 472.79 316.893 472.912 316.907H479.346V310.578C479.346 309.155 480.5 308.003 481.925 308.003C483.351 308.003 484.505 309.155 484.505 310.578V310.592V316.88H490.952C492.324 316.974 493.355 318.18 493.26 319.549C493.165 320.782 492.188 321.758 490.952 321.853H484.505V328.209C484.505 329.632 483.351 330.784 481.925 330.784C480.5 330.784 479.346 329.632 479.346 328.209V328.195L479.4 321.88Z" fill="#EFEFEF"/>
<path d="M507.5 321.88H501.066C499.695 321.975 498.486 320.945 498.391 319.576C498.296 318.208 499.328 317.002 500.699 316.907C500.821 316.893 500.943 316.893 501.066 316.907H507.5V310.578C507.473 309.169 508.6 308.017 510.011 307.99C510.038 307.99 510.052 307.99 510.079 307.99C511.505 307.99 512.672 309.155 512.672 310.578V316.866H519.066C520.437 316.961 521.468 318.167 521.373 319.536C521.278 320.769 520.301 321.745 519.066 321.839H512.631V328.195C512.631 329.618 511.464 330.784 510.038 330.784C508.627 330.797 507.473 329.672 507.459 328.263C507.459 328.236 507.459 328.222 507.459 328.195L507.5 321.88Z" fill="#EFEFEF"/>
<path d="M482.726 105.581H257.74V290.034H482.726V105.581Z" fill="white"/>
<path d="M483.581 290.901H256.885V104.741H483.581V290.901ZM258.595 289.193H481.871V106.435H258.595V289.193Z" fill="#EFEFEF"/>
<path d="M482.726 105.581H257.74V121.83H482.726V105.581Z" fill="#004EA6"/>
<path d="M483.581 122.684H256.885V104.741H483.581V122.684ZM258.595 120.976H481.871V106.435H258.595V120.976Z" fill="#EFEFEF"/>
<path d="M273.011 113.834C273.011 116.084 271.192 117.9 268.939 117.9C266.686 117.9 264.867 116.084 264.867 113.834C264.867 111.585 266.686 109.769 268.939 109.769C271.179 109.769 273.011 111.585 273.011 113.834Z" fill="#B3B3B3"/>
<path d="M289.735 113.834C289.735 116.084 287.916 117.9 285.663 117.9C283.41 117.9 281.59 116.084 281.59 113.834C281.59 111.585 283.41 109.769 285.663 109.769C287.916 109.769 289.735 111.585 289.735 113.834Z" fill="#EFEFEF"/>
<path d="M306.473 113.834C306.473 116.084 304.654 117.9 302.4 117.9C300.147 117.9 298.328 116.084 298.328 113.834C298.328 111.585 300.147 109.769 302.4 109.769C304.654 109.769 306.473 111.585 306.473 113.834Z" fill="white"/>
<path d="M283.898 154.151H275.197V157.322H283.898V154.151Z" fill="#EFEFEF"/>
<path d="M390.052 154.151H290.238V157.322H390.052V154.151Z" fill="#EFEFEF"/>
<path d="M411.921 154.151H395.4V157.322H411.921V154.151Z" fill="#004EA6"/>
<path d="M449.726 196.608H433.192V199.779H449.726V196.608Z" fill="#EFEFEF"/>
<path d="M444.093 154.151H415.518V157.322H444.093V154.151Z" fill="#B3B3B3"/>
<path d="M292.6 162.648H283.898V165.819H292.6V162.648Z" fill="#EFEFEF"/>
<path d="M364.219 162.648H298.722V165.819H364.219V162.648Z" fill="#B3B3B3"/>
<path d="M429.269 196.608H390.921V199.779H429.269V196.608Z" fill="#B3B3B3"/>
<path d="M352.803 188.125H290.238V191.296H352.803V188.125Z" fill="#B3B3B3"/>
<path d="M342.609 171.131H298.722V174.302H342.609V171.131Z" fill="#004EA6"/>
<path d="M423.188 179.628H406.45V182.799H423.188V179.628Z" fill="#B3B3B3"/>
<path d="M417.568 171.131H347.482V174.302H417.568V171.131Z" fill="#B3B3B3"/>
<path d="M373.898 196.608H290.238V199.779H373.898V196.608Z" fill="#004EA6"/>
<path d="M459.011 162.648H413.672V165.819H459.011V162.648Z" fill="#004EA6"/>
<path d="M410.075 162.648H368.333V165.819H410.075V162.648Z" fill="#EFEFEF"/>
<path d="M449.034 171.131H420.867V174.302H449.034V171.131Z" fill="#EFEFEF"/>
<path d="M292.6 171.131H283.898V174.302H292.6V171.131Z" fill="#EFEFEF"/>
<path d="M283.898 179.628H275.197V182.799H283.898V179.628Z" fill="#B3B3B3"/>
<path d="M341.658 179.628H290.238V182.799H341.658V179.628Z" fill="#EFEFEF"/>
<path d="M350.143 205.105H298.722V208.276H350.143V205.105Z" fill="#EFEFEF"/>
<path d="M433.708 213.602H394.613V216.773H433.708V213.602Z" fill="#004EA6"/>
<path d="M405.894 205.105H354.324V208.276H405.894V205.105Z" fill="#004EA6"/>
<path d="M390.12 213.602H345.229V216.773H390.12V213.602Z" fill="#EFEFEF"/>
<path d="M313.613 213.602H298.722V216.773H313.613V213.602Z" fill="#B3B3B3"/>
<path d="M411.921 188.125H356.346V191.296H411.921V188.125Z" fill="#EFEFEF"/>
<path d="M450.88 188.125H415.518V191.296H450.88V188.125Z" fill="#004EA6"/>
<path d="M402.391 179.628H346.885V182.799H402.391V179.628Z" fill="#004EA6"/>
<path d="M283.898 188.125H275.197V191.296H283.898V188.125Z" fill="#EFEFEF"/>
<path d="M283.898 196.608H275.197V199.779H283.898V196.608Z" fill="#EFEFEF"/>
<path d="M292.6 205.105H283.898V208.276H292.6V205.105Z" fill="#B3B3B3"/>
<path d="M292.6 213.602H283.898V216.773H292.6V213.602Z" fill="#EFEFEF"/>
<path d="M283.898 220.703H275.197V223.874H283.898V220.703Z" fill="#EFEFEF"/>
<path d="M390.052 220.703H290.238V223.874H390.052V220.703Z" fill="#EFEFEF"/>
<path d="M292.6 229.2H283.898V232.371H292.6V229.2Z" fill="#EFEFEF"/>
<path d="M364.219 229.2H298.722V232.371H364.219V229.2Z" fill="#B3B3B3"/>
<path d="M352.803 254.677H290.238V257.848H352.803V254.677Z" fill="#B3B3B3"/>
<path d="M342.609 237.697H298.722V240.868H342.609V237.697Z" fill="#004EA6"/>
<path d="M417.568 237.697H347.482V240.868H417.568V237.697Z" fill="#B3B3B3"/>
<path d="M373.898 263.161H290.238V266.332H373.898V263.161Z" fill="#004EA6"/>
<path d="M459.011 229.2H413.672V232.371H459.011V229.2Z" fill="#004EA6"/>
<path d="M410.075 229.2H368.333V232.371H410.075V229.2Z" fill="#EFEFEF"/>
<path d="M449.034 237.697H420.867V240.868H449.034V237.697Z" fill="#EFEFEF"/>
<path d="M292.6 237.697H283.898V240.868H292.6V237.697Z" fill="#EFEFEF"/>
<path d="M283.898 246.18H275.197V249.351H283.898V246.18Z" fill="#B3B3B3"/>
<path d="M341.658 246.18H290.238V249.351H341.658V246.18Z" fill="#EFEFEF"/>
<path d="M411.921 254.677H356.346V257.848H411.921V254.677Z" fill="#EFEFEF"/>
<path d="M402.391 246.18H346.885V249.351H402.391V246.18Z" fill="#004EA6"/>
<path d="M283.898 254.677H275.197V257.848H283.898V254.677Z" fill="#EFEFEF"/>
<path d="M280.572 145.803C280.871 146.101 280.871 146.575 280.572 146.873C280.274 147.158 279.799 147.158 279.5 146.873L276.147 143.472C276.133 143.445 276.133 143.431 276.147 143.404C276.147 143.377 276.147 143.336 276.147 143.309C276.147 143.282 276.147 143.255 276.147 143.228V143.147C276.147 143.147 276.147 143.147 276.147 143.065C276.147 142.984 276.147 143.065 276.147 143.065V142.984C276.147 142.957 276.147 142.916 276.147 142.889C276.147 142.889 276.147 142.794 276.147 142.781C276.147 142.767 276.147 142.781 276.147 142.781C276.161 142.74 276.188 142.713 276.228 142.699L279.581 139.298C279.88 139.013 280.355 139.013 280.654 139.298C280.952 139.596 280.952 140.07 280.654 140.369L277.83 143.214L280.572 145.803Z" fill="#004EA6"/>
<path d="M283.613 146.182L286.545 139.23C286.681 138.891 287.061 138.742 287.4 138.878C287.74 139.013 287.889 139.393 287.753 139.732L284.821 146.697C284.713 146.941 284.468 147.09 284.21 147.09C284.129 147.104 284.061 147.104 283.98 147.09C283.64 146.982 283.464 146.629 283.572 146.291C283.572 146.25 283.586 146.223 283.613 146.182Z" fill="#004EA6"/>
<path d="M293.523 143.377C293.509 143.404 293.468 143.445 293.441 143.458L290.088 146.86C289.939 146.995 289.749 147.077 289.545 147.077C289.342 147.077 289.152 146.995 289.016 146.86C288.717 146.562 288.717 146.087 289.016 145.789L291.839 142.93L289.016 140.084C288.717 139.786 288.717 139.312 289.016 139.013C289.314 138.729 289.79 138.729 290.088 139.013L293.441 142.415C293.482 142.428 293.509 142.456 293.523 142.496C293.55 142.523 293.577 142.564 293.591 142.605C293.591 142.645 293.591 142.672 293.591 142.713V142.794V142.957C293.591 142.998 293.591 143.025 293.591 143.065L293.523 143.377Z" fill="#004EA6"/>
<path d="M508.382 79.7246H416.482V113.699H508.382V79.7246Z" fill="#555555"/>
<path d="M429.744 103.752V88.6823C429.744 87.937 430.355 87.3272 431.102 87.3272C431.848 87.2865 432.5 87.8557 432.541 88.601C432.541 88.6281 432.541 88.6552 432.541 88.6823V94.8077H439.165V88.6823C439.165 87.937 439.776 87.3272 440.523 87.3272C441.269 87.2865 441.921 87.8557 441.962 88.601C441.962 88.6281 441.962 88.6552 441.962 88.6823V103.752C441.962 104.497 441.351 105.107 440.604 105.107C440.577 105.107 440.55 105.107 440.523 105.107C439.776 105.107 439.165 104.497 439.165 103.752V97.6265H432.541V103.752C432.541 104.497 431.93 105.107 431.183 105.107C431.156 105.107 431.129 105.107 431.102 105.107C430.342 105.107 429.744 104.497 429.744 103.752Z" fill="white"/>
<path d="M458.821 90.1188H454.749V103.752C454.749 104.524 454.111 105.161 453.337 105.161C452.563 105.161 451.925 104.524 451.925 103.752V90.1188H447.853C447.106 90.1188 446.495 89.509 446.495 88.7636C446.495 88.7365 446.495 88.7094 446.495 88.6823C446.495 87.937 447.106 87.3271 447.853 87.3271H458.713C459.459 87.3271 460.07 87.937 460.07 88.6823C460.07 89.4006 459.541 90.0239 458.821 90.1188Z" fill="white"/>
<path d="M479.848 88.6823V103.752C479.794 104.511 479.17 105.107 478.409 105.107C477.663 105.107 477.052 104.497 477.052 103.752V93.0053L473.36 98.1143C473.102 98.4802 472.667 98.7106 472.219 98.697C471.758 98.697 471.323 98.4802 471.038 98.1143L467.387 93.0053V103.752C467.387 104.538 466.749 105.161 465.975 105.161C465.188 105.161 464.55 104.524 464.55 103.752V88.6823C464.55 87.937 465.161 87.3271 465.907 87.3271H465.989C466.437 87.3271 466.857 87.544 467.115 87.9099L472.206 94.9568L477.296 87.9099C477.554 87.5304 477.989 87.3136 478.45 87.3271C479.197 87.3542 479.794 87.937 479.848 88.6823Z" fill="white"/>
<path d="M486.038 103.752V88.6823C486.038 87.937 486.649 87.3271 487.396 87.3271C488.143 87.2865 488.781 87.8692 488.821 88.6146C488.821 88.6417 488.821 88.6552 488.821 88.6823V102.315H495.758C496.545 102.315 497.183 102.952 497.183 103.738C497.183 104.524 496.545 105.161 495.758 105.161H487.396C486.649 105.161 486.038 104.551 486.038 103.806C486.038 103.792 486.038 103.765 486.038 103.752Z" fill="white"/>
<path d="M262.803 209.496H187.07V243.47H262.803V209.496Z" fill="#555555"/>
<path d="M209.563 227.994H206.455V233.537C206.455 234.323 205.817 234.946 205.043 234.946C204.269 234.946 203.631 234.309 203.631 233.537V218.426C203.631 217.681 204.242 217.071 204.989 217.071H209.577C212.604 217.071 215.048 219.511 215.048 222.533C215.048 225.555 212.577 227.994 209.563 227.994ZM206.455 225.202H209.563C211.016 225.202 212.197 224.023 212.197 222.573C212.197 221.123 211.016 219.944 209.563 219.944H206.455V225.202Z" fill="white"/>
<path d="M218.523 233.537V218.426C218.523 217.681 219.133 217.071 219.88 217.071C220.627 217.071 221.238 217.681 221.238 218.426V224.552H227.862V218.426C227.862 217.681 228.473 217.071 229.219 217.071C229.966 217.031 230.618 217.6 230.658 218.345C230.658 218.372 230.658 218.399 230.658 218.426V233.496C230.658 234.241 230.048 234.851 229.301 234.851C229.274 234.851 229.247 234.851 229.219 234.851C228.473 234.851 227.862 234.241 227.862 233.496V227.371H221.36V233.496C221.36 234.241 220.749 234.851 220.002 234.851C219.256 234.919 218.59 234.363 218.523 233.618C218.523 233.591 218.523 233.564 218.523 233.537Z" fill="white"/>
<path d="M242.645 227.994H239.495V233.537C239.495 234.323 238.857 234.946 238.084 234.946C237.31 234.946 236.672 234.309 236.672 233.537V218.426C236.672 217.681 237.283 217.071 238.029 217.071H242.604C245.631 217.071 248.075 219.511 248.075 222.533C248.075 225.555 245.631 227.994 242.604 227.994H242.645ZM239.495 225.202H242.645C244.097 225.202 245.278 224.023 245.278 222.573C245.278 221.123 244.097 219.944 242.645 219.944H239.495V225.202Z" fill="white"/>
<path d="M486.038 207.287L491.781 221.137L486.038 223.508L480.269 209.564L470.781 216.909V177.893L498.147 205.485L486.038 207.287Z" fill="#212529"/>
<path d="M470.781 173.706C470.536 173.082 470.414 172.418 470.428 171.741C470.414 171.063 470.536 170.399 470.781 169.776C471.025 170.399 471.133 171.063 471.12 171.741C471.133 172.405 471.011 173.082 470.781 173.706Z" fill="#212529"/>
<path d="M467.387 175.061C466.776 174.79 466.219 174.397 465.758 173.923C465.269 173.462 464.876 172.906 464.618 172.283C465.228 172.554 465.785 172.947 466.247 173.435C466.735 173.895 467.115 174.451 467.387 175.061Z" fill="#212529"/>
<path d="M465.989 178.408C464.726 178.882 463.328 178.882 462.066 178.408C463.328 177.961 464.713 177.961 465.989 178.408Z" fill="#212529"/>
<path d="M467.387 181.837C467.129 182.447 466.735 183.002 466.247 183.463C465.785 183.951 465.228 184.344 464.618 184.615C464.876 183.992 465.269 183.436 465.758 182.975C466.219 182.501 466.776 182.108 467.387 181.837Z" fill="#212529"/>
<path d="M475.627 178.408C476.903 177.961 478.287 177.961 479.563 178.408C478.287 178.882 476.889 178.882 475.627 178.408Z" fill="#212529"/>
<path d="M474.161 175.061C474.432 174.451 474.826 173.895 475.301 173.435C475.762 172.947 476.319 172.554 476.943 172.283C476.373 173.489 475.382 174.451 474.161 174.993V175.061V175.061Z" fill="#212529"/>
<path d="M163.83 374C242.437 374 306.161 367.132 306.161 358.659C306.161 350.187 242.437 343.319 163.83 343.319C85.2234 343.319 21.5 350.187 21.5 358.659C21.5 367.132 85.2234 374 163.83 374Z" fill="#EFEFEF"/>
<path d="M106.084 334.605L81.0113 345.148C79.7217 342.465 78.5679 339.701 77.5769 336.895L99.8801 326.352L106.084 334.605Z" fill="#FDD0BF"/>
<path d="M81.69 347.276C81.6765 347.168 81.7036 347.059 81.7851 346.991C81.8665 346.924 81.9887 346.924 82.0701 346.991C82.2195 347.1 85.5588 349.566 85.871 351.409C85.9389 351.748 85.8846 352.1 85.7081 352.399C85.5317 352.751 85.1516 352.954 84.7579 352.886C84.0656 352.792 83.4004 351.653 82.8167 350.406C82.3552 349.404 81.9751 348.347 81.69 347.276ZM85.2738 351.057C84.5271 349.824 83.5362 348.74 82.3823 347.886C82.9661 349.797 84.0792 352.263 84.8801 352.426C84.9887 352.426 85.138 352.426 85.3416 352.128C85.4502 351.951 85.4909 351.721 85.4366 351.518C85.4095 351.355 85.3552 351.192 85.2873 351.043L85.2738 351.057Z" fill="#004EA6"/>
<path d="M81.7443 347.113C81.7579 347.019 81.8258 346.951 81.9208 346.937C82.0294 346.937 84.6357 345.921 86.129 346.68C86.5769 346.924 86.8891 347.33 87.0249 347.818C87.2285 348.211 87.1335 348.699 86.7941 348.984C85.8439 349.688 82.8167 348.36 81.7986 347.439V347.344L81.7443 347.113ZM85.8982 347.113C84.7851 346.775 83.5905 346.829 82.5045 347.249C83.7262 348.103 86.0339 348.943 86.5769 348.482C86.5769 348.482 86.767 348.347 86.5769 347.913L86.4819 347.791C86.3733 347.52 86.1561 347.303 85.8982 347.168V347.113Z" fill="#004EA6"/>
<path d="M82.7081 344.918L79.3281 336.313C79.1787 335.92 78.7715 335.689 78.3507 335.771L70.0973 337.126C69.2828 337.329 69.0113 339.253 69.0385 339.335C70.8032 345.46 75.1335 357.209 76.8439 361.356C78.5543 365.503 82.6538 364.256 82.2738 362.4C80.6991 354.065 81.6765 350.203 82.7217 346.829C82.9525 346.205 82.9525 345.528 82.7081 344.918Z" fill="#212529"/>
<g opacity="0.2">
<path opacity="0.2" d="M90.8258 330.499L99.8801 326.352L106.084 334.605L95.0475 339.118L90.8258 330.499Z" fill="#151515"/>
</g>
<path d="M138.568 239.052C137.713 240.787 137.034 242.603 136.572 244.473C133.952 254.379 135.351 307.854 132.921 308.396C123.527 310.497 112.206 316.121 96.1606 327.978C97.8032 331.963 99.2285 336.042 100.45 340.175C100.45 340.175 138.201 328.819 148.762 321.894C155.265 317.625 170.482 242.508 167.319 236.518C165.527 233.211 146.428 221.936 138.568 239.052Z" fill="#004EA6"/>
<g opacity="0.2">
<path opacity="0.2" d="M138.568 239.052C137.713 240.787 137.034 242.603 136.572 244.473C133.952 254.379 135.351 307.854 132.921 308.396C123.527 310.497 112.206 316.121 96.1606 327.978C97.8032 331.963 99.2285 336.042 100.45 340.175C100.45 340.175 138.201 328.819 148.762 321.894C155.265 317.625 170.482 242.508 167.319 236.518C165.527 233.211 146.428 221.936 138.568 239.052Z" fill="#151515"/>
</g>
<path d="M173.645 224.538L176.862 225.744C174.31 243.443 172.6 250.07 172.6 250.07L168.853 259.949C168.853 259.949 141.446 265.668 135.133 253.173C123.785 230.691 141.663 213.006 141.663 213.006C141.663 213.006 161.957 219.7 173.645 224.538Z" fill="#004EA6"/>
<path d="M211.328 334.578L205.749 360.326C204.88 360.584 197.156 360.977 197.156 360.977L199.966 336.042L211.328 334.578Z" fill="#FDD0BF"/>
<path d="M208.179 359.798C208.084 359.744 208.043 359.649 208.057 359.54C208.07 359.432 208.152 359.351 208.247 359.31C208.437 359.31 212.631 358.05 214.192 358.944C214.505 359.107 214.722 359.378 214.803 359.716C214.939 360.109 214.817 360.543 214.491 360.801C213.934 361.316 212.604 361.194 211.287 360.801C210.229 360.57 209.183 360.231 208.179 359.798ZM213.5 359.215C212.034 359.052 210.541 359.188 209.129 359.608C210.934 360.34 213.541 360.963 214.219 360.408C214.314 360.313 214.41 360.191 214.328 359.838C214.287 359.635 214.152 359.459 213.962 359.364C213.812 359.296 213.663 359.242 213.5 359.201V359.215Z" fill="#004EA6"/>
<path d="M208.097 359.662C208.043 359.581 208.043 359.473 208.097 359.391C208.097 359.283 209.238 356.518 210.88 355.732C211.355 355.543 211.871 355.543 212.346 355.732C212.781 355.827 213.066 356.234 213.038 356.667C212.889 357.901 209.767 359.581 208.369 359.838H208.247L208.097 359.662ZM211.084 356.234C210.038 356.952 209.238 357.968 208.776 359.147C210.269 358.659 212.523 357.277 212.563 356.559C212.563 356.491 212.563 356.315 212.183 356.152H212.02C211.708 356.071 211.382 356.098 211.084 356.234Z" fill="#004EA6"/>
<path d="M207.174 357.467L197.428 354.499C196.993 354.377 196.545 354.58 196.328 354.973L191.509 362.711C191.075 363.525 192.296 364.961 192.378 364.988C198.133 367.387 210.867 371.547 215.143 372.74C219.419 373.932 221.373 369.758 219.758 368.877C212.523 364.92 210.364 361.668 208.64 358.659C208.342 358.077 207.812 357.657 207.174 357.467Z" fill="#212529"/>
<g opacity="0.2">
<path opacity="0.2" d="M199.043 344.2L199.966 336.015L211.328 334.578L208.952 345.772L199.043 344.2Z" fill="#151515"/>
</g>
<path d="M135.459 247.563C149.278 266.535 202.247 286.564 202.247 286.564C200.115 303.599 199.043 320.755 199.043 337.925C203.183 338.291 207.283 339.077 211.26 340.27C211.26 340.27 224.129 288.841 224.129 277.227C224.129 266.223 155.726 216.109 139.369 225.175C134.835 227.628 129.011 238.74 135.459 247.563Z" fill="#004EA6"/>
<path d="M215.238 335.012C215.333 335.012 213.174 342.181 213.174 342.181L195.12 339.267L196.192 332.491L215.238 335.012Z" fill="#004EA6"/>
<path d="M105.405 339.457C105.405 339.552 98.9977 341.53 98.9977 341.53L93.3507 326.555L98.9706 323.845L105.405 339.457Z" fill="#004EA6"/>
<path opacity="0.2" d="M215.238 335.012C215.333 335.012 213.174 342.181 213.174 342.181L195.12 339.267L196.192 332.491L215.238 335.012Z" fill="#151515"/>
<path opacity="0.2" d="M105.405 339.457C105.405 339.552 98.9977 341.53 98.9977 341.53L93.3507 326.555L98.9706 323.845L105.405 339.457Z" fill="#151515"/>
<path d="M175.382 228.983L140.387 210.986C141.853 207.49 144.12 202.598 150.758 188.369C155.17 178.503 158.943 168.353 162.038 157.999V157.904C162.934 155.248 165.812 153.825 168.473 154.706H168.554C170.998 155.546 173.984 156.671 176.903 157.986C182.414 160.425 187.776 163.176 192.962 166.239C194.645 167.336 196.26 168.543 197.781 169.857C199.966 171.632 201.011 174.465 200.495 177.243C198.894 186.16 195.296 196.066 175.382 228.983Z" fill="#004EA6"/>
<path opacity="0.8" d="M175.382 228.983L141.609 211.623C143.088 208.114 143.808 208.1 161.971 157.999V157.904C162.826 155.289 165.622 153.825 168.269 154.638H168.351C170.713 155.438 173.645 156.509 176.414 157.755C181.722 160.113 186.894 162.77 191.889 165.724C193.505 166.794 195.052 167.973 196.518 169.247C198.663 171.009 199.667 173.814 199.111 176.538C197.428 185.401 195.201 196.025 175.382 228.983Z" fill="white"/>
<path d="M175.41 235.271C175.532 234.485 137.4 220.147 137.4 220.147L139.342 215.553L176.957 231.693L175.41 235.271Z" fill="#212529"/>
<path opacity="0.7" d="M175.41 235.271C175.532 234.485 137.4 220.147 137.4 220.147L139.342 215.553L176.957 231.693L175.41 235.271Z" fill="white"/>
<path d="M176.699 157.159C173.686 155.804 170.468 154.598 167.889 153.717H167.808H167.658C164.848 152.85 161.862 154.422 160.98 157.227V157.24C157.722 168.109 153.771 178.76 149.143 189.114C138.975 198.41 124.464 194.535 116.048 202.788L108.364 209.116L110.848 209.753C123.052 212.83 134.292 218.887 143.577 227.37C176.319 215.594 180.486 165.426 178.396 157.864L176.699 157.159Z" fill="#212529"/>
<path opacity="0.2" d="M153.921 177.703C156.12 171.781 157.627 167.662 159.771 160.967C159.88 160.899 159.989 160.832 160.111 160.791C162.826 159.504 165.853 159.26 161.998 167.391C161.998 167.391 155.428 177.121 153.921 177.703Z" fill="#151515"/>
<path d="M184.898 167.607C176.753 163.948 176.278 157.715 176.278 157.715C181.572 156.021 185.088 145.925 186.554 140.097L189.011 145.857L192.364 153.717C191.794 154.408 191.265 155.126 190.776 155.885C188.821 158.88 188.156 162.2 192.256 165.697C192.256 165.751 191.889 170.711 184.898 167.607Z" fill="#FDD0BF"/>
<path d="M174.934 156.278L177.853 156.631C179.21 160.696 183.283 164.762 186.296 167.77C184.219 168.014 182.278 168.868 180.69 170.223C173.726 163 174.934 156.278 174.934 156.278Z" fill="#004EA6"/>
<path opacity="0.7" d="M177.88 156.631C179.238 160.696 183.31 164.762 186.324 167.77C184.247 168.014 182.305 168.868 180.717 170.223C173.726 163 174.962 156.278 174.962 156.278" fill="white"/>
<path d="M192.459 165.29L190.409 163.637C190.409 163.637 187.043 167.906 184.355 167.377C187.64 171.063 187.274 173.435 187.274 173.435C194.156 174.573 192.459 165.29 192.459 165.29Z" fill="#004EA6"/>
<path d="M251.305 174.383C251.305 173.299 254.563 168.014 255.378 168.231C256.6 169.166 257.536 170.426 258.093 171.863C257.984 172.771 256.07 179.641 251.699 179.912C249.962 180.007 251.305 174.383 251.305 174.383Z" fill="#FDD0BF"/>
<path d="M255.324 168.231C255.324 168.231 257.93 166.415 258.962 166.713C259.925 167.16 260.808 167.77 261.554 168.515L258.038 171.863L255.324 168.231Z" fill="#FDD0BF"/>
<path d="M247.111 175.034L251.36 175.074L251.645 179.912L243.554 180.387L247.111 175.034Z" fill="#FDD0BF"/>
<path d="M249.133 174.952L247.667 181.837L220.776 183.924L196.342 181.457L194.577 166.55C195.636 166.849 207.636 170.914 220.369 173.814C223.26 173.719 249.133 174.952 249.133 174.952Z" fill="#212529"/>
<g opacity="0.2">
<path opacity="0.2" d="M249.133 174.952L247.667 181.837L220.776 183.924L196.342 181.457L194.577 166.55C195.636 166.849 207.636 170.914 220.369 173.814C223.26 173.719 249.133 174.952 249.133 174.952Z" fill="#151515"/>
</g>
<path opacity="0.2" d="M211.437 182.975L196.314 181.457L195.663 175.86C197.903 177.08 206.047 180.197 211.437 182.975Z" fill="#151515"/>
<path d="M176.292 237.724L169.762 233.794C186.785 206.826 193.708 175.224 192.337 165.331C194.808 166.767 194.889 166.266 197.197 167.946C199.572 170.02 200.686 173.204 200.129 176.308C200.102 184.574 195.609 195.104 176.292 237.724Z" fill="#212529"/>
<path opacity="0.7" d="M192.459 165.29L190.409 163.637C190.409 163.637 187.043 167.906 184.355 167.377C187.64 171.063 187.274 173.435 187.274 173.435C194.156 174.573 192.459 165.29 192.459 165.29Z" fill="white"/>
<path opacity="0.2" d="M191.224 155.248L188.007 147.754C187.572 148.472 187.219 149.231 186.948 150.017C186.133 152.416 187.817 156.183 189.771 157.769L191.224 155.248Z" fill="#151515"/>
<path d="M193.6 127.237C198.419 124.106 204.853 125.475 207.989 130.286C212.726 137.197 207.5 147.741 202.382 152.823C198.419 156.888 191.916 156.969 187.857 153.026C186.364 151.576 185.346 149.719 184.939 147.673C183.744 142.035 186.296 138.187 190.002 131.208C190.83 129.595 192.079 128.226 193.6 127.237Z" fill="#FDD0BF"/>
<path d="M184.695 146.006C184.695 146.006 185.591 139.569 189.69 138.797C190.043 135.056 192.812 137.157 194.319 135.138C196.301 132.902 198.079 130.706 196.695 127.82L192.772 125.272C180.147 120.569 184.695 146.006 184.695 146.006Z" fill="#212529"/>
<path d="M201.676 148.608C202.572 149.204 203.672 149.367 204.704 149.069C203.998 147.063 203.577 144.963 203.441 142.835L201.676 148.608Z" fill="#F8723E"/>
<path d="M189.133 133.85C191.428 134.609 191.848 136.886 191.183 138.756C190.708 141.642 188.672 143.621 186.432 141.29C185.536 139.84 185.183 138.119 185.414 136.425C185.387 134.934 186.568 133.688 188.075 133.66C188.441 133.647 188.808 133.715 189.133 133.85Z" fill="#FDD0BF"/>
<path d="M200.305 140.003C200.658 140.247 200.631 140.924 200.305 141.358C199.98 141.791 199.45 142.103 199.097 141.873C198.744 141.642 198.785 141.046 199.097 140.518C199.409 139.989 199.966 139.772 200.305 140.003Z" fill="#212529"/>
<path d="M206.618 142.862C206.957 143.092 206.971 143.716 206.618 144.217C206.265 144.719 205.722 145.03 205.369 144.786C205.016 144.542 205.016 143.919 205.369 143.431C205.722 142.943 206.265 142.618 206.618 142.862Z" fill="#212529"/>
<path d="M201.867 138.078C201.744 138.132 201.622 138.132 201.5 138.078C200.645 137.658 199.654 137.631 198.785 138.011C198.609 138.119 198.378 138.065 198.269 137.889C198.174 137.712 198.229 137.482 198.405 137.374C199.505 136.832 200.781 136.832 201.88 137.374C202.07 137.468 202.138 137.685 202.057 137.875C202.016 137.956 201.948 138.024 201.867 138.078Z" fill="#212529"/>
<path d="M208.572 142.781C208.45 142.74 208.355 142.659 208.301 142.537C208.016 141.602 207.324 140.856 206.414 140.504C206.224 140.45 206.102 140.247 206.156 140.057C206.224 139.854 206.428 139.745 206.631 139.799C207.771 140.219 208.654 141.141 209.02 142.306C209.075 142.51 208.966 142.713 208.776 142.794L208.572 142.781Z" fill="#212529"/>
<path d="M213.296 129.5C212.414 131.316 210.419 132.319 208.437 131.926C205.722 131.384 199.287 128.077 198.609 127.765C197.943 127.427 197.17 127.427 196.505 127.765C195.839 128.226 195.581 129.08 195.867 129.825C193.314 128.484 190.925 126.871 188.726 125.014C188.591 123.659 188.93 122.291 189.704 121.166C190.355 120.461 191.265 120.041 192.229 120C193.152 119.987 194.075 120.149 194.943 120.475C197.686 121.45 200.333 122.697 202.83 124.188C204.69 125.353 206.726 126.627 208.803 126.153C209.468 125.868 209.876 125.204 209.835 124.486C210.364 125.082 210.812 125.733 211.192 126.437C211.559 125.787 211.681 125.042 211.559 124.31C212.631 125.285 213.975 128.064 213.296 129.5Z" fill="#212529"/>
<path d="M235.722 188.464C235.993 187.298 240.69 182.365 241.45 182.772C242.55 184.059 243.269 185.631 243.541 187.298C243.215 188.247 239.563 195.199 234.799 194.48C232.98 194.209 235.722 188.464 235.722 188.464Z" fill="#FDD0BF"/>
<path d="M241.45 182.772C241.45 182.772 244.667 181.417 245.713 181.972C246.649 182.677 247.45 183.531 248.075 184.506L243.541 187.298L241.45 182.772Z" fill="#FDD0BF"/>
<path d="M231.066 188.206L235.722 188.464L234.799 194.481L226.002 193.152L231.066 188.206Z" fill="#FDD0BF"/>
<path d="M171.907 155.424C162.337 148.35 155.197 159.422 159.69 166.957C161.428 169.898 176.536 181.444 191.957 186.756C204.839 191.215 227.346 195.388 231.581 195.985L232.939 186.851L195.093 175.698L171.907 155.424Z" fill="#212529"/>
<path d="M160.114 221.781L157.053 229.155L158.759 229.86L161.819 222.487L160.114 221.781Z" fill="#212529"/>
<path d="M201.514 150.587C199.124 148.798 196.545 147.266 193.83 146.033C193.152 148.527 194.441 151.129 196.844 152.091C198.432 152.958 200.428 152.416 201.351 150.858C201.419 150.776 201.473 150.681 201.514 150.587Z" fill="#212529"/>
<path d="M196.328 149.828C197.509 150.356 198.473 151.278 199.043 152.443C198.283 152.565 197.509 152.443 196.83 152.077C195.636 151.562 194.672 150.627 194.115 149.462C194.876 149.326 195.663 149.448 196.328 149.828Z" fill="#F8723E"/>
<path d="M201.283 150.383C200.916 150.803 200.36 150.993 199.817 150.898C198.079 150.004 196.437 148.96 194.889 147.768C194.36 147.402 194.048 146.778 194.102 146.142C196.613 147.348 199.016 148.771 201.283 150.383Z" fill="white"/>
<path d="M229.355 135.354H249.622" stroke="#EFEFEF" stroke-width="2" stroke-miterlimit="10" stroke-linecap="round"/>
<path d="M216.514 146.006H249.622" stroke="#EFEFEF" stroke-width="2" stroke-miterlimit="10" stroke-linecap="round"/>
<path d="M160.111 67.9075H180.391" stroke="#EFEFEF" stroke-width="2" stroke-miterlimit="10" stroke-linecap="round"/>
<path d="M147.269 78.5728H180.391" stroke="#EFEFEF" stroke-width="2" stroke-miterlimit="10" stroke-linecap="round"/>
<path d="M383.061 313.708H403.342" stroke="#EFEFEF" stroke-width="2" stroke-miterlimit="10" stroke-linecap="round"/>
<path d="M370.233 324.36H403.342" stroke="#EFEFEF" stroke-width="2" stroke-miterlimit="10" stroke-linecap="round"/>
</g>
<defs>
<clipPath id="clip0_594_903">
<rect width="525" height="350" fill="white" transform="translate(21.5 24)"/>
</clipPath>
</defs>
</svg>
