<svg width="16" height="16" viewBox="0 0 16 16" fill="none" xmlns="http://www.w3.org/2000/svg">
<path d="M13.3333 5.02083C12.9444 5.19444 12.5243 5.3125 12.0729 5.375C12.5451 5.09722 12.8681 4.69097 13.0417 4.15625C12.5903 4.42014 12.125 4.59722 11.6458 4.6875C11.2222 4.22917 10.691 4 10.0521 4C9.44792 4 8.93229 4.21354 8.50521 4.64062C8.07812 5.06771 7.86458 5.58333 7.86458 6.1875C7.86458 6.38889 7.88194 6.55556 7.91667 6.6875C7.02083 6.63889 6.18056 6.41319 5.39583 6.01042C4.61111 5.60764 3.94444 5.06944 3.39583 4.39583C3.19444 4.74306 3.09375 5.11111 3.09375 5.5C3.09375 6.29167 3.40972 6.89931 4.04167 7.32292C3.71528 7.31597 3.36806 7.22569 3 7.05208V7.07292C3 7.59375 3.17361 8.05729 3.52083 8.46354C3.86806 8.86979 4.29514 9.12153 4.80208 9.21875C4.60069 9.27431 4.42361 9.30208 4.27083 9.30208C4.18056 9.30208 4.04514 9.28819 3.86458 9.26042C4.01042 9.69792 4.2691 10.059 4.64062 10.3438C5.01215 10.6285 5.43403 10.7743 5.90625 10.7812C5.10069 11.4062 4.19444 11.7188 3.1875 11.7188C3.00694 11.7188 2.83333 11.7083 2.66667 11.6875C3.69444 12.3403 4.8125 12.6667 6.02083 12.6667C6.79861 12.6667 7.52778 12.5434 8.20833 12.2969C8.88889 12.0503 9.47222 11.7205 9.95833 11.3073C10.4444 10.8941 10.8628 10.4184 11.2135 9.88021C11.5642 9.34201 11.8247 8.77951 11.9948 8.19271C12.1649 7.6059 12.25 7.02083 12.25 6.4375C12.25 6.3125 12.2465 6.21875 12.2396 6.15625C12.6771 5.84375 13.0417 5.46528 13.3333 5.02083ZM16 3V13C16 13.8264 15.7066 14.533 15.1198 15.1198C14.533 15.7066 13.8264 16 13 16H3C2.17361 16 1.46701 15.7066 0.880208 15.1198C0.293403 14.533 0 13.8264 0 13V3C0 2.17361 0.293403 1.46701 0.880208 0.880208C1.46701 0.293403 2.17361 0 3 0H13C13.8264 0 14.533 0.293403 15.1198 0.880208C15.7066 1.46701 16 2.17361 16 3Z" fill="#EFEFEF"/>
</svg>
